<svg xmlns="http://www.w3.org/2000/svg" viewBox="-260 195 1110 600" width="1110" height="600" preserveAspectRatio="xMidYMid slice" role="img" aria-label="Landscaped lawn, stripes"><defs><radialGradient id="glow"><stop offset="0%" stop-color="#93c342" stop-opacity=".20"/><stop offset="100%" stop-color="#93c342" stop-opacity="0"/></radialGradient></defs><style>.dw{stroke-dasharray:100;stroke-dashoffset:100;animation:dw 12.33s ease-in-out infinite}@keyframes dw{0%{stroke-dashoffset:100}24%{stroke-dashoffset:0}84%{stroke-dashoffset:0;opacity:1}95%{stroke-dashoffset:0;opacity:0}100%{stroke-dashoffset:100;opacity:0}}.bush,.paver{opacity:0;animation:bs 12.33s ease-in-out infinite}@keyframes bs{0%,26%{opacity:0;transform:scale(.45)}42%{opacity:.5;transform:scale(1)}84%{opacity:.5}95%,100%{opacity:0}}@media (prefers-reduced-motion: reduce){*{animation:none!important}.dw{stroke-dashoffset:0!important}[class]{opacity:1!important}}</style><rect width="1200" height="900" fill="#16201a"/><line x1="0" y1="0" x2="0" y2="900" stroke="#f5f8f3" stroke-width="1" opacity=".028"/><line x1="60" y1="0" x2="60" y2="900" stroke="#f5f8f3" stroke-width="1" opacity=".028"/><line x1="120" y1="0" x2="120" y2="900" stroke="#f5f8f3" stroke-width="1" opacity=".028"/><line x1="180" y1="0" x2="180" y2="900" stroke="#f5f8f3" stroke-width="1" opacity=".028"/><line x1="240" y1="0" x2="240" y2="900" stroke="#f5f8f3" stroke-width="1" opacity=".028"/><line x1="300" y1="0" x2="300" y2="900" stroke="#f5f8f3" stroke-width="1" opacity=".028"/><line x1="360" y1="0" x2="360" y2="900" stroke="#f5f8f3" stroke-width="1" opacity=".028"/><line x1="420" y1="0" x2="420" y2="900" stroke="#f5f8f3" stroke-width="1" opacity=".028"/><line x1="480" y1="0" x2="480" y2="900" stroke="#f5f8f3" stroke-width="1" opacity=".028"/><line x1="540" y1="0" x2="540" y2="900" stroke="#f5f8f3" stroke-width="1" opacity=".028"/><line x1="600" y1="0" x2="600" y2="900" stroke="#f5f8f3" stroke-width="1" opacity=".028"/><line x1="660" y1="0" x2="660" y2="900" stroke="#f5f8f3" stroke-width="1" opacity=".028"/><line x1="720" y1="0" x2="720" y2="900" stroke="#f5f8f3" stroke-width="1" opacity=".028"/><line x1="780" y1="0" x2="780" y2="900" stroke="#f5f8f3" stroke-width="1" opacity=".028"/><line x1="840" y1="0" x2="840" y2="900" stroke="#f5f8f3" stroke-width="1" opacity=".028"/><line x1="900" y1="0" x2="900" y2="900" stroke="#f5f8f3" stroke-width="1" opacity=".028"/><line x1="960" y1="0" x2="960" y2="900" stroke="#f5f8f3" stroke-width="1" opacity=".028"/><line x1="1020" y1="0" x2="1020" y2="900" stroke="#f5f8f3" stroke-width="1" opacity=".028"/><line x1="1080" y1="0" x2="1080" y2="900" stroke="#f5f8f3" stroke-width="1" opacity=".028"/><line x1="1140" y1="0" x2="1140" y2="900" stroke="#f5f8f3" stroke-width="1" opacity=".028"/><line x1="1200" y1="0" x2="1200" y2="900" stroke="#f5f8f3" stroke-width="1" opacity=".028"/><line x1="0" y1="0" x2="1200" y2="0" stroke="#f5f8f3" stroke-width="1" opacity=".028"/><line x1="0" y1="60" x2="1200" y2="60" stroke="#f5f8f3" stroke-width="1" opacity=".028"/><line x1="0" y1="120" x2="1200" y2="120" stroke="#f5f8f3" stroke-width="1" opacity=".028"/><line x1="0" y1="180" x2="1200" y2="180" stroke="#f5f8f3" stroke-width="1" opacity=".028"/><line x1="0" y1="240" x2="1200" y2="240" stroke="#f5f8f3" stroke-width="1" opacity=".028"/><line x1="0" y1="300" x2="1200" y2="300" stroke="#f5f8f3" stroke-width="1" opacity=".028"/><line x1="0" y1="360" x2="1200" y2="360" stroke="#f5f8f3" stroke-width="1" opacity=".028"/><line x1="0" y1="420" x2="1200" y2="420" stroke="#f5f8f3" stroke-width="1" opacity=".028"/><line x1="0" y1="480" x2="1200" y2="480" stroke="#f5f8f3" stroke-width="1" opacity=".028"/><line x1="0" y1="540" x2="1200" y2="540" stroke="#f5f8f3" stroke-width="1" opacity=".028"/><line x1="0" y1="600" x2="1200" y2="600" stroke="#f5f8f3" stroke-width="1" opacity=".028"/><line x1="0" y1="660" x2="1200" y2="660" stroke="#f5f8f3" stroke-width="1" opacity=".028"/><line x1="0" y1="720" x2="1200" y2="720" stroke="#f5f8f3" stroke-width="1" opacity=".028"/><line x1="0" y1="780" x2="1200" y2="780" stroke="#f5f8f3" stroke-width="1" opacity=".028"/><line x1="0" y1="840" x2="1200" y2="840" stroke="#f5f8f3" stroke-width="1" opacity=".028"/><line x1="0" y1="900" x2="1200" y2="900" stroke="#f5f8f3" stroke-width="1" opacity=".028"/><ellipse cx="600" cy="455" rx="430" ry="330" fill="url(#glow)"/><path class="dw" d="M170,275 L1030,275" pathLength="100" stroke="#93c342" stroke-width="10" fill="none" opacity="0.58" style="animation-delay:0.00s"/><path class="dw" d="M170,326 L1030,326" pathLength="100" stroke="#93c342" stroke-width="19" fill="none" opacity="0.3" style="animation-delay:0.08s"/><path class="dw" d="M170,378 L1030,378" pathLength="100" stroke="#93c342" stroke-width="10" fill="none" opacity="0.58" style="animation-delay:0.17s"/><path class="dw" d="M170,429 L1030,429" pathLength="100" stroke="#93c342" stroke-width="19" fill="none" opacity="0.3" style="animation-delay:0.25s"/><path class="dw" d="M170,481 L1030,481" pathLength="100" stroke="#93c342" stroke-width="10" fill="none" opacity="0.58" style="animation-delay:0.34s"/><path class="dw" d="M170,532 L1030,532" pathLength="100" stroke="#93c342" stroke-width="19" fill="none" opacity="0.3" style="animation-delay:0.42s"/><path class="dw" d="M170,584 L1030,584" pathLength="100" stroke="#93c342" stroke-width="10" fill="none" opacity="0.58" style="animation-delay:0.51s"/><path class="dw" d="M170,635 L1030,635" pathLength="100" stroke="#93c342" stroke-width="19" fill="none" opacity="0.3" style="animation-delay:0.59s"/><path class="dw" d="M210,275 C510,385 320,545 590,635" pathLength="100" stroke="#f5f8f3" stroke-width="6" fill="none" opacity=".75" style="animation-delay:0.98s"/><circle class="bush" cx="282" cy="365" r="18" fill="#f5f8f3" opacity=".5" style="animation-delay:1.70s"/><circle class="bush" cx="392" cy="455" r="28" fill="#f5f8f3" opacity=".5" style="animation-delay:1.88s"/><circle class="bush" cx="463" cy="545" r="25" fill="#f5f8f3" opacity=".5" style="animation-delay:2.06s"/></svg>