<svg xmlns="http://www.w3.org/2000/svg" viewBox="0 0 1200 900" width="1200" height="900" role="img" aria-label="Concrete section"><defs><radialGradient id="glow"><stop offset="0%" stop-color="#9b541d" stop-opacity=".20"/><stop offset="100%" stop-color="#9b541d" stop-opacity="0"/></radialGradient></defs><style>.dw{stroke-dasharray:100;stroke-dashoffset:100;animation:dw 12.26s ease-in-out infinite}@keyframes dw{0%{stroke-dashoffset:100}24%{stroke-dashoffset:0}84%{stroke-dashoffset:0;opacity:1}95%{stroke-dashoffset:0;opacity:0}100%{stroke-dashoffset:100;opacity:0}}.dw2{stroke-dasharray:100;stroke-dashoffset:100;animation:dw 12.26s ease-in-out infinite}@keyframes dw{0%{stroke-dashoffset:100}24%{stroke-dashoffset:0}84%{stroke-dashoffset:0;opacity:1}95%{stroke-dashoffset:0;opacity:0}100%{stroke-dashoffset:100;opacity:0}}.rise{transform-origin:center bottom;animation:rs 12.26s ease-in-out infinite}@keyframes rs{0%,16%{transform:scaleY(0)}48%{transform:scaleY(1)}86%{transform:scaleY(1);opacity:.34}96%,100%{opacity:0}}.sweep{opacity:0;animation:sw 12.26s ease-in-out infinite}@keyframes sw{0%,46%{transform:translateX(0);opacity:0}52%{opacity:1}76%{transform:translateX(780px);opacity:1}84%,100%{opacity:0}}.st{opacity:0;animation:stg 12.26s ease-in-out infinite}@keyframes stg{0%,6%{opacity:0;transform:translateY(-8px)}24%{opacity:1;transform:translateY(0)}84%{opacity:1}95%,100%{opacity:0}}@media (prefers-reduced-motion: reduce){*{animation:none!important}.dw{stroke-dashoffset:0!important}[class]{opacity:1!important}}</style><rect width="1200" height="900" fill="#2b2a28"/><line x1="0" y1="0" x2="0" y2="900" stroke="#f4f3f0" stroke-width="1" opacity=".028"/><line x1="60" y1="0" x2="60" y2="900" stroke="#f4f3f0" stroke-width="1" opacity=".028"/><line x1="120" y1="0" x2="120" y2="900" stroke="#f4f3f0" stroke-width="1" opacity=".028"/><line x1="180" y1="0" x2="180" y2="900" stroke="#f4f3f0" stroke-width="1" opacity=".028"/><line x1="240" y1="0" x2="240" y2="900" stroke="#f4f3f0" stroke-width="1" opacity=".028"/><line x1="300" y1="0" x2="300" y2="900" stroke="#f4f3f0" stroke-width="1" opacity=".028"/><line x1="360" y1="0" x2="360" y2="900" stroke="#f4f3f0" stroke-width="1" opacity=".028"/><line x1="420" y1="0" x2="420" y2="900" stroke="#f4f3f0" stroke-width="1" opacity=".028"/><line x1="480" y1="0" x2="480" y2="900" stroke="#f4f3f0" stroke-width="1" opacity=".028"/><line x1="540" y1="0" x2="540" y2="900" stroke="#f4f3f0" stroke-width="1" opacity=".028"/><line x1="600" y1="0" x2="600" y2="900" stroke="#f4f3f0" stroke-width="1" opacity=".028"/><line x1="660" y1="0" x2="660" y2="900" stroke="#f4f3f0" stroke-width="1" opacity=".028"/><line x1="720" y1="0" x2="720" y2="900" stroke="#f4f3f0" stroke-width="1" opacity=".028"/><line x1="780" y1="0" x2="780" y2="900" stroke="#f4f3f0" stroke-width="1" opacity=".028"/><line x1="840" y1="0" x2="840" y2="900" stroke="#f4f3f0" stroke-width="1" opacity=".028"/><line x1="900" y1="0" x2="900" y2="900" stroke="#f4f3f0" stroke-width="1" opacity=".028"/><line x1="960" y1="0" x2="960" y2="900" stroke="#f4f3f0" stroke-width="1" opacity=".028"/><line x1="1020" y1="0" x2="1020" y2="900" stroke="#f4f3f0" stroke-width="1" opacity=".028"/><line x1="1080" y1="0" x2="1080" y2="900" stroke="#f4f3f0" stroke-width="1" opacity=".028"/><line x1="1140" y1="0" x2="1140" y2="900" stroke="#f4f3f0" stroke-width="1" opacity=".028"/><line x1="1200" y1="0" x2="1200" y2="900" stroke="#f4f3f0" stroke-width="1" opacity=".028"/><line x1="0" y1="0" x2="1200" y2="0" stroke="#f4f3f0" stroke-width="1" opacity=".028"/><line x1="0" y1="60" x2="1200" y2="60" stroke="#f4f3f0" stroke-width="1" opacity=".028"/><line x1="0" y1="120" x2="1200" y2="120" stroke="#f4f3f0" stroke-width="1" opacity=".028"/><line x1="0" y1="180" x2="1200" y2="180" stroke="#f4f3f0" stroke-width="1" opacity=".028"/><line x1="0" y1="240" x2="1200" y2="240" stroke="#f4f3f0" stroke-width="1" opacity=".028"/><line x1="0" y1="300" x2="1200" y2="300" stroke="#f4f3f0" stroke-width="1" opacity=".028"/><line x1="0" y1="360" x2="1200" y2="360" stroke="#f4f3f0" stroke-width="1" opacity=".028"/><line x1="0" y1="420" x2="1200" y2="420" stroke="#f4f3f0" stroke-width="1" opacity=".028"/><line x1="0" y1="480" x2="1200" y2="480" stroke="#f4f3f0" stroke-width="1" opacity=".028"/><line x1="0" y1="540" x2="1200" y2="540" stroke="#f4f3f0" stroke-width="1" opacity=".028"/><line x1="0" y1="600" x2="1200" y2="600" stroke="#f4f3f0" stroke-width="1" opacity=".028"/><line x1="0" y1="660" x2="1200" y2="660" stroke="#f4f3f0" stroke-width="1" opacity=".028"/><line x1="0" y1="720" x2="1200" y2="720" stroke="#f4f3f0" stroke-width="1" opacity=".028"/><line x1="0" y1="780" x2="1200" y2="780" stroke="#f4f3f0" stroke-width="1" opacity=".028"/><line x1="0" y1="840" x2="1200" y2="840" stroke="#f4f3f0" stroke-width="1" opacity=".028"/><line x1="0" y1="900" x2="1200" y2="900" stroke="#f4f3f0" stroke-width="1" opacity=".028"/><ellipse cx="432" cy="455" rx="430" ry="330" fill="url(#glow)"/><rect class="st" x="126" y="488" width="780" height="112" fill="#f4f3f0" opacity="0.1" style="animation-delay:0.00s"/><rect class="st" x="126" y="488" width="780" height="112" fill="none" stroke="#f4f3f0" stroke-width="1.6" opacity=".35" style="animation-delay:0.00s"/><rect class="st" x="126" y="409" width="780" height="79" fill="#f4f3f0" opacity="0.2" style="animation-delay:0.34s"/><rect class="st" x="126" y="409" width="780" height="79" fill="none" stroke="#f4f3f0" stroke-width="1.6" opacity=".35" style="animation-delay:0.34s"/><rect class="st" x="126" y="310" width="780" height="99" fill="#9b541d" opacity="0.34" style="animation-delay:0.68s"/><rect class="st" x="126" y="310" width="780" height="99" fill="none" stroke="#f4f3f0" stroke-width="1.6" opacity=".35" style="animation-delay:0.68s"/><rect class="st" x="126" y="270" width="780" height="40" fill="#9b541d" opacity="0.46" style="animation-delay:1.02s"/><rect class="st" x="126" y="270" width="780" height="40" fill="none" stroke="#f4f3f0" stroke-width="1.6" opacity=".35" style="animation-delay:1.02s"/><circle class="st" cx="186" cy="442" r="6" fill="#f4f3f0" opacity=".55" style="animation-delay:1.50s"/><circle class="st" cx="264" cy="442" r="6" fill="#f4f3f0" opacity=".55" style="animation-delay:1.55s"/><circle class="st" cx="342" cy="442" r="6" fill="#f4f3f0" opacity=".55" style="animation-delay:1.60s"/><circle class="st" cx="420" cy="442" r="6" fill="#f4f3f0" opacity=".55" style="animation-delay:1.65s"/><circle class="st" cx="498" cy="442" r="6" fill="#f4f3f0" opacity=".55" style="animation-delay:1.70s"/><circle class="st" cx="576" cy="442" r="6" fill="#f4f3f0" opacity=".55" style="animation-delay:1.75s"/><circle class="st" cx="654" cy="442" r="6" fill="#f4f3f0" opacity=".55" style="animation-delay:1.80s"/><circle class="st" cx="732" cy="442" r="6" fill="#f4f3f0" opacity=".55" style="animation-delay:1.85s"/><circle class="st" cx="810" cy="442" r="6" fill="#f4f3f0" opacity=".55" style="animation-delay:1.90s"/><line class="st" x1="144" y1="600" x2="162" y2="488" stroke="#f4f3f0" stroke-width="1.3" opacity=".18" style="animation-delay:0.20s"/><line class="st" x1="170" y1="600" x2="188" y2="488" stroke="#f4f3f0" stroke-width="1.3" opacity=".18" style="animation-delay:0.21s"/><line class="st" x1="196" y1="600" x2="214" y2="488" stroke="#f4f3f0" stroke-width="1.3" opacity=".18" style="animation-delay:0.22s"/><line class="st" x1="222" y1="600" x2="240" y2="488" stroke="#f4f3f0" stroke-width="1.3" opacity=".18" style="animation-delay:0.24s"/><line class="st" x1="248" y1="600" x2="266" y2="488" stroke="#f4f3f0" stroke-width="1.3" opacity=".18" style="animation-delay:0.25s"/><line class="st" x1="274" y1="600" x2="292" y2="488" stroke="#f4f3f0" stroke-width="1.3" opacity=".18" style="animation-delay:0.26s"/><line class="st" x1="300" y1="600" x2="318" y2="488" stroke="#f4f3f0" stroke-width="1.3" opacity=".18" style="animation-delay:0.27s"/><line class="st" x1="326" y1="600" x2="344" y2="488" stroke="#f4f3f0" stroke-width="1.3" opacity=".18" style="animation-delay:0.28s"/><line class="st" x1="352" y1="600" x2="370" y2="488" stroke="#f4f3f0" stroke-width="1.3" opacity=".18" style="animation-delay:0.30s"/><line class="st" x1="378" y1="600" x2="396" y2="488" stroke="#f4f3f0" stroke-width="1.3" opacity=".18" style="animation-delay:0.31s"/><line class="st" x1="404" y1="600" x2="422" y2="488" stroke="#f4f3f0" stroke-width="1.3" opacity=".18" style="animation-delay:0.32s"/><line class="st" x1="430" y1="600" x2="448" y2="488" stroke="#f4f3f0" stroke-width="1.3" opacity=".18" style="animation-delay:0.33s"/><line class="st" x1="456" y1="600" x2="474" y2="488" stroke="#f4f3f0" stroke-width="1.3" opacity=".18" style="animation-delay:0.34s"/><line class="st" x1="482" y1="600" x2="500" y2="488" stroke="#f4f3f0" stroke-width="1.3" opacity=".18" style="animation-delay:0.36s"/><line class="st" x1="508" y1="600" x2="526" y2="488" stroke="#f4f3f0" stroke-width="1.3" opacity=".18" style="animation-delay:0.37s"/><line class="st" x1="534" y1="600" x2="552" y2="488" stroke="#f4f3f0" stroke-width="1.3" opacity=".18" style="animation-delay:0.38s"/><line class="st" x1="560" y1="600" x2="578" y2="488" stroke="#f4f3f0" stroke-width="1.3" opacity=".18" style="animation-delay:0.39s"/><line class="st" x1="586" y1="600" x2="604" y2="488" stroke="#f4f3f0" stroke-width="1.3" opacity=".18" style="animation-delay:0.40s"/><line class="st" x1="612" y1="600" x2="630" y2="488" stroke="#f4f3f0" stroke-width="1.3" opacity=".18" style="animation-delay:0.42s"/><line class="st" x1="638" y1="600" x2="656" y2="488" stroke="#f4f3f0" stroke-width="1.3" opacity=".18" style="animation-delay:0.43s"/><line class="st" x1="664" y1="600" x2="682" y2="488" stroke="#f4f3f0" stroke-width="1.3" opacity=".18" style="animation-delay:0.44s"/><line class="st" x1="690" y1="600" x2="708" y2="488" stroke="#f4f3f0" stroke-width="1.3" opacity=".18" style="animation-delay:0.45s"/><line class="st" x1="716" y1="600" x2="734" y2="488" stroke="#f4f3f0" stroke-width="1.3" opacity=".18" style="animation-delay:0.46s"/><line class="st" x1="742" y1="600" x2="760" y2="488" stroke="#f4f3f0" stroke-width="1.3" opacity=".18" style="animation-delay:0.48s"/><line class="st" x1="768" y1="600" x2="786" y2="488" stroke="#f4f3f0" stroke-width="1.3" opacity=".18" style="animation-delay:0.49s"/><line class="st" x1="794" y1="600" x2="812" y2="488" stroke="#f4f3f0" stroke-width="1.3" opacity=".18" style="animation-delay:0.50s"/><line class="st" x1="820" y1="600" x2="838" y2="488" stroke="#f4f3f0" stroke-width="1.3" opacity=".18" style="animation-delay:0.51s"/><line class="st" x1="846" y1="600" x2="864" y2="488" stroke="#f4f3f0" stroke-width="1.3" opacity=".18" style="animation-delay:0.52s"/><line class="st" x1="872" y1="600" x2="890" y2="488" stroke="#f4f3f0" stroke-width="1.3" opacity=".18" style="animation-delay:0.54s"/><path class="dw" d="M485,303 L485,415" pathLength="100" stroke="#f4f3f0" stroke-width="3.5" opacity=".8" style="animation-delay:1.9s"/></svg>