<svg xmlns="http://www.w3.org/2000/svg" viewBox="0 0 1200 900" width="1200" height="900" role="img" aria-label="gc motion graphic"><style>.fl{animation:fl 2.09s linear infinite}@keyframes fl{0%{stroke-dashoffset:240}100%{stroke-dashoffset:0}}@media (prefers-reduced-motion: reduce){*{animation:none!important}.dw{stroke-dashoffset:0!important}.st,.rise,.rg,.sw,.ln{opacity:1!important;transform:none!important}}</style><rect width="1200" height="900" fill="#13161a"/><line x1="0" y1="0" x2="0" y2="900" stroke="#f4f5f5" stroke-width="1" opacity=".03"/><line x1="67" y1="0" x2="67" y2="900" stroke="#f4f5f5" stroke-width="1" opacity=".03"/><line x1="134" y1="0" x2="134" y2="900" stroke="#f4f5f5" stroke-width="1" opacity=".03"/><line x1="201" y1="0" x2="201" y2="900" stroke="#f4f5f5" stroke-width="1" opacity=".03"/><line x1="268" y1="0" x2="268" y2="900" stroke="#f4f5f5" stroke-width="1" opacity=".03"/><line x1="335" y1="0" x2="335" y2="900" stroke="#f4f5f5" stroke-width="1" opacity=".03"/><line x1="402" y1="0" x2="402" y2="900" stroke="#f4f5f5" stroke-width="1" opacity=".03"/><line x1="469" y1="0" x2="469" y2="900" stroke="#f4f5f5" stroke-width="1" opacity=".03"/><line x1="536" y1="0" x2="536" y2="900" stroke="#f4f5f5" stroke-width="1" opacity=".03"/><line x1="603" y1="0" x2="603" y2="900" stroke="#f4f5f5" stroke-width="1" opacity=".03"/><line x1="670" y1="0" x2="670" y2="900" stroke="#f4f5f5" stroke-width="1" opacity=".03"/><line x1="737" y1="0" x2="737" y2="900" stroke="#f4f5f5" stroke-width="1" opacity=".03"/><line x1="804" y1="0" x2="804" y2="900" stroke="#f4f5f5" stroke-width="1" opacity=".03"/><line x1="871" y1="0" x2="871" y2="900" stroke="#f4f5f5" stroke-width="1" opacity=".03"/><line x1="938" y1="0" x2="938" y2="900" stroke="#f4f5f5" stroke-width="1" opacity=".03"/><line x1="1005" y1="0" x2="1005" y2="900" stroke="#f4f5f5" stroke-width="1" opacity=".03"/><line x1="1072" y1="0" x2="1072" y2="900" stroke="#f4f5f5" stroke-width="1" opacity=".03"/><line x1="1139" y1="0" x2="1139" y2="900" stroke="#f4f5f5" stroke-width="1" opacity=".03"/><line x1="0" y1="0" x2="1200" y2="0" stroke="#f4f5f5" stroke-width="1" opacity=".03"/><line x1="0" y1="63" x2="1200" y2="63" stroke="#f4f5f5" stroke-width="1" opacity=".03"/><line x1="0" y1="126" x2="1200" y2="126" stroke="#f4f5f5" stroke-width="1" opacity=".03"/><line x1="0" y1="189" x2="1200" y2="189" stroke="#f4f5f5" stroke-width="1" opacity=".03"/><line x1="0" y1="252" x2="1200" y2="252" stroke="#f4f5f5" stroke-width="1" opacity=".03"/><line x1="0" y1="315" x2="1200" y2="315" stroke="#f4f5f5" stroke-width="1" opacity=".03"/><line x1="0" y1="378" x2="1200" y2="378" stroke="#f4f5f5" stroke-width="1" opacity=".03"/><line x1="0" y1="441" x2="1200" y2="441" stroke="#f4f5f5" stroke-width="1" opacity=".03"/><line x1="0" y1="504" x2="1200" y2="504" stroke="#f4f5f5" stroke-width="1" opacity=".03"/><line x1="0" y1="567" x2="1200" y2="567" stroke="#f4f5f5" stroke-width="1" opacity=".03"/><line x1="0" y1="630" x2="1200" y2="630" stroke="#f4f5f5" stroke-width="1" opacity=".03"/><line x1="0" y1="693" x2="1200" y2="693" stroke="#f4f5f5" stroke-width="1" opacity=".03"/><line x1="0" y1="756" x2="1200" y2="756" stroke="#f4f5f5" stroke-width="1" opacity=".03"/><line x1="0" y1="819" x2="1200" y2="819" stroke="#f4f5f5" stroke-width="1" opacity=".03"/><line x1="0" y1="882" x2="1200" y2="882" stroke="#f4f5f5" stroke-width="1" opacity=".03"/><defs><radialGradient id="g"><stop offset="0%" stop-color="#a2a6a4" stop-opacity=".22"/><stop offset="100%" stop-color="#a2a6a4" stop-opacity="0"/></radialGradient></defs><circle cx="600" cy="444" r="361" fill="url(#g)"/><g opacity="0.90" transform="translate(-200,-150) scale(.5) rotate(3.15 600 460)"><path d="M261,184 L855,184" stroke="#f4f5f5" stroke-width="16.6" opacity=".32" fill="none" stroke-linecap="round"/><path class="fl" d="M261,184 L855,184" stroke="#a2a6a4" stroke-width="5.8" fill="none" stroke-dasharray="21 61" stroke-linecap="round" style="animation-delay:0.00s"/><path d="M279,269 L816,269" stroke="#f4f5f5" stroke-width="14.9" opacity=".32" fill="none" stroke-linecap="round"/><path class="fl" d="M279,269 L816,269" stroke="#a2a6a4" stroke-width="5.5" fill="none" stroke-dasharray="22 66" stroke-linecap="round" style="animation-delay:0.29s"/><path d="M235,354 L933,354" stroke="#f4f5f5" stroke-width="12.8" opacity=".32" fill="none" stroke-linecap="round"/><path class="fl" d="M235,354 L933,354" stroke="#a2a6a4" stroke-width="7.2" fill="none" stroke-dasharray="29 68" stroke-linecap="round" style="animation-delay:0.59s"/><path d="M299,439 L1023,439" stroke="#f4f5f5" stroke-width="11.6" opacity=".32" fill="none" stroke-linecap="round"/><path class="fl" d="M299,439 L1023,439" stroke="#a2a6a4" stroke-width="6.1" fill="none" stroke-dasharray="18 98" stroke-linecap="round" style="animation-delay:0.88s"/><path d="M218,524 L925,524" stroke="#f4f5f5" stroke-width="14.7" opacity=".32" fill="none" stroke-linecap="round"/><path class="fl" d="M218,524 L925,524" stroke="#a2a6a4" stroke-width="5.0" fill="none" stroke-dasharray="20 94" stroke-linecap="round" style="animation-delay:1.18s"/><path d="M296,610 L728,610" stroke="#f4f5f5" stroke-width="16.0" opacity=".32" fill="none" stroke-linecap="round"/><path class="fl" d="M296,610 L728,610" stroke="#a2a6a4" stroke-width="5.6" fill="none" stroke-dasharray="17 76" stroke-linecap="round" style="animation-delay:1.47s"/><path d="M165,695 L822,695" stroke="#f4f5f5" stroke-width="14.3" opacity=".32" fill="none" stroke-linecap="round"/><path class="fl" d="M165,695 L822,695" stroke="#a2a6a4" stroke-width="6.4" fill="none" stroke-dasharray="17 75" stroke-linecap="round" style="animation-delay:1.76s"/></g><g opacity="0.70" transform="translate(200,-150) scale(.5) rotate(3.15 600 460)"><path d="M261,184 L855,184" stroke="#f4f5f5" stroke-width="16.6" opacity=".32" fill="none" stroke-linecap="round"/><path class="fl" d="M261,184 L855,184" stroke="#a2a6a4" stroke-width="5.8" fill="none" stroke-dasharray="21 61" stroke-linecap="round" style="animation-delay:0.00s"/><path d="M279,269 L816,269" stroke="#f4f5f5" stroke-width="14.9" opacity=".32" fill="none" stroke-linecap="round"/><path class="fl" d="M279,269 L816,269" stroke="#a2a6a4" stroke-width="5.5" fill="none" stroke-dasharray="22 66" stroke-linecap="round" style="animation-delay:0.29s"/><path d="M235,354 L933,354" stroke="#f4f5f5" stroke-width="12.8" opacity=".32" fill="none" stroke-linecap="round"/><path class="fl" d="M235,354 L933,354" stroke="#a2a6a4" stroke-width="7.2" fill="none" stroke-dasharray="29 68" stroke-linecap="round" style="animation-delay:0.59s"/><path d="M299,439 L1023,439" stroke="#f4f5f5" stroke-width="11.6" opacity=".32" fill="none" stroke-linecap="round"/><path class="fl" d="M299,439 L1023,439" stroke="#a2a6a4" stroke-width="6.1" fill="none" stroke-dasharray="18 98" stroke-linecap="round" style="animation-delay:0.88s"/><path d="M218,524 L925,524" stroke="#f4f5f5" stroke-width="14.7" opacity=".32" fill="none" stroke-linecap="round"/><path class="fl" d="M218,524 L925,524" stroke="#a2a6a4" stroke-width="5.0" fill="none" stroke-dasharray="20 94" stroke-linecap="round" style="animation-delay:1.18s"/><path d="M296,610 L728,610" stroke="#f4f5f5" stroke-width="16.0" opacity=".32" fill="none" stroke-linecap="round"/><path class="fl" d="M296,610 L728,610" stroke="#a2a6a4" stroke-width="5.6" fill="none" stroke-dasharray="17 76" stroke-linecap="round" style="animation-delay:1.47s"/><path d="M165,695 L822,695" stroke="#f4f5f5" stroke-width="14.3" opacity=".32" fill="none" stroke-linecap="round"/><path class="fl" d="M165,695 L822,695" stroke="#a2a6a4" stroke-width="6.4" fill="none" stroke-dasharray="17 75" stroke-linecap="round" style="animation-delay:1.76s"/></g><g opacity="0.50" transform="translate(-200,150) scale(.5) rotate(3.15 600 460)"><path d="M261,184 L855,184" stroke="#f4f5f5" stroke-width="16.6" opacity=".32" fill="none" stroke-linecap="round"/><path class="fl" d="M261,184 L855,184" stroke="#a2a6a4" stroke-width="5.8" fill="none" stroke-dasharray="21 61" stroke-linecap="round" style="animation-delay:0.00s"/><path d="M279,269 L816,269" stroke="#f4f5f5" stroke-width="14.9" opacity=".32" fill="none" stroke-linecap="round"/><path class="fl" d="M279,269 L816,269" stroke="#a2a6a4" stroke-width="5.5" fill="none" stroke-dasharray="22 66" stroke-linecap="round" style="animation-delay:0.29s"/><path d="M235,354 L933,354" stroke="#f4f5f5" stroke-width="12.8" opacity=".32" fill="none" stroke-linecap="round"/><path class="fl" d="M235,354 L933,354" stroke="#a2a6a4" stroke-width="7.2" fill="none" stroke-dasharray="29 68" stroke-linecap="round" style="animation-delay:0.59s"/><path d="M299,439 L1023,439" stroke="#f4f5f5" stroke-width="11.6" opacity=".32" fill="none" stroke-linecap="round"/><path class="fl" d="M299,439 L1023,439" stroke="#a2a6a4" stroke-width="6.1" fill="none" stroke-dasharray="18 98" stroke-linecap="round" style="animation-delay:0.88s"/><path d="M218,524 L925,524" stroke="#f4f5f5" stroke-width="14.7" opacity=".32" fill="none" stroke-linecap="round"/><path class="fl" d="M218,524 L925,524" stroke="#a2a6a4" stroke-width="5.0" fill="none" stroke-dasharray="20 94" stroke-linecap="round" style="animation-delay:1.18s"/><path d="M296,610 L728,610" stroke="#f4f5f5" stroke-width="16.0" opacity=".32" fill="none" stroke-linecap="round"/><path class="fl" d="M296,610 L728,610" stroke="#a2a6a4" stroke-width="5.6" fill="none" stroke-dasharray="17 76" stroke-linecap="round" style="animation-delay:1.47s"/><path d="M165,695 L822,695" stroke="#f4f5f5" stroke-width="14.3" opacity=".32" fill="none" stroke-linecap="round"/><path class="fl" d="M165,695 L822,695" stroke="#a2a6a4" stroke-width="6.4" fill="none" stroke-dasharray="17 75" stroke-linecap="round" style="animation-delay:1.76s"/></g><g opacity="0.30" transform="translate(200,150) scale(.5) rotate(3.15 600 460)"><path d="M261,184 L855,184" stroke="#f4f5f5" stroke-width="16.6" opacity=".32" fill="none" stroke-linecap="round"/><path class="fl" d="M261,184 L855,184" stroke="#a2a6a4" stroke-width="5.8" fill="none" stroke-dasharray="21 61" stroke-linecap="round" style="animation-delay:0.00s"/><path d="M279,269 L816,269" stroke="#f4f5f5" stroke-width="14.9" opacity=".32" fill="none" stroke-linecap="round"/><path class="fl" d="M279,269 L816,269" stroke="#a2a6a4" stroke-width="5.5" fill="none" stroke-dasharray="22 66" stroke-linecap="round" style="animation-delay:0.29s"/><path d="M235,354 L933,354" stroke="#f4f5f5" stroke-width="12.8" opacity=".32" fill="none" stroke-linecap="round"/><path class="fl" d="M235,354 L933,354" stroke="#a2a6a4" stroke-width="7.2" fill="none" stroke-dasharray="29 68" stroke-linecap="round" style="animation-delay:0.59s"/><path d="M299,439 L1023,439" stroke="#f4f5f5" stroke-width="11.6" opacity=".32" fill="none" stroke-linecap="round"/><path class="fl" d="M299,439 L1023,439" stroke="#a2a6a4" stroke-width="6.1" fill="none" stroke-dasharray="18 98" stroke-linecap="round" style="animation-delay:0.88s"/><path d="M218,524 L925,524" stroke="#f4f5f5" stroke-width="14.7" opacity=".32" fill="none" stroke-linecap="round"/><path class="fl" d="M218,524 L925,524" stroke="#a2a6a4" stroke-width="5.0" fill="none" stroke-dasharray="20 94" stroke-linecap="round" style="animation-delay:1.18s"/><path d="M296,610 L728,610" stroke="#f4f5f5" stroke-width="16.0" opacity=".32" fill="none" stroke-linecap="round"/><path class="fl" d="M296,610 L728,610" stroke="#a2a6a4" stroke-width="5.6" fill="none" stroke-dasharray="17 76" stroke-linecap="round" style="animation-delay:1.47s"/><path d="M165,695 L822,695" stroke="#f4f5f5" stroke-width="14.3" opacity=".32" fill="none" stroke-linecap="round"/><path class="fl" d="M165,695 L822,695" stroke="#a2a6a4" stroke-width="6.4" fill="none" stroke-dasharray="17 75" stroke-linecap="round" style="animation-delay:1.76s"/></g></svg>