<svg xmlns="http://www.w3.org/2000/svg" viewBox="0 0 1200 900" width="1200" height="900" role="img" aria-label="Floor planks laid in staggered rows"><defs><radialGradient id="glow"><stop offset="0%" stop-color="#be7148" stop-opacity=".20"/><stop offset="100%" stop-color="#be7148" stop-opacity="0"/></radialGradient></defs><style>.plank{opacity:0;animation:pk 9.88s ease-in-out infinite}@keyframes pk{0%,4%{opacity:0;transform:translateY(-10px)}20%{opacity:1;transform:translateY(0)}84%{opacity:1}95%,100%{opacity:0}}@media (prefers-reduced-motion: reduce){*{animation:none!important}.dw{stroke-dashoffset:0!important}[class]{opacity:1!important}}</style><rect width="1200" height="900" fill="#241d17"/><line x1="0" y1="0" x2="0" y2="900" stroke="#f4f3f0" stroke-width="1" opacity=".028"/><line x1="60" y1="0" x2="60" y2="900" stroke="#f4f3f0" stroke-width="1" opacity=".028"/><line x1="120" y1="0" x2="120" y2="900" stroke="#f4f3f0" stroke-width="1" opacity=".028"/><line x1="180" y1="0" x2="180" y2="900" stroke="#f4f3f0" stroke-width="1" opacity=".028"/><line x1="240" y1="0" x2="240" y2="900" stroke="#f4f3f0" stroke-width="1" opacity=".028"/><line x1="300" y1="0" x2="300" y2="900" stroke="#f4f3f0" stroke-width="1" opacity=".028"/><line x1="360" y1="0" x2="360" y2="900" stroke="#f4f3f0" stroke-width="1" opacity=".028"/><line x1="420" y1="0" x2="420" y2="900" stroke="#f4f3f0" stroke-width="1" opacity=".028"/><line x1="480" y1="0" x2="480" y2="900" stroke="#f4f3f0" stroke-width="1" opacity=".028"/><line x1="540" y1="0" x2="540" y2="900" stroke="#f4f3f0" stroke-width="1" opacity=".028"/><line x1="600" y1="0" x2="600" y2="900" stroke="#f4f3f0" stroke-width="1" opacity=".028"/><line x1="660" y1="0" x2="660" y2="900" stroke="#f4f3f0" stroke-width="1" opacity=".028"/><line x1="720" y1="0" x2="720" y2="900" stroke="#f4f3f0" stroke-width="1" opacity=".028"/><line x1="780" y1="0" x2="780" y2="900" stroke="#f4f3f0" stroke-width="1" opacity=".028"/><line x1="840" y1="0" x2="840" y2="900" stroke="#f4f3f0" stroke-width="1" opacity=".028"/><line x1="900" y1="0" x2="900" y2="900" stroke="#f4f3f0" stroke-width="1" opacity=".028"/><line x1="960" y1="0" x2="960" y2="900" stroke="#f4f3f0" stroke-width="1" opacity=".028"/><line x1="1020" y1="0" x2="1020" y2="900" stroke="#f4f3f0" stroke-width="1" opacity=".028"/><line x1="1080" y1="0" x2="1080" y2="900" stroke="#f4f3f0" stroke-width="1" opacity=".028"/><line x1="1140" y1="0" x2="1140" y2="900" stroke="#f4f3f0" stroke-width="1" opacity=".028"/><line x1="1200" y1="0" x2="1200" y2="900" stroke="#f4f3f0" stroke-width="1" opacity=".028"/><line x1="0" y1="0" x2="1200" y2="0" stroke="#f4f3f0" stroke-width="1" opacity=".028"/><line x1="0" y1="60" x2="1200" y2="60" stroke="#f4f3f0" stroke-width="1" opacity=".028"/><line x1="0" y1="120" x2="1200" y2="120" stroke="#f4f3f0" stroke-width="1" opacity=".028"/><line x1="0" y1="180" x2="1200" y2="180" stroke="#f4f3f0" stroke-width="1" opacity=".028"/><line x1="0" y1="240" x2="1200" y2="240" stroke="#f4f3f0" stroke-width="1" opacity=".028"/><line x1="0" y1="300" x2="1200" y2="300" stroke="#f4f3f0" stroke-width="1" opacity=".028"/><line x1="0" y1="360" x2="1200" y2="360" stroke="#f4f3f0" stroke-width="1" opacity=".028"/><line x1="0" y1="420" x2="1200" y2="420" stroke="#f4f3f0" stroke-width="1" opacity=".028"/><line x1="0" y1="480" x2="1200" y2="480" stroke="#f4f3f0" stroke-width="1" opacity=".028"/><line x1="0" y1="540" x2="1200" y2="540" stroke="#f4f3f0" stroke-width="1" opacity=".028"/><line x1="0" y1="600" x2="1200" y2="600" stroke="#f4f3f0" stroke-width="1" opacity=".028"/><line x1="0" y1="660" x2="1200" y2="660" stroke="#f4f3f0" stroke-width="1" opacity=".028"/><line x1="0" y1="720" x2="1200" y2="720" stroke="#f4f3f0" stroke-width="1" opacity=".028"/><line x1="0" y1="780" x2="1200" y2="780" stroke="#f4f3f0" stroke-width="1" opacity=".028"/><line x1="0" y1="840" x2="1200" y2="840" stroke="#f4f3f0" stroke-width="1" opacity=".028"/><line x1="0" y1="900" x2="1200" y2="900" stroke="#f4f3f0" stroke-width="1" opacity=".028"/><ellipse cx="600" cy="455" rx="430" ry="330" fill="url(#glow)"/><rect class="plank" x="180" y="265" width="274" height="32" rx="2" fill="#be7148" opacity="0.16" style="animation-delay:0.00s"/><rect class="plank" x="180" y="265" width="274" height="32" rx="2" fill="none" stroke="#be7148" stroke-width="1.5" opacity=".45" style="animation-delay:0.00s"/><line class="plank" x1="186" y1="276" x2="448" y2="276" stroke="#f4f3f0" stroke-width="1" opacity=".13" style="animation-delay:0.00s"/><line class="plank" x1="186" y1="286" x2="448" y2="286" stroke="#f4f3f0" stroke-width="1" opacity=".13" style="animation-delay:0.00s"/><rect class="plank" x="460" y="265" width="274" height="32" rx="2" fill="#be7148" opacity="0.23" style="animation-delay:0.16s"/><rect class="plank" x="460" y="265" width="274" height="32" rx="2" fill="none" stroke="#be7148" stroke-width="1.5" opacity=".45" style="animation-delay:0.16s"/><line class="plank" x1="466" y1="276" x2="728" y2="276" stroke="#f4f3f0" stroke-width="1" opacity=".13" style="animation-delay:0.16s"/><line class="plank" x1="466" y1="286" x2="728" y2="286" stroke="#f4f3f0" stroke-width="1" opacity=".13" style="animation-delay:0.16s"/><rect class="plank" x="740" y="265" width="274" height="32" rx="2" fill="#be7148" opacity="0.30" style="animation-delay:0.31s"/><rect class="plank" x="740" y="265" width="274" height="32" rx="2" fill="none" stroke="#be7148" stroke-width="1.5" opacity=".45" style="animation-delay:0.31s"/><line class="plank" x1="746" y1="276" x2="1008" y2="276" stroke="#f4f3f0" stroke-width="1" opacity=".13" style="animation-delay:0.31s"/><line class="plank" x1="746" y1="286" x2="1008" y2="286" stroke="#f4f3f0" stroke-width="1" opacity=".13" style="animation-delay:0.31s"/><rect class="plank" x="180" y="303" width="134" height="32" rx="2" fill="#be7148" opacity="0.23" style="animation-delay:0.47s"/><rect class="plank" x="180" y="303" width="134" height="32" rx="2" fill="none" stroke="#be7148" stroke-width="1.5" opacity=".45" style="animation-delay:0.47s"/><line class="plank" x1="186" y1="314" x2="308" y2="314" stroke="#f4f3f0" stroke-width="1" opacity=".13" style="animation-delay:0.47s"/><line class="plank" x1="186" y1="324" x2="308" y2="324" stroke="#f4f3f0" stroke-width="1" opacity=".13" style="animation-delay:0.47s"/><rect class="plank" x="320" y="303" width="274" height="32" rx="2" fill="#be7148" opacity="0.30" style="animation-delay:0.63s"/><rect class="plank" x="320" y="303" width="274" height="32" rx="2" fill="none" stroke="#be7148" stroke-width="1.5" opacity=".45" style="animation-delay:0.63s"/><line class="plank" x1="326" y1="314" x2="588" y2="314" stroke="#f4f3f0" stroke-width="1" opacity=".13" style="animation-delay:0.63s"/><line class="plank" x1="326" y1="324" x2="588" y2="324" stroke="#f4f3f0" stroke-width="1" opacity=".13" style="animation-delay:0.63s"/><rect class="plank" x="600" y="303" width="274" height="32" rx="2" fill="#be7148" opacity="0.16" style="animation-delay:0.79s"/><rect class="plank" x="600" y="303" width="274" height="32" rx="2" fill="none" stroke="#be7148" stroke-width="1.5" opacity=".45" style="animation-delay:0.79s"/><line class="plank" x1="606" y1="314" x2="868" y2="314" stroke="#f4f3f0" stroke-width="1" opacity=".13" style="animation-delay:0.79s"/><line class="plank" x1="606" y1="324" x2="868" y2="324" stroke="#f4f3f0" stroke-width="1" opacity=".13" style="animation-delay:0.79s"/><rect class="plank" x="880" y="303" width="134" height="32" rx="2" fill="#be7148" opacity="0.23" style="animation-delay:0.94s"/><rect class="plank" x="880" y="303" width="134" height="32" rx="2" fill="none" stroke="#be7148" stroke-width="1.5" opacity=".45" style="animation-delay:0.94s"/><line class="plank" x1="886" y1="314" x2="1008" y2="314" stroke="#f4f3f0" stroke-width="1" opacity=".13" style="animation-delay:0.94s"/><line class="plank" x1="886" y1="324" x2="1008" y2="324" stroke="#f4f3f0" stroke-width="1" opacity=".13" style="animation-delay:0.94s"/><rect class="plank" x="180" y="341" width="204" height="32" rx="2" fill="#be7148" opacity="0.30" style="animation-delay:0.94s"/><rect class="plank" x="180" y="341" width="204" height="32" rx="2" fill="none" stroke="#be7148" stroke-width="1.5" opacity=".45" style="animation-delay:0.94s"/><line class="plank" x1="186" y1="352" x2="378" y2="352" stroke="#f4f3f0" stroke-width="1" opacity=".13" style="animation-delay:0.94s"/><line class="plank" x1="186" y1="362" x2="378" y2="362" stroke="#f4f3f0" stroke-width="1" opacity=".13" style="animation-delay:0.94s"/><rect class="plank" x="390" y="341" width="204" height="32" rx="2" fill="#be7148" opacity="0.16" style="animation-delay:1.10s"/><rect class="plank" x="390" y="341" width="204" height="32" rx="2" fill="none" stroke="#be7148" stroke-width="1.5" opacity=".45" style="animation-delay:1.10s"/><line class="plank" x1="396" y1="352" x2="588" y2="352" stroke="#f4f3f0" stroke-width="1" opacity=".13" style="animation-delay:1.10s"/><line class="plank" x1="396" y1="362" x2="588" y2="362" stroke="#f4f3f0" stroke-width="1" opacity=".13" style="animation-delay:1.10s"/><rect class="plank" x="600" y="341" width="204" height="32" rx="2" fill="#be7148" opacity="0.23" style="animation-delay:1.26s"/><rect class="plank" x="600" y="341" width="204" height="32" rx="2" fill="none" stroke="#be7148" stroke-width="1.5" opacity=".45" style="animation-delay:1.26s"/><line class="plank" x1="606" y1="352" x2="798" y2="352" stroke="#f4f3f0" stroke-width="1" opacity=".13" style="animation-delay:1.26s"/><line class="plank" x1="606" y1="362" x2="798" y2="362" stroke="#f4f3f0" stroke-width="1" opacity=".13" style="animation-delay:1.26s"/><rect class="plank" x="810" y="341" width="204" height="32" rx="2" fill="#be7148" opacity="0.30" style="animation-delay:1.41s"/><rect class="plank" x="810" y="341" width="204" height="32" rx="2" fill="none" stroke="#be7148" stroke-width="1.5" opacity=".45" style="animation-delay:1.41s"/><line class="plank" x1="816" y1="352" x2="1008" y2="352" stroke="#f4f3f0" stroke-width="1" opacity=".13" style="animation-delay:1.41s"/><line class="plank" x1="816" y1="362" x2="1008" y2="362" stroke="#f4f3f0" stroke-width="1" opacity=".13" style="animation-delay:1.41s"/><rect class="plank" x="180" y="379" width="78" height="32" rx="2" fill="#be7148" opacity="0.16" style="animation-delay:1.41s"/><rect class="plank" x="180" y="379" width="78" height="32" rx="2" fill="none" stroke="#be7148" stroke-width="1.5" opacity=".45" style="animation-delay:1.41s"/><line class="plank" x1="186" y1="390" x2="252" y2="390" stroke="#f4f3f0" stroke-width="1" opacity=".13" style="animation-delay:1.41s"/><line class="plank" x1="186" y1="400" x2="252" y2="400" stroke="#f4f3f0" stroke-width="1" opacity=".13" style="animation-delay:1.41s"/><rect class="plank" x="264" y="379" width="162" height="32" rx="2" fill="#be7148" opacity="0.23" style="animation-delay:1.57s"/><rect class="plank" x="264" y="379" width="162" height="32" rx="2" fill="none" stroke="#be7148" stroke-width="1.5" opacity=".45" style="animation-delay:1.57s"/><line class="plank" x1="270" y1="390" x2="420" y2="390" stroke="#f4f3f0" stroke-width="1" opacity=".13" style="animation-delay:1.57s"/><line class="plank" x1="270" y1="400" x2="420" y2="400" stroke="#f4f3f0" stroke-width="1" opacity=".13" style="animation-delay:1.57s"/><rect class="plank" x="432" y="379" width="162" height="32" rx="2" fill="#be7148" opacity="0.30" style="animation-delay:1.73s"/><rect class="plank" x="432" y="379" width="162" height="32" rx="2" fill="none" stroke="#be7148" stroke-width="1.5" opacity=".45" style="animation-delay:1.73s"/><line class="plank" x1="438" y1="390" x2="588" y2="390" stroke="#f4f3f0" stroke-width="1" opacity=".13" style="animation-delay:1.73s"/><line class="plank" x1="438" y1="400" x2="588" y2="400" stroke="#f4f3f0" stroke-width="1" opacity=".13" style="animation-delay:1.73s"/><rect class="plank" x="600" y="379" width="162" height="32" rx="2" fill="#be7148" opacity="0.16" style="animation-delay:1.88s"/><rect class="plank" x="600" y="379" width="162" height="32" rx="2" fill="none" stroke="#be7148" stroke-width="1.5" opacity=".45" style="animation-delay:1.88s"/><line class="plank" x1="606" y1="390" x2="756" y2="390" stroke="#f4f3f0" stroke-width="1" opacity=".13" style="animation-delay:1.88s"/><line class="plank" x1="606" y1="400" x2="756" y2="400" stroke="#f4f3f0" stroke-width="1" opacity=".13" style="animation-delay:1.88s"/><rect class="plank" x="768" y="379" width="162" height="32" rx="2" fill="#be7148" opacity="0.23" style="animation-delay:2.04s"/><rect class="plank" x="768" y="379" width="162" height="32" rx="2" fill="none" stroke="#be7148" stroke-width="1.5" opacity=".45" style="animation-delay:2.04s"/><line class="plank" x1="774" y1="390" x2="924" y2="390" stroke="#f4f3f0" stroke-width="1" opacity=".13" style="animation-delay:2.04s"/><line class="plank" x1="774" y1="400" x2="924" y2="400" stroke="#f4f3f0" stroke-width="1" opacity=".13" style="animation-delay:2.04s"/><rect class="plank" x="936" y="379" width="78" height="32" rx="2" fill="#be7148" opacity="0.30" style="animation-delay:2.20s"/><rect class="plank" x="936" y="379" width="78" height="32" rx="2" fill="none" stroke="#be7148" stroke-width="1.5" opacity=".45" style="animation-delay:2.20s"/><line class="plank" x1="942" y1="390" x2="1008" y2="390" stroke="#f4f3f0" stroke-width="1" opacity=".13" style="animation-delay:2.20s"/><line class="plank" x1="942" y1="400" x2="1008" y2="400" stroke="#f4f3f0" stroke-width="1" opacity=".13" style="animation-delay:2.20s"/><rect class="plank" x="180" y="417" width="162" height="32" rx="2" fill="#be7148" opacity="0.23" style="animation-delay:1.88s"/><rect class="plank" x="180" y="417" width="162" height="32" rx="2" fill="none" stroke="#be7148" stroke-width="1.5" opacity=".45" style="animation-delay:1.88s"/><line class="plank" x1="186" y1="428" x2="336" y2="428" stroke="#f4f3f0" stroke-width="1" opacity=".13" style="animation-delay:1.88s"/><line class="plank" x1="186" y1="438" x2="336" y2="438" stroke="#f4f3f0" stroke-width="1" opacity=".13" style="animation-delay:1.88s"/><rect class="plank" x="348" y="417" width="162" height="32" rx="2" fill="#be7148" opacity="0.30" style="animation-delay:2.04s"/><rect class="plank" x="348" y="417" width="162" height="32" rx="2" fill="none" stroke="#be7148" stroke-width="1.5" opacity=".45" style="animation-delay:2.04s"/><line class="plank" x1="354" y1="428" x2="504" y2="428" stroke="#f4f3f0" stroke-width="1" opacity=".13" style="animation-delay:2.04s"/><line class="plank" x1="354" y1="438" x2="504" y2="438" stroke="#f4f3f0" stroke-width="1" opacity=".13" style="animation-delay:2.04s"/><rect class="plank" x="516" y="417" width="162" height="32" rx="2" fill="#be7148" opacity="0.16" style="animation-delay:2.20s"/><rect class="plank" x="516" y="417" width="162" height="32" rx="2" fill="none" stroke="#be7148" stroke-width="1.5" opacity=".45" style="animation-delay:2.20s"/><line class="plank" x1="522" y1="428" x2="672" y2="428" stroke="#f4f3f0" stroke-width="1" opacity=".13" style="animation-delay:2.20s"/><line class="plank" x1="522" y1="438" x2="672" y2="438" stroke="#f4f3f0" stroke-width="1" opacity=".13" style="animation-delay:2.20s"/><rect class="plank" x="684" y="417" width="162" height="32" rx="2" fill="#be7148" opacity="0.23" style="animation-delay:2.35s"/><rect class="plank" x="684" y="417" width="162" height="32" rx="2" fill="none" stroke="#be7148" stroke-width="1.5" opacity=".45" style="animation-delay:2.35s"/><line class="plank" x1="690" y1="428" x2="840" y2="428" stroke="#f4f3f0" stroke-width="1" opacity=".13" style="animation-delay:2.35s"/><line class="plank" x1="690" y1="438" x2="840" y2="438" stroke="#f4f3f0" stroke-width="1" opacity=".13" style="animation-delay:2.35s"/><rect class="plank" x="852" y="417" width="162" height="32" rx="2" fill="#be7148" opacity="0.30" style="animation-delay:2.51s"/><rect class="plank" x="852" y="417" width="162" height="32" rx="2" fill="none" stroke="#be7148" stroke-width="1.5" opacity=".45" style="animation-delay:2.51s"/><line class="plank" x1="858" y1="428" x2="1008" y2="428" stroke="#f4f3f0" stroke-width="1" opacity=".13" style="animation-delay:2.51s"/><line class="plank" x1="858" y1="438" x2="1008" y2="438" stroke="#f4f3f0" stroke-width="1" opacity=".13" style="animation-delay:2.51s"/><rect class="plank" x="180" y="455" width="99" height="32" rx="2" fill="#be7148" opacity="0.30" style="animation-delay:2.35s"/><rect class="plank" x="180" y="455" width="99" height="32" rx="2" fill="none" stroke="#be7148" stroke-width="1.5" opacity=".45" style="animation-delay:2.35s"/><line class="plank" x1="186" y1="466" x2="273" y2="466" stroke="#f4f3f0" stroke-width="1" opacity=".13" style="animation-delay:2.35s"/><line class="plank" x1="186" y1="476" x2="273" y2="476" stroke="#f4f3f0" stroke-width="1" opacity=".13" style="animation-delay:2.35s"/><rect class="plank" x="285" y="455" width="204" height="32" rx="2" fill="#be7148" opacity="0.16" style="animation-delay:2.51s"/><rect class="plank" x="285" y="455" width="204" height="32" rx="2" fill="none" stroke="#be7148" stroke-width="1.5" opacity=".45" style="animation-delay:2.51s"/><line class="plank" x1="291" y1="466" x2="483" y2="466" stroke="#f4f3f0" stroke-width="1" opacity=".13" style="animation-delay:2.51s"/><line class="plank" x1="291" y1="476" x2="483" y2="476" stroke="#f4f3f0" stroke-width="1" opacity=".13" style="animation-delay:2.51s"/><rect class="plank" x="495" y="455" width="204" height="32" rx="2" fill="#be7148" opacity="0.23" style="animation-delay:2.67s"/><rect class="plank" x="495" y="455" width="204" height="32" rx="2" fill="none" stroke="#be7148" stroke-width="1.5" opacity=".45" style="animation-delay:2.67s"/><line class="plank" x1="501" y1="466" x2="693" y2="466" stroke="#f4f3f0" stroke-width="1" opacity=".13" style="animation-delay:2.67s"/><line class="plank" x1="501" y1="476" x2="693" y2="476" stroke="#f4f3f0" stroke-width="1" opacity=".13" style="animation-delay:2.67s"/><rect class="plank" x="705" y="455" width="204" height="32" rx="2" fill="#be7148" opacity="0.30" style="animation-delay:2.83s"/><rect class="plank" x="705" y="455" width="204" height="32" rx="2" fill="none" stroke="#be7148" stroke-width="1.5" opacity=".45" style="animation-delay:2.83s"/><line class="plank" x1="711" y1="466" x2="903" y2="466" stroke="#f4f3f0" stroke-width="1" opacity=".13" style="animation-delay:2.83s"/><line class="plank" x1="711" y1="476" x2="903" y2="476" stroke="#f4f3f0" stroke-width="1" opacity=".13" style="animation-delay:2.83s"/><rect class="plank" x="915" y="455" width="99" height="32" rx="2" fill="#be7148" opacity="0.16" style="animation-delay:2.98s"/><rect class="plank" x="915" y="455" width="99" height="32" rx="2" fill="none" stroke="#be7148" stroke-width="1.5" opacity=".45" style="animation-delay:2.98s"/><line class="plank" x1="921" y1="466" x2="1008" y2="466" stroke="#f4f3f0" stroke-width="1" opacity=".13" style="animation-delay:2.98s"/><line class="plank" x1="921" y1="476" x2="1008" y2="476" stroke="#f4f3f0" stroke-width="1" opacity=".13" style="animation-delay:2.98s"/><rect class="plank" x="180" y="493" width="204" height="32" rx="2" fill="#be7148" opacity="0.16" style="animation-delay:2.83s"/><rect class="plank" x="180" y="493" width="204" height="32" rx="2" fill="none" stroke="#be7148" stroke-width="1.5" opacity=".45" style="animation-delay:2.83s"/><line class="plank" x1="186" y1="504" x2="378" y2="504" stroke="#f4f3f0" stroke-width="1" opacity=".13" style="animation-delay:2.83s"/><line class="plank" x1="186" y1="514" x2="378" y2="514" stroke="#f4f3f0" stroke-width="1" opacity=".13" style="animation-delay:2.83s"/><rect class="plank" x="390" y="493" width="204" height="32" rx="2" fill="#be7148" opacity="0.23" style="animation-delay:2.98s"/><rect class="plank" x="390" y="493" width="204" height="32" rx="2" fill="none" stroke="#be7148" stroke-width="1.5" opacity=".45" style="animation-delay:2.98s"/><line class="plank" x1="396" y1="504" x2="588" y2="504" stroke="#f4f3f0" stroke-width="1" opacity=".13" style="animation-delay:2.98s"/><line class="plank" x1="396" y1="514" x2="588" y2="514" stroke="#f4f3f0" stroke-width="1" opacity=".13" style="animation-delay:2.98s"/><rect class="plank" x="600" y="493" width="204" height="32" rx="2" fill="#be7148" opacity="0.30" style="animation-delay:3.14s"/><rect class="plank" x="600" y="493" width="204" height="32" rx="2" fill="none" stroke="#be7148" stroke-width="1.5" opacity=".45" style="animation-delay:3.14s"/><line class="plank" x1="606" y1="504" x2="798" y2="504" stroke="#f4f3f0" stroke-width="1" opacity=".13" style="animation-delay:3.14s"/><line class="plank" x1="606" y1="514" x2="798" y2="514" stroke="#f4f3f0" stroke-width="1" opacity=".13" style="animation-delay:3.14s"/><rect class="plank" x="810" y="493" width="204" height="32" rx="2" fill="#be7148" opacity="0.16" style="animation-delay:3.30s"/><rect class="plank" x="810" y="493" width="204" height="32" rx="2" fill="none" stroke="#be7148" stroke-width="1.5" opacity=".45" style="animation-delay:3.30s"/><line class="plank" x1="816" y1="504" x2="1008" y2="504" stroke="#f4f3f0" stroke-width="1" opacity=".13" style="animation-delay:3.30s"/><line class="plank" x1="816" y1="514" x2="1008" y2="514" stroke="#f4f3f0" stroke-width="1" opacity=".13" style="animation-delay:3.30s"/><rect class="plank" x="180" y="531" width="99" height="32" rx="2" fill="#be7148" opacity="0.23" style="animation-delay:3.30s"/><rect class="plank" x="180" y="531" width="99" height="32" rx="2" fill="none" stroke="#be7148" stroke-width="1.5" opacity=".45" style="animation-delay:3.30s"/><line class="plank" x1="186" y1="542" x2="273" y2="542" stroke="#f4f3f0" stroke-width="1" opacity=".13" style="animation-delay:3.30s"/><line class="plank" x1="186" y1="552" x2="273" y2="552" stroke="#f4f3f0" stroke-width="1" opacity=".13" style="animation-delay:3.30s"/><rect class="plank" x="285" y="531" width="204" height="32" rx="2" fill="#be7148" opacity="0.30" style="animation-delay:3.45s"/><rect class="plank" x="285" y="531" width="204" height="32" rx="2" fill="none" stroke="#be7148" stroke-width="1.5" opacity=".45" style="animation-delay:3.45s"/><line class="plank" x1="291" y1="542" x2="483" y2="542" stroke="#f4f3f0" stroke-width="1" opacity=".13" style="animation-delay:3.45s"/><line class="plank" x1="291" y1="552" x2="483" y2="552" stroke="#f4f3f0" stroke-width="1" opacity=".13" style="animation-delay:3.45s"/><rect class="plank" x="495" y="531" width="204" height="32" rx="2" fill="#be7148" opacity="0.16" style="animation-delay:3.61s"/><rect class="plank" x="495" y="531" width="204" height="32" rx="2" fill="none" stroke="#be7148" stroke-width="1.5" opacity=".45" style="animation-delay:3.61s"/><line class="plank" x1="501" y1="542" x2="693" y2="542" stroke="#f4f3f0" stroke-width="1" opacity=".13" style="animation-delay:3.61s"/><line class="plank" x1="501" y1="552" x2="693" y2="552" stroke="#f4f3f0" stroke-width="1" opacity=".13" style="animation-delay:3.61s"/><rect class="plank" x="705" y="531" width="204" height="32" rx="2" fill="#be7148" opacity="0.23" style="animation-delay:3.77s"/><rect class="plank" x="705" y="531" width="204" height="32" rx="2" fill="none" stroke="#be7148" stroke-width="1.5" opacity=".45" style="animation-delay:3.77s"/><line class="plank" x1="711" y1="542" x2="903" y2="542" stroke="#f4f3f0" stroke-width="1" opacity=".13" style="animation-delay:3.77s"/><line class="plank" x1="711" y1="552" x2="903" y2="552" stroke="#f4f3f0" stroke-width="1" opacity=".13" style="animation-delay:3.77s"/><rect class="plank" x="915" y="531" width="99" height="32" rx="2" fill="#be7148" opacity="0.30" style="animation-delay:3.92s"/><rect class="plank" x="915" y="531" width="99" height="32" rx="2" fill="none" stroke="#be7148" stroke-width="1.5" opacity=".45" style="animation-delay:3.92s"/><line class="plank" x1="921" y1="542" x2="1008" y2="542" stroke="#f4f3f0" stroke-width="1" opacity=".13" style="animation-delay:3.92s"/><line class="plank" x1="921" y1="552" x2="1008" y2="552" stroke="#f4f3f0" stroke-width="1" opacity=".13" style="animation-delay:3.92s"/><rect class="plank" x="180" y="569" width="162" height="32" rx="2" fill="#be7148" opacity="0.30" style="animation-delay:3.77s"/><rect class="plank" x="180" y="569" width="162" height="32" rx="2" fill="none" stroke="#be7148" stroke-width="1.5" opacity=".45" style="animation-delay:3.77s"/><line class="plank" x1="186" y1="580" x2="336" y2="580" stroke="#f4f3f0" stroke-width="1" opacity=".13" style="animation-delay:3.77s"/><line class="plank" x1="186" y1="590" x2="336" y2="590" stroke="#f4f3f0" stroke-width="1" opacity=".13" style="animation-delay:3.77s"/><rect class="plank" x="348" y="569" width="162" height="32" rx="2" fill="#be7148" opacity="0.16" style="animation-delay:3.92s"/><rect class="plank" x="348" y="569" width="162" height="32" rx="2" fill="none" stroke="#be7148" stroke-width="1.5" opacity=".45" style="animation-delay:3.92s"/><line class="plank" x1="354" y1="580" x2="504" y2="580" stroke="#f4f3f0" stroke-width="1" opacity=".13" style="animation-delay:3.92s"/><line class="plank" x1="354" y1="590" x2="504" y2="590" stroke="#f4f3f0" stroke-width="1" opacity=".13" style="animation-delay:3.92s"/><rect class="plank" x="516" y="569" width="162" height="32" rx="2" fill="#be7148" opacity="0.23" style="animation-delay:4.08s"/><rect class="plank" x="516" y="569" width="162" height="32" rx="2" fill="none" stroke="#be7148" stroke-width="1.5" opacity=".45" style="animation-delay:4.08s"/><line class="plank" x1="522" y1="580" x2="672" y2="580" stroke="#f4f3f0" stroke-width="1" opacity=".13" style="animation-delay:4.08s"/><line class="plank" x1="522" y1="590" x2="672" y2="590" stroke="#f4f3f0" stroke-width="1" opacity=".13" style="animation-delay:4.08s"/><rect class="plank" x="684" y="569" width="162" height="32" rx="2" fill="#be7148" opacity="0.30" style="animation-delay:4.24s"/><rect class="plank" x="684" y="569" width="162" height="32" rx="2" fill="none" stroke="#be7148" stroke-width="1.5" opacity=".45" style="animation-delay:4.24s"/><line class="plank" x1="690" y1="580" x2="840" y2="580" stroke="#f4f3f0" stroke-width="1" opacity=".13" style="animation-delay:4.24s"/><line class="plank" x1="690" y1="590" x2="840" y2="590" stroke="#f4f3f0" stroke-width="1" opacity=".13" style="animation-delay:4.24s"/><rect class="plank" x="852" y="569" width="162" height="32" rx="2" fill="#be7148" opacity="0.16" style="animation-delay:4.40s"/><rect class="plank" x="852" y="569" width="162" height="32" rx="2" fill="none" stroke="#be7148" stroke-width="1.5" opacity=".45" style="animation-delay:4.40s"/><line class="plank" x1="858" y1="580" x2="1008" y2="580" stroke="#f4f3f0" stroke-width="1" opacity=".13" style="animation-delay:4.40s"/><line class="plank" x1="858" y1="590" x2="1008" y2="590" stroke="#f4f3f0" stroke-width="1" opacity=".13" style="animation-delay:4.40s"/><rect class="plank" x="180" y="607" width="134" height="32" rx="2" fill="#be7148" opacity="0.16" style="animation-delay:4.24s"/><rect class="plank" x="180" y="607" width="134" height="32" rx="2" fill="none" stroke="#be7148" stroke-width="1.5" opacity=".45" style="animation-delay:4.24s"/><line class="plank" x1="186" y1="618" x2="308" y2="618" stroke="#f4f3f0" stroke-width="1" opacity=".13" style="animation-delay:4.24s"/><line class="plank" x1="186" y1="628" x2="308" y2="628" stroke="#f4f3f0" stroke-width="1" opacity=".13" style="animation-delay:4.24s"/><rect class="plank" x="320" y="607" width="274" height="32" rx="2" fill="#be7148" opacity="0.23" style="animation-delay:4.40s"/><rect class="plank" x="320" y="607" width="274" height="32" rx="2" fill="none" stroke="#be7148" stroke-width="1.5" opacity=".45" style="animation-delay:4.40s"/><line class="plank" x1="326" y1="618" x2="588" y2="618" stroke="#f4f3f0" stroke-width="1" opacity=".13" style="animation-delay:4.40s"/><line class="plank" x1="326" y1="628" x2="588" y2="628" stroke="#f4f3f0" stroke-width="1" opacity=".13" style="animation-delay:4.40s"/><rect class="plank" x="600" y="607" width="274" height="32" rx="2" fill="#be7148" opacity="0.30" style="animation-delay:4.55s"/><rect class="plank" x="600" y="607" width="274" height="32" rx="2" fill="none" stroke="#be7148" stroke-width="1.5" opacity=".45" style="animation-delay:4.55s"/><line class="plank" x1="606" y1="618" x2="868" y2="618" stroke="#f4f3f0" stroke-width="1" opacity=".13" style="animation-delay:4.55s"/><line class="plank" x1="606" y1="628" x2="868" y2="628" stroke="#f4f3f0" stroke-width="1" opacity=".13" style="animation-delay:4.55s"/><rect class="plank" x="880" y="607" width="134" height="32" rx="2" fill="#be7148" opacity="0.16" style="animation-delay:4.71s"/><rect class="plank" x="880" y="607" width="134" height="32" rx="2" fill="none" stroke="#be7148" stroke-width="1.5" opacity=".45" style="animation-delay:4.71s"/><line class="plank" x1="886" y1="618" x2="1008" y2="618" stroke="#f4f3f0" stroke-width="1" opacity=".13" style="animation-delay:4.71s"/><line class="plank" x1="886" y1="628" x2="1008" y2="628" stroke="#f4f3f0" stroke-width="1" opacity=".13" style="animation-delay:4.71s"/></svg>