<svg xmlns="http://www.w3.org/2000/svg" viewBox="0 0 1200 900" width="1200" height="900" role="img" aria-label="Electrical panel with current flowing through circuits"><defs></defs><style>.dw{stroke-dasharray:100;stroke-dashoffset:100;animation:dw 11s ease-in-out infinite}@keyframes dw{0%{stroke-dashoffset:100}22%{stroke-dashoffset:0}84%{stroke-dashoffset:0;opacity:1}95%{stroke-dashoffset:0;opacity:0}100%{stroke-dashoffset:100;opacity:0}}.cur{stroke-dashoffset:0;animation:cur 2.6s linear infinite}@keyframes cur{0%{stroke-dashoffset:164}100%{stroke-dashoffset:0}}.fin{animation:fin 11s ease-in-out infinite}@keyframes fin{0%,40%{opacity:0}52%{opacity:1}84%{opacity:1}95%,100%{opacity:0}}@media (prefers-reduced-motion: reduce){*{animation:none!important}.dw{stroke-dashoffset:0!important}.fin{opacity:1!important}}</style><rect width="1200" height="900" fill="#121317"/><line x1="0" y1="0" x2="0" y2="900" stroke="#f4f2f7" stroke-width="1" opacity="0.035"/><line x1="50" y1="0" x2="50" y2="900" stroke="#f4f2f7" stroke-width="1" opacity="0.035"/><line x1="100" y1="0" x2="100" y2="900" stroke="#f4f2f7" stroke-width="1" opacity="0.035"/><line x1="150" y1="0" x2="150" y2="900" stroke="#f4f2f7" stroke-width="1" opacity="0.035"/><line x1="200" y1="0" x2="200" y2="900" stroke="#f4f2f7" stroke-width="1" opacity="0.035"/><line x1="250" y1="0" x2="250" y2="900" stroke="#f4f2f7" stroke-width="1" opacity="0.035"/><line x1="300" y1="0" x2="300" y2="900" stroke="#f4f2f7" stroke-width="1" opacity="0.035"/><line x1="350" y1="0" x2="350" y2="900" stroke="#f4f2f7" stroke-width="1" opacity="0.035"/><line x1="400" y1="0" x2="400" y2="900" stroke="#f4f2f7" stroke-width="1" opacity="0.035"/><line x1="450" y1="0" x2="450" y2="900" stroke="#f4f2f7" stroke-width="1" opacity="0.035"/><line x1="500" y1="0" x2="500" y2="900" stroke="#f4f2f7" stroke-width="1" opacity="0.035"/><line x1="550" y1="0" x2="550" y2="900" stroke="#f4f2f7" stroke-width="1" opacity="0.035"/><line x1="600" y1="0" x2="600" y2="900" stroke="#f4f2f7" stroke-width="1" opacity="0.035"/><line x1="650" y1="0" x2="650" y2="900" stroke="#f4f2f7" stroke-width="1" opacity="0.035"/><line x1="700" y1="0" x2="700" y2="900" stroke="#f4f2f7" stroke-width="1" opacity="0.035"/><line x1="750" y1="0" x2="750" y2="900" stroke="#f4f2f7" stroke-width="1" opacity="0.035"/><line x1="800" y1="0" x2="800" y2="900" stroke="#f4f2f7" stroke-width="1" opacity="0.035"/><line x1="850" y1="0" x2="850" y2="900" stroke="#f4f2f7" stroke-width="1" opacity="0.035"/><line x1="900" y1="0" x2="900" y2="900" stroke="#f4f2f7" stroke-width="1" opacity="0.035"/><line x1="950" y1="0" x2="950" y2="900" stroke="#f4f2f7" stroke-width="1" opacity="0.035"/><line x1="1000" y1="0" x2="1000" y2="900" stroke="#f4f2f7" stroke-width="1" opacity="0.035"/><line x1="1050" y1="0" x2="1050" y2="900" stroke="#f4f2f7" stroke-width="1" opacity="0.035"/><line x1="1100" y1="0" x2="1100" y2="900" stroke="#f4f2f7" stroke-width="1" opacity="0.035"/><line x1="1150" y1="0" x2="1150" y2="900" stroke="#f4f2f7" stroke-width="1" opacity="0.035"/><line x1="1200" y1="0" x2="1200" y2="900" stroke="#f4f2f7" stroke-width="1" opacity="0.035"/><line x1="0" y1="0" x2="1200" y2="0" stroke="#f4f2f7" stroke-width="1" opacity="0.035"/><line x1="0" y1="50" x2="1200" y2="50" stroke="#f4f2f7" stroke-width="1" opacity="0.035"/><line x1="0" y1="100" x2="1200" y2="100" stroke="#f4f2f7" stroke-width="1" opacity="0.035"/><line x1="0" y1="150" x2="1200" y2="150" stroke="#f4f2f7" stroke-width="1" opacity="0.035"/><line x1="0" y1="200" x2="1200" y2="200" stroke="#f4f2f7" stroke-width="1" opacity="0.035"/><line x1="0" y1="250" x2="1200" y2="250" stroke="#f4f2f7" stroke-width="1" opacity="0.035"/><line x1="0" y1="300" x2="1200" y2="300" stroke="#f4f2f7" stroke-width="1" opacity="0.035"/><line x1="0" y1="350" x2="1200" y2="350" stroke="#f4f2f7" stroke-width="1" opacity="0.035"/><line x1="0" y1="400" x2="1200" y2="400" stroke="#f4f2f7" stroke-width="1" opacity="0.035"/><line x1="0" y1="450" x2="1200" y2="450" stroke="#f4f2f7" stroke-width="1" opacity="0.035"/><line x1="0" y1="500" x2="1200" y2="500" stroke="#f4f2f7" stroke-width="1" opacity="0.035"/><line x1="0" y1="550" x2="1200" y2="550" stroke="#f4f2f7" stroke-width="1" opacity="0.035"/><line x1="0" y1="600" x2="1200" y2="600" stroke="#f4f2f7" stroke-width="1" opacity="0.035"/><line x1="0" y1="650" x2="1200" y2="650" stroke="#f4f2f7" stroke-width="1" opacity="0.035"/><line x1="0" y1="700" x2="1200" y2="700" stroke="#f4f2f7" stroke-width="1" opacity="0.035"/><line x1="0" y1="750" x2="1200" y2="750" stroke="#f4f2f7" stroke-width="1" opacity="0.035"/><line x1="0" y1="800" x2="1200" y2="800" stroke="#f4f2f7" stroke-width="1" opacity="0.035"/><line x1="0" y1="850" x2="1200" y2="850" stroke="#f4f2f7" stroke-width="1" opacity="0.035"/><line x1="0" y1="900" x2="1200" y2="900" stroke="#f4f2f7" stroke-width="1" opacity="0.035"/><path class="dw" d="M150,300 L350,300 L350,620 L150,620 Z" pathLength="100" stroke="#ceee44" stroke-width="5" opacity="1.0" style="animation-delay:0.00s" fill="none" stroke-linecap="round" stroke-linejoin="round"/><path class="dw" d="M172,334 l40,0" pathLength="100" stroke="#ceee44" stroke-width="7" opacity="0.9" style="animation-delay:0.80s" fill="none" stroke-linecap="round" stroke-linejoin="round"/><path class="dw" d="M350,334 L430,334 L430,140 L1055,140" pathLength="100" stroke="#f4f2f7" stroke-width="3" opacity="0.38" style="animation-delay:1.60s" fill="none" stroke-linecap="round" stroke-linejoin="round"/><path class="cur" d="M350,334 L430,334 L430,140 L1055,140" fill="none" stroke="#ceee44" stroke-width="3.4" stroke-dasharray="14 150" style="animation-delay:0.00s" stroke-linecap="round"/><circle class="fin" cx="1055" cy="140" r="9" fill="#ceee44" opacity="0"/><path class="dw" d="M172,384 l40,0" pathLength="100" stroke="#ceee44" stroke-width="7" opacity="0.9" style="animation-delay:0.90s" fill="none" stroke-linecap="round" stroke-linejoin="round"/><path class="dw" d="M350,384 L520,384 L520,266 L1055,266" pathLength="100" stroke="#f4f2f7" stroke-width="3" opacity="0.38" style="animation-delay:1.76s" fill="none" stroke-linecap="round" stroke-linejoin="round"/><path class="cur" d="M350,384 L520,384 L520,266 L1055,266" fill="none" stroke="#ceee44" stroke-width="3.4" stroke-dasharray="14 150" style="animation-delay:0.30s" stroke-linecap="round"/><circle class="fin" cx="1055" cy="266" r="9" fill="#ceee44" opacity="0"/><path class="dw" d="M172,434 l40,0" pathLength="100" stroke="#ceee44" stroke-width="7" opacity="0.9" style="animation-delay:1.00s" fill="none" stroke-linecap="round" stroke-linejoin="round"/><path class="dw" d="M350,434 L610,434 L610,392 L1055,392" pathLength="100" stroke="#f4f2f7" stroke-width="3" opacity="0.38" style="animation-delay:1.92s" fill="none" stroke-linecap="round" stroke-linejoin="round"/><path class="cur" d="M350,434 L610,434 L610,392 L1055,392" fill="none" stroke="#ceee44" stroke-width="3.4" stroke-dasharray="14 150" style="animation-delay:0.60s" stroke-linecap="round"/><circle class="fin" cx="1055" cy="392" r="9" fill="#ceee44" opacity="0"/><path class="dw" d="M172,484 l40,0" pathLength="100" stroke="#ceee44" stroke-width="7" opacity="0.9" style="animation-delay:1.10s" fill="none" stroke-linecap="round" stroke-linejoin="round"/><path class="dw" d="M350,484 L430,484 L430,518 L1055,518" pathLength="100" stroke="#f4f2f7" stroke-width="3" opacity="0.38" style="animation-delay:2.08s" fill="none" stroke-linecap="round" stroke-linejoin="round"/><path class="cur" d="M350,484 L430,484 L430,518 L1055,518" fill="none" stroke="#ceee44" stroke-width="3.4" stroke-dasharray="14 150" style="animation-delay:0.90s" stroke-linecap="round"/><circle class="fin" cx="1055" cy="518" r="9" fill="#ceee44" opacity="0"/><path class="dw" d="M172,534 l40,0" pathLength="100" stroke="#ceee44" stroke-width="7" opacity="0.9" style="animation-delay:1.20s" fill="none" stroke-linecap="round" stroke-linejoin="round"/><path class="dw" d="M350,534 L520,534 L520,644 L1055,644" pathLength="100" stroke="#f4f2f7" stroke-width="3" opacity="0.38" style="animation-delay:2.24s" fill="none" stroke-linecap="round" stroke-linejoin="round"/><path class="cur" d="M350,534 L520,534 L520,644 L1055,644" fill="none" stroke="#ceee44" stroke-width="3.4" stroke-dasharray="14 150" style="animation-delay:1.20s" stroke-linecap="round"/><circle class="fin" cx="1055" cy="644" r="9" fill="#ceee44" opacity="0"/><path class="dw" d="M172,584 l40,0" pathLength="100" stroke="#ceee44" stroke-width="7" opacity="0.9" style="animation-delay:1.30s" fill="none" stroke-linecap="round" stroke-linejoin="round"/><path class="dw" d="M350,584 L610,584 L610,770 L1055,770" pathLength="100" stroke="#f4f2f7" stroke-width="3" opacity="0.38" style="animation-delay:2.40s" fill="none" stroke-linecap="round" stroke-linejoin="round"/><path class="cur" d="M350,584 L610,584 L610,770 L1055,770" fill="none" stroke="#ceee44" stroke-width="3.4" stroke-dasharray="14 150" style="animation-delay:1.50s" stroke-linecap="round"/><circle class="fin" cx="1055" cy="770" r="9" fill="#ceee44" opacity="0"/></svg>