<svg xmlns="http://www.w3.org/2000/svg" viewBox="-120 455 1330 445" width="1330" height="445" preserveAspectRatio="xMidYMid slice" role="img" aria-label="Landscaped lawn, stripes"><defs><radialGradient id="glow"><stop offset="0%" stop-color="#4c9bcd" stop-opacity=".20"/><stop offset="100%" stop-color="#4c9bcd" stop-opacity="0"/></radialGradient></defs><style>.dw{stroke-dasharray:100;stroke-dashoffset:100;animation:dw 8.56s ease-in-out infinite}@keyframes dw{0%{stroke-dashoffset:100}24%{stroke-dashoffset:0}84%{stroke-dashoffset:0;opacity:1}95%{stroke-dashoffset:0;opacity:0}100%{stroke-dashoffset:100;opacity:0}}.bush,.paver{opacity:0;animation:bs 8.56s ease-in-out infinite}@keyframes bs{0%,26%{opacity:0;transform:scale(.45)}42%{opacity:.5;transform:scale(1)}84%{opacity:.5}95%,100%{opacity:0}}@media (prefers-reduced-motion: reduce){*{animation:none!important}.dw{stroke-dashoffset:0!important}[class]{opacity:1!important}}/*rest-state*/.dw{stroke-dashoffset:0;opacity:1}</style><rect width="1200" height="900" fill="#0e1318"/><line x1="0" y1="0" x2="0" y2="900" stroke="#f0f4f8" stroke-width="1" opacity=".028"/><line x1="60" y1="0" x2="60" y2="900" stroke="#f0f4f8" stroke-width="1" opacity=".028"/><line x1="120" y1="0" x2="120" y2="900" stroke="#f0f4f8" stroke-width="1" opacity=".028"/><line x1="180" y1="0" x2="180" y2="900" stroke="#f0f4f8" stroke-width="1" opacity=".028"/><line x1="240" y1="0" x2="240" y2="900" stroke="#f0f4f8" stroke-width="1" opacity=".028"/><line x1="300" y1="0" x2="300" y2="900" stroke="#f0f4f8" stroke-width="1" opacity=".028"/><line x1="360" y1="0" x2="360" y2="900" stroke="#f0f4f8" stroke-width="1" opacity=".028"/><line x1="420" y1="0" x2="420" y2="900" stroke="#f0f4f8" stroke-width="1" opacity=".028"/><line x1="480" y1="0" x2="480" y2="900" stroke="#f0f4f8" stroke-width="1" opacity=".028"/><line x1="540" y1="0" x2="540" y2="900" stroke="#f0f4f8" stroke-width="1" opacity=".028"/><line x1="600" y1="0" x2="600" y2="900" stroke="#f0f4f8" stroke-width="1" opacity=".028"/><line x1="660" y1="0" x2="660" y2="900" stroke="#f0f4f8" stroke-width="1" opacity=".028"/><line x1="720" y1="0" x2="720" y2="900" stroke="#f0f4f8" stroke-width="1" opacity=".028"/><line x1="780" y1="0" x2="780" y2="900" stroke="#f0f4f8" stroke-width="1" opacity=".028"/><line x1="840" y1="0" x2="840" y2="900" stroke="#f0f4f8" stroke-width="1" opacity=".028"/><line x1="900" y1="0" x2="900" y2="900" stroke="#f0f4f8" stroke-width="1" opacity=".028"/><line x1="960" y1="0" x2="960" y2="900" stroke="#f0f4f8" stroke-width="1" opacity=".028"/><line x1="1020" y1="0" x2="1020" y2="900" stroke="#f0f4f8" stroke-width="1" opacity=".028"/><line x1="1080" y1="0" x2="1080" y2="900" stroke="#f0f4f8" stroke-width="1" opacity=".028"/><line x1="1140" y1="0" x2="1140" y2="900" stroke="#f0f4f8" stroke-width="1" opacity=".028"/><line x1="1200" y1="0" x2="1200" y2="900" stroke="#f0f4f8" stroke-width="1" opacity=".028"/><line x1="0" y1="0" x2="1200" y2="0" stroke="#f0f4f8" stroke-width="1" opacity=".028"/><line x1="0" y1="60" x2="1200" y2="60" stroke="#f0f4f8" stroke-width="1" opacity=".028"/><line x1="0" y1="120" x2="1200" y2="120" stroke="#f0f4f8" stroke-width="1" opacity=".028"/><line x1="0" y1="180" x2="1200" y2="180" stroke="#f0f4f8" stroke-width="1" opacity=".028"/><line x1="0" y1="240" x2="1200" y2="240" stroke="#f0f4f8" stroke-width="1" opacity=".028"/><line x1="0" y1="300" x2="1200" y2="300" stroke="#f0f4f8" stroke-width="1" opacity=".028"/><line x1="0" y1="360" x2="1200" y2="360" stroke="#f0f4f8" stroke-width="1" opacity=".028"/><line x1="0" y1="420" x2="1200" y2="420" stroke="#f0f4f8" stroke-width="1" opacity=".028"/><line x1="0" y1="480" x2="1200" y2="480" stroke="#f0f4f8" stroke-width="1" opacity=".028"/><line x1="0" y1="540" x2="1200" y2="540" stroke="#f0f4f8" stroke-width="1" opacity=".028"/><line x1="0" y1="600" x2="1200" y2="600" stroke="#f0f4f8" stroke-width="1" opacity=".028"/><line x1="0" y1="660" x2="1200" y2="660" stroke="#f0f4f8" stroke-width="1" opacity=".028"/><line x1="0" y1="720" x2="1200" y2="720" stroke="#f0f4f8" stroke-width="1" opacity=".028"/><line x1="0" y1="780" x2="1200" y2="780" stroke="#f0f4f8" stroke-width="1" opacity=".028"/><line x1="0" y1="840" x2="1200" y2="840" stroke="#f0f4f8" stroke-width="1" opacity=".028"/><line x1="0" y1="900" x2="1200" y2="900" stroke="#f0f4f8" stroke-width="1" opacity=".028"/><ellipse cx="432" cy="455" rx="430" ry="330" fill="url(#glow)"/><path class="dw" d="M170,275 L1030,275" pathLength="100" stroke="#4c9bcd" stroke-width="10" fill="none" opacity="0.58" style="animation-delay:0.00s"/><path class="dw" d="M170,311 L1030,311" pathLength="100" stroke="#4c9bcd" stroke-width="19" fill="none" opacity="0.3" style="animation-delay:0.08s"/><path class="dw" d="M170,347 L1030,347" pathLength="100" stroke="#4c9bcd" stroke-width="10" fill="none" opacity="0.58" style="animation-delay:0.16s"/><path class="dw" d="M170,383 L1030,383" pathLength="100" stroke="#4c9bcd" stroke-width="19" fill="none" opacity="0.3" style="animation-delay:0.24s"/><path class="dw" d="M170,419 L1030,419" pathLength="100" stroke="#4c9bcd" stroke-width="10" fill="none" opacity="0.58" style="animation-delay:0.31s"/><path class="dw" d="M170,455 L1030,455" pathLength="100" stroke="#4c9bcd" stroke-width="19" fill="none" opacity="0.3" style="animation-delay:0.39s"/><path class="dw" d="M170,491 L1030,491" pathLength="100" stroke="#4c9bcd" stroke-width="10" fill="none" opacity="0.58" style="animation-delay:0.47s"/><path class="dw" d="M170,527 L1030,527" pathLength="100" stroke="#4c9bcd" stroke-width="19" fill="none" opacity="0.3" style="animation-delay:0.55s"/><path class="dw" d="M170,563 L1030,563" pathLength="100" stroke="#4c9bcd" stroke-width="10" fill="none" opacity="0.58" style="animation-delay:0.63s"/><path class="dw" d="M170,599 L1030,599" pathLength="100" stroke="#4c9bcd" stroke-width="19" fill="none" opacity="0.3" style="animation-delay:0.71s"/><path class="dw" d="M170,635 L1030,635" pathLength="100" stroke="#4c9bcd" stroke-width="10" fill="none" opacity="0.58" style="animation-delay:0.78s"/><path class="dw" d="M990,275 C690,385 880,545 610,635" pathLength="100" stroke="#f0f4f8" stroke-width="6" fill="none" opacity=".75" style="animation-delay:1.16s"/><circle class="bush" cx="961" cy="335" r="19" fill="#f0f4f8" opacity=".5" style="animation-delay:1.70s"/><circle class="bush" cx="889" cy="395" r="23" fill="#f0f4f8" opacity=".5" style="animation-delay:1.88s"/><circle class="bush" cx="845" cy="455" r="20" fill="#f0f4f8" opacity=".5" style="animation-delay:2.06s"/><circle class="bush" cx="763" cy="515" r="22" fill="#f0f4f8" opacity=".5" style="animation-delay:2.24s"/><circle class="bush" cx="755" cy="575" r="17" fill="#f0f4f8" opacity=".5" style="animation-delay:2.42s"/></svg>