<svg xmlns="http://www.w3.org/2000/svg" viewBox="60 235 1200 445" width="1200" height="445" preserveAspectRatio="xMidYMid slice" role="img" aria-label="crossgable roof with shingle courses"><defs><radialGradient id="glow"><stop offset="0%" stop-color="#d43a63" stop-opacity=".20"/><stop offset="100%" stop-color="#d43a63" stop-opacity="0"/></radialGradient></defs><style>.dw{stroke-dasharray:100;stroke-dashoffset:100;animation:dw 12.67s ease-in-out infinite}@keyframes dw{0%{stroke-dashoffset:100}24%{stroke-dashoffset:0}84%{stroke-dashoffset:0;opacity:1}95%{stroke-dashoffset:0;opacity:0}100%{stroke-dashoffset:100;opacity:0}}.tab{opacity:0;animation:tb 12.67s ease-in-out infinite}@keyframes tb{0%,18%{opacity:0}34%{opacity:.28}84%{opacity:.28}95%,100%{opacity:0}}@media (prefers-reduced-motion: reduce){*{animation:none!important}.dw{stroke-dashoffset:0!important}[class]{opacity:1!important}}</style><rect width="1200" height="900" fill="#20262e"/><line x1="0" y1="0" x2="0" y2="900" stroke="#f4f3f0" stroke-width="1" opacity=".028"/><line x1="60" y1="0" x2="60" y2="900" stroke="#f4f3f0" stroke-width="1" opacity=".028"/><line x1="120" y1="0" x2="120" y2="900" stroke="#f4f3f0" stroke-width="1" opacity=".028"/><line x1="180" y1="0" x2="180" y2="900" stroke="#f4f3f0" stroke-width="1" opacity=".028"/><line x1="240" y1="0" x2="240" y2="900" stroke="#f4f3f0" stroke-width="1" opacity=".028"/><line x1="300" y1="0" x2="300" y2="900" stroke="#f4f3f0" stroke-width="1" opacity=".028"/><line x1="360" y1="0" x2="360" y2="900" stroke="#f4f3f0" stroke-width="1" opacity=".028"/><line x1="420" y1="0" x2="420" y2="900" stroke="#f4f3f0" stroke-width="1" opacity=".028"/><line x1="480" y1="0" x2="480" y2="900" stroke="#f4f3f0" stroke-width="1" opacity=".028"/><line x1="540" y1="0" x2="540" y2="900" stroke="#f4f3f0" stroke-width="1" opacity=".028"/><line x1="600" y1="0" x2="600" y2="900" stroke="#f4f3f0" stroke-width="1" opacity=".028"/><line x1="660" y1="0" x2="660" y2="900" stroke="#f4f3f0" stroke-width="1" opacity=".028"/><line x1="720" y1="0" x2="720" y2="900" stroke="#f4f3f0" stroke-width="1" opacity=".028"/><line x1="780" y1="0" x2="780" y2="900" stroke="#f4f3f0" stroke-width="1" opacity=".028"/><line x1="840" y1="0" x2="840" y2="900" stroke="#f4f3f0" stroke-width="1" opacity=".028"/><line x1="900" y1="0" x2="900" y2="900" stroke="#f4f3f0" stroke-width="1" opacity=".028"/><line x1="960" y1="0" x2="960" y2="900" stroke="#f4f3f0" stroke-width="1" opacity=".028"/><line x1="1020" y1="0" x2="1020" y2="900" stroke="#f4f3f0" stroke-width="1" opacity=".028"/><line x1="1080" y1="0" x2="1080" y2="900" stroke="#f4f3f0" stroke-width="1" opacity=".028"/><line x1="1140" y1="0" x2="1140" y2="900" stroke="#f4f3f0" stroke-width="1" opacity=".028"/><line x1="1200" y1="0" x2="1200" y2="900" stroke="#f4f3f0" stroke-width="1" opacity=".028"/><line x1="0" y1="0" x2="1200" y2="0" stroke="#f4f3f0" stroke-width="1" opacity=".028"/><line x1="0" y1="60" x2="1200" y2="60" stroke="#f4f3f0" stroke-width="1" opacity=".028"/><line x1="0" y1="120" x2="1200" y2="120" stroke="#f4f3f0" stroke-width="1" opacity=".028"/><line x1="0" y1="180" x2="1200" y2="180" stroke="#f4f3f0" stroke-width="1" opacity=".028"/><line x1="0" y1="240" x2="1200" y2="240" stroke="#f4f3f0" stroke-width="1" opacity=".028"/><line x1="0" y1="300" x2="1200" y2="300" stroke="#f4f3f0" stroke-width="1" opacity=".028"/><line x1="0" y1="360" x2="1200" y2="360" stroke="#f4f3f0" stroke-width="1" opacity=".028"/><line x1="0" y1="420" x2="1200" y2="420" stroke="#f4f3f0" stroke-width="1" opacity=".028"/><line x1="0" y1="480" x2="1200" y2="480" stroke="#f4f3f0" stroke-width="1" opacity=".028"/><line x1="0" y1="540" x2="1200" y2="540" stroke="#f4f3f0" stroke-width="1" opacity=".028"/><line x1="0" y1="600" x2="1200" y2="600" stroke="#f4f3f0" stroke-width="1" opacity=".028"/><line x1="0" y1="660" x2="1200" y2="660" stroke="#f4f3f0" stroke-width="1" opacity=".028"/><line x1="0" y1="720" x2="1200" y2="720" stroke="#f4f3f0" stroke-width="1" opacity=".028"/><line x1="0" y1="780" x2="1200" y2="780" stroke="#f4f3f0" stroke-width="1" opacity=".028"/><line x1="0" y1="840" x2="1200" y2="840" stroke="#f4f3f0" stroke-width="1" opacity=".028"/><line x1="0" y1="900" x2="1200" y2="900" stroke="#f4f3f0" stroke-width="1" opacity=".028"/><ellipse cx="432" cy="455" rx="430" ry="330" fill="url(#glow)"/><path class="dw" d="M68,635 L916,635" pathLength="100" stroke="#f4f3f0" stroke-width="5" fill="none" opacity=".5" style="animation-delay:0s"/><path class="dw" d="M148,609 L836,609" pathLength="100" stroke="#d43a63" stroke-width="3.5" fill="none" opacity="0.85" style="animation-delay:0.50s"/><line class="tab" x1="148" y1="609" x2="148" y2="631" stroke="#d43a63" stroke-width="1.4" opacity=".28" style="animation-delay:0.70s"/><line class="tab" x1="263" y1="609" x2="263" y2="631" stroke="#d43a63" stroke-width="1.4" opacity=".28" style="animation-delay:0.70s"/><line class="tab" x1="377" y1="609" x2="377" y2="631" stroke="#d43a63" stroke-width="1.4" opacity=".28" style="animation-delay:0.70s"/><line class="tab" x1="492" y1="609" x2="492" y2="631" stroke="#d43a63" stroke-width="1.4" opacity=".28" style="animation-delay:0.70s"/><line class="tab" x1="607" y1="609" x2="607" y2="631" stroke="#d43a63" stroke-width="1.4" opacity=".28" style="animation-delay:0.70s"/><line class="tab" x1="721" y1="609" x2="721" y2="631" stroke="#d43a63" stroke-width="1.4" opacity=".28" style="animation-delay:0.70s"/><path class="dw" d="M182,583 L802,583" pathLength="100" stroke="#d43a63" stroke-width="3.3" fill="none" opacity="0.83" style="animation-delay:0.72s"/><line class="tab" x1="226" y1="583" x2="226" y2="605" stroke="#d43a63" stroke-width="1.4" opacity=".28" style="animation-delay:0.92s"/><line class="tab" x1="315" y1="583" x2="315" y2="605" stroke="#d43a63" stroke-width="1.4" opacity=".28" style="animation-delay:0.92s"/><line class="tab" x1="403" y1="583" x2="403" y2="605" stroke="#d43a63" stroke-width="1.4" opacity=".28" style="animation-delay:0.92s"/><line class="tab" x1="492" y1="583" x2="492" y2="605" stroke="#d43a63" stroke-width="1.4" opacity=".28" style="animation-delay:0.92s"/><line class="tab" x1="581" y1="583" x2="581" y2="605" stroke="#d43a63" stroke-width="1.4" opacity=".28" style="animation-delay:0.92s"/><line class="tab" x1="669" y1="583" x2="669" y2="605" stroke="#d43a63" stroke-width="1.4" opacity=".28" style="animation-delay:0.92s"/><line class="tab" x1="758" y1="583" x2="758" y2="605" stroke="#d43a63" stroke-width="1.4" opacity=".28" style="animation-delay:0.92s"/><path class="dw" d="M217,558 L767,558" pathLength="100" stroke="#d43a63" stroke-width="3.2" fill="none" opacity="0.80" style="animation-delay:0.93s"/><line class="tab" x1="217" y1="558" x2="217" y2="580" stroke="#d43a63" stroke-width="1.4" opacity=".28" style="animation-delay:1.13s"/><line class="tab" x1="285" y1="558" x2="285" y2="580" stroke="#d43a63" stroke-width="1.4" opacity=".28" style="animation-delay:1.13s"/><line class="tab" x1="354" y1="558" x2="354" y2="580" stroke="#d43a63" stroke-width="1.4" opacity=".28" style="animation-delay:1.13s"/><line class="tab" x1="423" y1="558" x2="423" y2="580" stroke="#d43a63" stroke-width="1.4" opacity=".28" style="animation-delay:1.13s"/><line class="tab" x1="492" y1="558" x2="492" y2="580" stroke="#d43a63" stroke-width="1.4" opacity=".28" style="animation-delay:1.13s"/><line class="tab" x1="561" y1="558" x2="561" y2="580" stroke="#d43a63" stroke-width="1.4" opacity=".28" style="animation-delay:1.13s"/><line class="tab" x1="630" y1="558" x2="630" y2="580" stroke="#d43a63" stroke-width="1.4" opacity=".28" style="animation-delay:1.13s"/><line class="tab" x1="699" y1="558" x2="699" y2="580" stroke="#d43a63" stroke-width="1.4" opacity=".28" style="animation-delay:1.13s"/><path class="dw" d="M251,532 L733,532" pathLength="100" stroke="#d43a63" stroke-width="3.1" fill="none" opacity="0.77" style="animation-delay:1.15s"/><line class="tab" x1="278" y1="532" x2="278" y2="554" stroke="#d43a63" stroke-width="1.4" opacity=".28" style="animation-delay:1.35s"/><line class="tab" x1="331" y1="532" x2="331" y2="554" stroke="#d43a63" stroke-width="1.4" opacity=".28" style="animation-delay:1.35s"/><line class="tab" x1="385" y1="532" x2="385" y2="554" stroke="#d43a63" stroke-width="1.4" opacity=".28" style="animation-delay:1.35s"/><line class="tab" x1="438" y1="532" x2="438" y2="554" stroke="#d43a63" stroke-width="1.4" opacity=".28" style="animation-delay:1.35s"/><line class="tab" x1="492" y1="532" x2="492" y2="554" stroke="#d43a63" stroke-width="1.4" opacity=".28" style="animation-delay:1.35s"/><line class="tab" x1="546" y1="532" x2="546" y2="554" stroke="#d43a63" stroke-width="1.4" opacity=".28" style="animation-delay:1.35s"/><line class="tab" x1="599" y1="532" x2="599" y2="554" stroke="#d43a63" stroke-width="1.4" opacity=".28" style="animation-delay:1.35s"/><line class="tab" x1="653" y1="532" x2="653" y2="554" stroke="#d43a63" stroke-width="1.4" opacity=".28" style="animation-delay:1.35s"/><line class="tab" x1="706" y1="532" x2="706" y2="554" stroke="#d43a63" stroke-width="1.4" opacity=".28" style="animation-delay:1.35s"/><path class="dw" d="M285,506 L699,506" pathLength="100" stroke="#d43a63" stroke-width="2.9" fill="none" opacity="0.74" style="animation-delay:1.37s"/><line class="tab" x1="285" y1="506" x2="285" y2="528" stroke="#d43a63" stroke-width="1.4" opacity=".28" style="animation-delay:1.57s"/><line class="tab" x1="327" y1="506" x2="327" y2="528" stroke="#d43a63" stroke-width="1.4" opacity=".28" style="animation-delay:1.57s"/><line class="tab" x1="368" y1="506" x2="368" y2="528" stroke="#d43a63" stroke-width="1.4" opacity=".28" style="animation-delay:1.57s"/><line class="tab" x1="409" y1="506" x2="409" y2="528" stroke="#d43a63" stroke-width="1.4" opacity=".28" style="animation-delay:1.57s"/><line class="tab" x1="451" y1="506" x2="451" y2="528" stroke="#d43a63" stroke-width="1.4" opacity=".28" style="animation-delay:1.57s"/><line class="tab" x1="492" y1="506" x2="492" y2="528" stroke="#d43a63" stroke-width="1.4" opacity=".28" style="animation-delay:1.57s"/><line class="tab" x1="533" y1="506" x2="533" y2="528" stroke="#d43a63" stroke-width="1.4" opacity=".28" style="animation-delay:1.57s"/><line class="tab" x1="575" y1="506" x2="575" y2="528" stroke="#d43a63" stroke-width="1.4" opacity=".28" style="animation-delay:1.57s"/><line class="tab" x1="616" y1="506" x2="616" y2="528" stroke="#d43a63" stroke-width="1.4" opacity=".28" style="animation-delay:1.57s"/><line class="tab" x1="657" y1="506" x2="657" y2="528" stroke="#d43a63" stroke-width="1.4" opacity=".28" style="animation-delay:1.57s"/><path class="dw" d="M320,481 L664,481" pathLength="100" stroke="#d43a63" stroke-width="2.8" fill="none" opacity="0.72" style="animation-delay:1.58s"/><line class="tab" x1="336" y1="481" x2="336" y2="503" stroke="#d43a63" stroke-width="1.4" opacity=".28" style="animation-delay:1.78s"/><line class="tab" x1="367" y1="481" x2="367" y2="503" stroke="#d43a63" stroke-width="1.4" opacity=".28" style="animation-delay:1.78s"/><line class="tab" x1="398" y1="481" x2="398" y2="503" stroke="#d43a63" stroke-width="1.4" opacity=".28" style="animation-delay:1.78s"/><line class="tab" x1="429" y1="481" x2="429" y2="503" stroke="#d43a63" stroke-width="1.4" opacity=".28" style="animation-delay:1.78s"/><line class="tab" x1="461" y1="481" x2="461" y2="503" stroke="#d43a63" stroke-width="1.4" opacity=".28" style="animation-delay:1.78s"/><line class="tab" x1="492" y1="481" x2="492" y2="503" stroke="#d43a63" stroke-width="1.4" opacity=".28" style="animation-delay:1.78s"/><line class="tab" x1="523" y1="481" x2="523" y2="503" stroke="#d43a63" stroke-width="1.4" opacity=".28" style="animation-delay:1.78s"/><line class="tab" x1="555" y1="481" x2="555" y2="503" stroke="#d43a63" stroke-width="1.4" opacity=".28" style="animation-delay:1.78s"/><line class="tab" x1="586" y1="481" x2="586" y2="503" stroke="#d43a63" stroke-width="1.4" opacity=".28" style="animation-delay:1.78s"/><line class="tab" x1="617" y1="481" x2="617" y2="503" stroke="#d43a63" stroke-width="1.4" opacity=".28" style="animation-delay:1.78s"/><line class="tab" x1="648" y1="481" x2="648" y2="503" stroke="#d43a63" stroke-width="1.4" opacity=".28" style="animation-delay:1.78s"/><path class="dw" d="M354,455 L630,455" pathLength="100" stroke="#d43a63" stroke-width="2.6" fill="none" opacity="0.69" style="animation-delay:1.80s"/><line class="tab" x1="354" y1="455" x2="354" y2="477" stroke="#d43a63" stroke-width="1.4" opacity=".28" style="animation-delay:2.00s"/><line class="tab" x1="377" y1="455" x2="377" y2="477" stroke="#d43a63" stroke-width="1.4" opacity=".28" style="animation-delay:2.00s"/><line class="tab" x1="400" y1="455" x2="400" y2="477" stroke="#d43a63" stroke-width="1.4" opacity=".28" style="animation-delay:2.00s"/><line class="tab" x1="423" y1="455" x2="423" y2="477" stroke="#d43a63" stroke-width="1.4" opacity=".28" style="animation-delay:2.00s"/><line class="tab" x1="446" y1="455" x2="446" y2="477" stroke="#d43a63" stroke-width="1.4" opacity=".28" style="animation-delay:2.00s"/><line class="tab" x1="469" y1="455" x2="469" y2="477" stroke="#d43a63" stroke-width="1.4" opacity=".28" style="animation-delay:2.00s"/><line class="tab" x1="492" y1="455" x2="492" y2="477" stroke="#d43a63" stroke-width="1.4" opacity=".28" style="animation-delay:2.00s"/><line class="tab" x1="515" y1="455" x2="515" y2="477" stroke="#d43a63" stroke-width="1.4" opacity=".28" style="animation-delay:2.00s"/><line class="tab" x1="538" y1="455" x2="538" y2="477" stroke="#d43a63" stroke-width="1.4" opacity=".28" style="animation-delay:2.00s"/><line class="tab" x1="561" y1="455" x2="561" y2="477" stroke="#d43a63" stroke-width="1.4" opacity=".28" style="animation-delay:2.00s"/><line class="tab" x1="584" y1="455" x2="584" y2="477" stroke="#d43a63" stroke-width="1.4" opacity=".28" style="animation-delay:2.00s"/><line class="tab" x1="607" y1="455" x2="607" y2="477" stroke="#d43a63" stroke-width="1.4" opacity=".28" style="animation-delay:2.00s"/><path class="dw" d="M389,429 L595,429" pathLength="100" stroke="#d43a63" stroke-width="2.5" fill="none" opacity="0.66" style="animation-delay:2.02s"/><line class="tab" x1="397" y1="429" x2="397" y2="451" stroke="#d43a63" stroke-width="1.4" opacity=".28" style="animation-delay:2.22s"/><line class="tab" x1="413" y1="429" x2="413" y2="451" stroke="#d43a63" stroke-width="1.4" opacity=".28" style="animation-delay:2.22s"/><line class="tab" x1="428" y1="429" x2="428" y2="451" stroke="#d43a63" stroke-width="1.4" opacity=".28" style="animation-delay:2.22s"/><line class="tab" x1="444" y1="429" x2="444" y2="451" stroke="#d43a63" stroke-width="1.4" opacity=".28" style="animation-delay:2.22s"/><line class="tab" x1="460" y1="429" x2="460" y2="451" stroke="#d43a63" stroke-width="1.4" opacity=".28" style="animation-delay:2.22s"/><line class="tab" x1="476" y1="429" x2="476" y2="451" stroke="#d43a63" stroke-width="1.4" opacity=".28" style="animation-delay:2.22s"/><line class="tab" x1="492" y1="429" x2="492" y2="451" stroke="#d43a63" stroke-width="1.4" opacity=".28" style="animation-delay:2.22s"/><line class="tab" x1="508" y1="429" x2="508" y2="451" stroke="#d43a63" stroke-width="1.4" opacity=".28" style="animation-delay:2.22s"/><line class="tab" x1="524" y1="429" x2="524" y2="451" stroke="#d43a63" stroke-width="1.4" opacity=".28" style="animation-delay:2.22s"/><line class="tab" x1="540" y1="429" x2="540" y2="451" stroke="#d43a63" stroke-width="1.4" opacity=".28" style="animation-delay:2.22s"/><line class="tab" x1="556" y1="429" x2="556" y2="451" stroke="#d43a63" stroke-width="1.4" opacity=".28" style="animation-delay:2.22s"/><line class="tab" x1="571" y1="429" x2="571" y2="451" stroke="#d43a63" stroke-width="1.4" opacity=".28" style="animation-delay:2.22s"/><line class="tab" x1="587" y1="429" x2="587" y2="451" stroke="#d43a63" stroke-width="1.4" opacity=".28" style="animation-delay:2.22s"/><path class="dw" d="M423,404 L561,404" pathLength="100" stroke="#d43a63" stroke-width="2.4" fill="none" opacity="0.63" style="animation-delay:2.24s"/><line class="tab" x1="423" y1="404" x2="423" y2="426" stroke="#d43a63" stroke-width="1.4" opacity=".28" style="animation-delay:2.44s"/><line class="tab" x1="433" y1="404" x2="433" y2="426" stroke="#d43a63" stroke-width="1.4" opacity=".28" style="animation-delay:2.44s"/><line class="tab" x1="443" y1="404" x2="443" y2="426" stroke="#d43a63" stroke-width="1.4" opacity=".28" style="animation-delay:2.44s"/><line class="tab" x1="453" y1="404" x2="453" y2="426" stroke="#d43a63" stroke-width="1.4" opacity=".28" style="animation-delay:2.44s"/><line class="tab" x1="462" y1="404" x2="462" y2="426" stroke="#d43a63" stroke-width="1.4" opacity=".28" style="animation-delay:2.44s"/><line class="tab" x1="472" y1="404" x2="472" y2="426" stroke="#d43a63" stroke-width="1.4" opacity=".28" style="animation-delay:2.44s"/><line class="tab" x1="482" y1="404" x2="482" y2="426" stroke="#d43a63" stroke-width="1.4" opacity=".28" style="animation-delay:2.44s"/><line class="tab" x1="492" y1="404" x2="492" y2="426" stroke="#d43a63" stroke-width="1.4" opacity=".28" style="animation-delay:2.44s"/><line class="tab" x1="502" y1="404" x2="502" y2="426" stroke="#d43a63" stroke-width="1.4" opacity=".28" style="animation-delay:2.44s"/><line class="tab" x1="512" y1="404" x2="512" y2="426" stroke="#d43a63" stroke-width="1.4" opacity=".28" style="animation-delay:2.44s"/><line class="tab" x1="522" y1="404" x2="522" y2="426" stroke="#d43a63" stroke-width="1.4" opacity=".28" style="animation-delay:2.44s"/><line class="tab" x1="531" y1="404" x2="531" y2="426" stroke="#d43a63" stroke-width="1.4" opacity=".28" style="animation-delay:2.44s"/><line class="tab" x1="541" y1="404" x2="541" y2="426" stroke="#d43a63" stroke-width="1.4" opacity=".28" style="animation-delay:2.44s"/><line class="tab" x1="551" y1="404" x2="551" y2="426" stroke="#d43a63" stroke-width="1.4" opacity=".28" style="animation-delay:2.44s"/><path class="dw" d="M458,378 L526,378" pathLength="100" stroke="#d43a63" stroke-width="2.2" fill="none" opacity="0.61" style="animation-delay:2.45s"/><line class="tab" x1="460" y1="378" x2="460" y2="400" stroke="#d43a63" stroke-width="1.4" opacity=".28" style="animation-delay:2.65s"/><line class="tab" x1="464" y1="378" x2="464" y2="400" stroke="#d43a63" stroke-width="1.4" opacity=".28" style="animation-delay:2.65s"/><line class="tab" x1="469" y1="378" x2="469" y2="400" stroke="#d43a63" stroke-width="1.4" opacity=".28" style="animation-delay:2.65s"/><line class="tab" x1="474" y1="378" x2="474" y2="400" stroke="#d43a63" stroke-width="1.4" opacity=".28" style="animation-delay:2.65s"/><line class="tab" x1="478" y1="378" x2="478" y2="400" stroke="#d43a63" stroke-width="1.4" opacity=".28" style="animation-delay:2.65s"/><line class="tab" x1="483" y1="378" x2="483" y2="400" stroke="#d43a63" stroke-width="1.4" opacity=".28" style="animation-delay:2.65s"/><line class="tab" x1="487" y1="378" x2="487" y2="400" stroke="#d43a63" stroke-width="1.4" opacity=".28" style="animation-delay:2.65s"/><line class="tab" x1="492" y1="378" x2="492" y2="400" stroke="#d43a63" stroke-width="1.4" opacity=".28" style="animation-delay:2.65s"/><line class="tab" x1="497" y1="378" x2="497" y2="400" stroke="#d43a63" stroke-width="1.4" opacity=".28" style="animation-delay:2.65s"/><line class="tab" x1="501" y1="378" x2="501" y2="400" stroke="#d43a63" stroke-width="1.4" opacity=".28" style="animation-delay:2.65s"/><line class="tab" x1="506" y1="378" x2="506" y2="400" stroke="#d43a63" stroke-width="1.4" opacity=".28" style="animation-delay:2.65s"/><line class="tab" x1="510" y1="378" x2="510" y2="400" stroke="#d43a63" stroke-width="1.4" opacity=".28" style="animation-delay:2.65s"/><line class="tab" x1="515" y1="378" x2="515" y2="400" stroke="#d43a63" stroke-width="1.4" opacity=".28" style="animation-delay:2.65s"/><line class="tab" x1="520" y1="378" x2="520" y2="400" stroke="#d43a63" stroke-width="1.4" opacity=".28" style="animation-delay:2.65s"/><line class="tab" x1="524" y1="378" x2="524" y2="400" stroke="#d43a63" stroke-width="1.4" opacity=".28" style="animation-delay:2.65s"/><path class="dw" d="M113,635 L492,352 L871,635" pathLength="100" stroke="#f4f3f0" stroke-width="5.5" fill="none" style="animation-delay:0.20s"/><path class="dw" d="M200,635 L359,437 L519,635" pathLength="100" stroke="#f4f3f0" stroke-width="5.5" fill="none" style="animation-delay:0.45s"/><path class="dw" d="M375,480 L375,292 L417,292 L417,522" pathLength="100" stroke="#f4f3f0" stroke-width="4" fill="none" opacity=".8" style="animation-delay:2.6s"/></svg>