<svg xmlns="http://www.w3.org/2000/svg" viewBox="0 0 1200 900" width="1200" height="900" role="img" aria-label="Tree drawing itself, leaning habit"><defs><radialGradient id="glow"><stop offset="0%" stop-color="#dc7108" stop-opacity=".20"/><stop offset="100%" stop-color="#dc7108" stop-opacity="0"/></radialGradient></defs><style>.dw{stroke-dasharray:100;stroke-dashoffset:100;animation:dw 12.13s ease-in-out infinite}@keyframes dw{0%{stroke-dashoffset:100}24%{stroke-dashoffset:0}84%{stroke-dashoffset:0;opacity:1}95%{stroke-dashoffset:0;opacity:0}100%{stroke-dashoffset:100;opacity:0}}.leaf{opacity:0;animation:lf 12.13s ease-in-out infinite}@keyframes lf{0%,30%{opacity:0;transform:scale(.5)}48%{opacity:1;transform:scale(1)}84%{opacity:1}95%,100%{opacity:0}}@media (prefers-reduced-motion: reduce){*{animation:none!important}.dw{stroke-dashoffset:0!important}[class]{opacity:1!important}}</style><rect width="1200" height="900" fill="#131414"/><line x1="0" y1="0" x2="0" y2="900" stroke="#f4f3f0" stroke-width="1" opacity=".028"/><line x1="60" y1="0" x2="60" y2="900" stroke="#f4f3f0" stroke-width="1" opacity=".028"/><line x1="120" y1="0" x2="120" y2="900" stroke="#f4f3f0" stroke-width="1" opacity=".028"/><line x1="180" y1="0" x2="180" y2="900" stroke="#f4f3f0" stroke-width="1" opacity=".028"/><line x1="240" y1="0" x2="240" y2="900" stroke="#f4f3f0" stroke-width="1" opacity=".028"/><line x1="300" y1="0" x2="300" y2="900" stroke="#f4f3f0" stroke-width="1" opacity=".028"/><line x1="360" y1="0" x2="360" y2="900" stroke="#f4f3f0" stroke-width="1" opacity=".028"/><line x1="420" y1="0" x2="420" y2="900" stroke="#f4f3f0" stroke-width="1" opacity=".028"/><line x1="480" y1="0" x2="480" y2="900" stroke="#f4f3f0" stroke-width="1" opacity=".028"/><line x1="540" y1="0" x2="540" y2="900" stroke="#f4f3f0" stroke-width="1" opacity=".028"/><line x1="600" y1="0" x2="600" y2="900" stroke="#f4f3f0" stroke-width="1" opacity=".028"/><line x1="660" y1="0" x2="660" y2="900" stroke="#f4f3f0" stroke-width="1" opacity=".028"/><line x1="720" y1="0" x2="720" y2="900" stroke="#f4f3f0" stroke-width="1" opacity=".028"/><line x1="780" y1="0" x2="780" y2="900" stroke="#f4f3f0" stroke-width="1" opacity=".028"/><line x1="840" y1="0" x2="840" y2="900" stroke="#f4f3f0" stroke-width="1" opacity=".028"/><line x1="900" y1="0" x2="900" y2="900" stroke="#f4f3f0" stroke-width="1" opacity=".028"/><line x1="960" y1="0" x2="960" y2="900" stroke="#f4f3f0" stroke-width="1" opacity=".028"/><line x1="1020" y1="0" x2="1020" y2="900" stroke="#f4f3f0" stroke-width="1" opacity=".028"/><line x1="1080" y1="0" x2="1080" y2="900" stroke="#f4f3f0" stroke-width="1" opacity=".028"/><line x1="1140" y1="0" x2="1140" y2="900" stroke="#f4f3f0" stroke-width="1" opacity=".028"/><line x1="1200" y1="0" x2="1200" y2="900" stroke="#f4f3f0" stroke-width="1" opacity=".028"/><line x1="0" y1="0" x2="1200" y2="0" stroke="#f4f3f0" stroke-width="1" opacity=".028"/><line x1="0" y1="60" x2="1200" y2="60" stroke="#f4f3f0" stroke-width="1" opacity=".028"/><line x1="0" y1="120" x2="1200" y2="120" stroke="#f4f3f0" stroke-width="1" opacity=".028"/><line x1="0" y1="180" x2="1200" y2="180" stroke="#f4f3f0" stroke-width="1" opacity=".028"/><line x1="0" y1="240" x2="1200" y2="240" stroke="#f4f3f0" stroke-width="1" opacity=".028"/><line x1="0" y1="300" x2="1200" y2="300" stroke="#f4f3f0" stroke-width="1" opacity=".028"/><line x1="0" y1="360" x2="1200" y2="360" stroke="#f4f3f0" stroke-width="1" opacity=".028"/><line x1="0" y1="420" x2="1200" y2="420" stroke="#f4f3f0" stroke-width="1" opacity=".028"/><line x1="0" y1="480" x2="1200" y2="480" stroke="#f4f3f0" stroke-width="1" opacity=".028"/><line x1="0" y1="540" x2="1200" y2="540" stroke="#f4f3f0" stroke-width="1" opacity=".028"/><line x1="0" y1="600" x2="1200" y2="600" stroke="#f4f3f0" stroke-width="1" opacity=".028"/><line x1="0" y1="660" x2="1200" y2="660" stroke="#f4f3f0" stroke-width="1" opacity=".028"/><line x1="0" y1="720" x2="1200" y2="720" stroke="#f4f3f0" stroke-width="1" opacity=".028"/><line x1="0" y1="780" x2="1200" y2="780" stroke="#f4f3f0" stroke-width="1" opacity=".028"/><line x1="0" y1="840" x2="1200" y2="840" stroke="#f4f3f0" stroke-width="1" opacity=".028"/><line x1="0" y1="900" x2="1200" y2="900" stroke="#f4f3f0" stroke-width="1" opacity=".028"/><ellipse cx="600" cy="455" rx="430" ry="330" fill="url(#glow)"/><path class="dw" d="M560,700 L640,700" pathLength="100" stroke="#f4f3f0" stroke-width="4" fill="none" opacity=".45" style="animation-delay:0s"/><path class="dw" d="M583,700 L604,550 L620,550 L617,700 Z" pathLength="100" stroke="#f4f3f0" stroke-width="4" fill="none" style="animation-delay:.15s"/><path class="dw" d="M612,550 L608,443" pathLength="100" stroke="#f4f3f0" stroke-width="4.2" fill="none" opacity="0.89" style="animation-delay:0.45s"/><path class="dw" d="M608,443 L644,383" pathLength="100" stroke="#f4f3f0" stroke-width="3.2" fill="none" opacity="0.78" style="animation-delay:0.55s"/><path class="dw" d="M644,383 L686,360" pathLength="100" stroke="#dc7108" stroke-width="2.1" fill="none" opacity="0.67" style="animation-delay:0.65s"/><path class="dw" d="M686,360 L722,360" pathLength="100" stroke="#dc7108" stroke-width="1.1" fill="none" opacity="0.56" style="animation-delay:0.75s"/><path class="dw" d="M686,360 L707,330" pathLength="100" stroke="#dc7108" stroke-width="1.1" fill="none" opacity="0.56" style="animation-delay:0.75s"/><path class="dw" d="M644,383 L643,331" pathLength="100" stroke="#dc7108" stroke-width="2.1" fill="none" opacity="0.67" style="animation-delay:0.65s"/><path class="dw" d="M643,331 L656,296" pathLength="100" stroke="#dc7108" stroke-width="1.1" fill="none" opacity="0.56" style="animation-delay:0.75s"/><path class="dw" d="M643,331 L632,301" pathLength="100" stroke="#dc7108" stroke-width="1.1" fill="none" opacity="0.56" style="animation-delay:0.75s"/><path class="dw" d="M608,443 L562,377" pathLength="100" stroke="#f4f3f0" stroke-width="3.2" fill="none" opacity="0.78" style="animation-delay:0.55s"/><path class="dw" d="M562,377 L554,327" pathLength="100" stroke="#dc7108" stroke-width="2.1" fill="none" opacity="0.67" style="animation-delay:0.65s"/><path class="dw" d="M554,327 L566,295" pathLength="100" stroke="#dc7108" stroke-width="1.1" fill="none" opacity="0.56" style="animation-delay:0.75s"/><path class="dw" d="M554,327 L532,297" pathLength="100" stroke="#dc7108" stroke-width="1.1" fill="none" opacity="0.56" style="animation-delay:0.75s"/><path class="dw" d="M562,377 L510,349" pathLength="100" stroke="#dc7108" stroke-width="2.1" fill="none" opacity="0.67" style="animation-delay:0.65s"/><path class="dw" d="M510,349 L489,313" pathLength="100" stroke="#dc7108" stroke-width="1.1" fill="none" opacity="0.56" style="animation-delay:0.75s"/><path class="dw" d="M510,349 L471,349" pathLength="100" stroke="#dc7108" stroke-width="1.1" fill="none" opacity="0.56" style="animation-delay:0.75s"/><path class="dw" d="M608,443 L597,379" pathLength="100" stroke="#dc7108" stroke-width="2.1" fill="none" opacity="0.67" style="animation-delay:0.59s"/><path class="dw" d="M597,379 L615,340" pathLength="100" stroke="#dc7108" stroke-width="1.1" fill="none" opacity="0.56" style="animation-delay:0.69s"/><path class="dw" d="M597,379 L565,346" pathLength="100" stroke="#dc7108" stroke-width="1.1" fill="none" opacity="0.56" style="animation-delay:0.69s"/><circle class="leaf" cx="559" cy="394" r="31" fill="#dc7108" fill-opacity="0.31" style="animation-delay:1.90s"/><circle class="leaf" cx="472" cy="413" r="45" fill="#dc7108" fill-opacity="0.37" style="animation-delay:1.96s"/><circle class="leaf" cx="548" cy="379" r="31" fill="#dc7108" fill-opacity="0.39" style="animation-delay:2.02s"/><circle class="leaf" cx="771" cy="469" r="25" fill="#dc7108" fill-opacity="0.23" style="animation-delay:2.08s"/><circle class="leaf" cx="540" cy="542" r="48" fill="#dc7108" fill-opacity="0.35" style="animation-delay:2.14s"/><circle class="leaf" cx="441" cy="376" r="32" fill="#dc7108" fill-opacity="0.41" style="animation-delay:2.20s"/><circle class="leaf" cx="563" cy="361" r="32" fill="#dc7108" fill-opacity="0.34" style="animation-delay:2.26s"/><circle class="leaf" cx="500" cy="501" r="37" fill="#dc7108" fill-opacity="0.37" style="animation-delay:2.32s"/><circle class="leaf" cx="474" cy="448" r="36" fill="#dc7108" fill-opacity="0.31" style="animation-delay:2.38s"/><circle class="leaf" cx="782" cy="394" r="51" fill="#dc7108" fill-opacity="0.32" style="animation-delay:2.44s"/></svg>