<svg xmlns="http://www.w3.org/2000/svg" viewBox="0 0 1200 900" width="1200" height="900" role="img" aria-label="Project phase timeline"><defs><radialGradient id="glow"><stop offset="0%" stop-color="#4198d6" stop-opacity=".20"/><stop offset="100%" stop-color="#4198d6" stop-opacity="0"/></radialGradient></defs><style>.dw{stroke-dasharray:100;stroke-dashoffset:100;animation:dw 9.19s ease-in-out infinite}@keyframes dw{0%{stroke-dashoffset:100}24%{stroke-dashoffset:0}84%{stroke-dashoffset:0;opacity:1}95%{stroke-dashoffset:0;opacity:0}100%{stroke-dashoffset:100;opacity:0}}.st{opacity:0;transform-origin:center bottom;animation:stg 9.19s ease-in-out infinite}@keyframes stg{0%,8%{opacity:0;transform:scaleY(0)}26%{opacity:1;transform:scaleY(1)}84%{opacity:1}95%,100%{opacity:0}}@media (prefers-reduced-motion: reduce){*{animation:none!important}.dw{stroke-dashoffset:0!important}[class]{opacity:1!important}}</style><rect width="1200" height="900" fill="#1b2028"/><line x1="0" y1="0" x2="0" y2="900" stroke="#f4f3f0" stroke-width="1" opacity=".028"/><line x1="60" y1="0" x2="60" y2="900" stroke="#f4f3f0" stroke-width="1" opacity=".028"/><line x1="120" y1="0" x2="120" y2="900" stroke="#f4f3f0" stroke-width="1" opacity=".028"/><line x1="180" y1="0" x2="180" y2="900" stroke="#f4f3f0" stroke-width="1" opacity=".028"/><line x1="240" y1="0" x2="240" y2="900" stroke="#f4f3f0" stroke-width="1" opacity=".028"/><line x1="300" y1="0" x2="300" y2="900" stroke="#f4f3f0" stroke-width="1" opacity=".028"/><line x1="360" y1="0" x2="360" y2="900" stroke="#f4f3f0" stroke-width="1" opacity=".028"/><line x1="420" y1="0" x2="420" y2="900" stroke="#f4f3f0" stroke-width="1" opacity=".028"/><line x1="480" y1="0" x2="480" y2="900" stroke="#f4f3f0" stroke-width="1" opacity=".028"/><line x1="540" y1="0" x2="540" y2="900" stroke="#f4f3f0" stroke-width="1" opacity=".028"/><line x1="600" y1="0" x2="600" y2="900" stroke="#f4f3f0" stroke-width="1" opacity=".028"/><line x1="660" y1="0" x2="660" y2="900" stroke="#f4f3f0" stroke-width="1" opacity=".028"/><line x1="720" y1="0" x2="720" y2="900" stroke="#f4f3f0" stroke-width="1" opacity=".028"/><line x1="780" y1="0" x2="780" y2="900" stroke="#f4f3f0" stroke-width="1" opacity=".028"/><line x1="840" y1="0" x2="840" y2="900" stroke="#f4f3f0" stroke-width="1" opacity=".028"/><line x1="900" y1="0" x2="900" y2="900" stroke="#f4f3f0" stroke-width="1" opacity=".028"/><line x1="960" y1="0" x2="960" y2="900" stroke="#f4f3f0" stroke-width="1" opacity=".028"/><line x1="1020" y1="0" x2="1020" y2="900" stroke="#f4f3f0" stroke-width="1" opacity=".028"/><line x1="1080" y1="0" x2="1080" y2="900" stroke="#f4f3f0" stroke-width="1" opacity=".028"/><line x1="1140" y1="0" x2="1140" y2="900" stroke="#f4f3f0" stroke-width="1" opacity=".028"/><line x1="1200" y1="0" x2="1200" y2="900" stroke="#f4f3f0" stroke-width="1" opacity=".028"/><line x1="0" y1="0" x2="1200" y2="0" stroke="#f4f3f0" stroke-width="1" opacity=".028"/><line x1="0" y1="60" x2="1200" y2="60" stroke="#f4f3f0" stroke-width="1" opacity=".028"/><line x1="0" y1="120" x2="1200" y2="120" stroke="#f4f3f0" stroke-width="1" opacity=".028"/><line x1="0" y1="180" x2="1200" y2="180" stroke="#f4f3f0" stroke-width="1" opacity=".028"/><line x1="0" y1="240" x2="1200" y2="240" stroke="#f4f3f0" stroke-width="1" opacity=".028"/><line x1="0" y1="300" x2="1200" y2="300" stroke="#f4f3f0" stroke-width="1" opacity=".028"/><line x1="0" y1="360" x2="1200" y2="360" stroke="#f4f3f0" stroke-width="1" opacity=".028"/><line x1="0" y1="420" x2="1200" y2="420" stroke="#f4f3f0" stroke-width="1" opacity=".028"/><line x1="0" y1="480" x2="1200" y2="480" stroke="#f4f3f0" stroke-width="1" opacity=".028"/><line x1="0" y1="540" x2="1200" y2="540" stroke="#f4f3f0" stroke-width="1" opacity=".028"/><line x1="0" y1="600" x2="1200" y2="600" stroke="#f4f3f0" stroke-width="1" opacity=".028"/><line x1="0" y1="660" x2="1200" y2="660" stroke="#f4f3f0" stroke-width="1" opacity=".028"/><line x1="0" y1="720" x2="1200" y2="720" stroke="#f4f3f0" stroke-width="1" opacity=".028"/><line x1="0" y1="780" x2="1200" y2="780" stroke="#f4f3f0" stroke-width="1" opacity=".028"/><line x1="0" y1="840" x2="1200" y2="840" stroke="#f4f3f0" stroke-width="1" opacity=".028"/><line x1="0" y1="900" x2="1200" y2="900" stroke="#f4f3f0" stroke-width="1" opacity=".028"/><ellipse cx="600" cy="455" rx="430" ry="330" fill="url(#glow)"/><path class="dw" d="M150,640 L1050,640" pathLength="100" stroke="#f4f3f0" stroke-width="4" opacity=".3" fill="none" style="animation-delay:0s"/><rect class="st" x="132" y="500" width="96" height="70" rx="4" fill="#4198d6" opacity=".22" style="animation-delay:0.00s"/><rect class="st" x="132" y="500" width="96" height="70" rx="4" fill="none" stroke="#4198d6" stroke-width="2.6" opacity=".72" style="animation-delay:0.00s"/><circle class="st" cx="180" cy="640" r="16" fill="#1b2028" stroke="#4198d6" stroke-width="4" style="animation-delay:0.00s"/><rect class="st" x="312" y="426" width="96" height="144" rx="4" fill="#4198d6" opacity=".22" style="animation-delay:0.50s"/><rect class="st" x="312" y="426" width="96" height="144" rx="4" fill="none" stroke="#4198d6" stroke-width="2.6" opacity=".72" style="animation-delay:0.50s"/><circle class="st" cx="360" cy="640" r="16" fill="#1b2028" stroke="#4198d6" stroke-width="4" style="animation-delay:0.50s"/><rect class="st" x="492" y="352" width="96" height="218" rx="4" fill="#4198d6" opacity=".22" style="animation-delay:1.00s"/><rect class="st" x="492" y="352" width="96" height="218" rx="4" fill="none" stroke="#4198d6" stroke-width="2.6" opacity=".72" style="animation-delay:1.00s"/><circle class="st" cx="540" cy="640" r="16" fill="#1b2028" stroke="#4198d6" stroke-width="4" style="animation-delay:1.00s"/><rect class="st" x="672" y="278" width="96" height="292" rx="4" fill="#4198d6" opacity=".22" style="animation-delay:1.50s"/><rect class="st" x="672" y="278" width="96" height="292" rx="4" fill="none" stroke="#4198d6" stroke-width="2.6" opacity=".72" style="animation-delay:1.50s"/><circle class="st" cx="720" cy="640" r="16" fill="#1b2028" stroke="#4198d6" stroke-width="4" style="animation-delay:1.50s"/><rect class="st" x="852" y="204" width="96" height="366" rx="4" fill="#4198d6" opacity=".22" style="animation-delay:2.00s"/><rect class="st" x="852" y="204" width="96" height="366" rx="4" fill="none" stroke="#4198d6" stroke-width="2.6" opacity=".72" style="animation-delay:2.00s"/><circle class="st" cx="900" cy="640" r="16" fill="#1b2028" stroke="#4198d6" stroke-width="4" style="animation-delay:2.00s"/><path class="dw" d="M180,640 L900,640" pathLength="100" stroke="#4198d6" stroke-width="6" fill="none" stroke-linecap="round" style="animation-delay:.3s"/></svg>