<svg xmlns="http://www.w3.org/2000/svg" viewBox="0 0 1200 900" width="1200" height="900" role="img" aria-label="concrete motion graphic"><style>.fl{animation:fl 1.93s linear infinite}@keyframes fl{0%{stroke-dashoffset:-240}100%{stroke-dashoffset:0}}@media (prefers-reduced-motion: reduce){*{animation:none!important}.dw{stroke-dashoffset:0!important}.st,.rise,.rg,.sw,.ln{opacity:1!important;transform:none!important}}</style><rect width="1200" height="900" fill="#0e1311"/><line x1="0" y1="0" x2="0" y2="900" stroke="#f1f6f4" stroke-width="1" opacity=".03"/><line x1="62" y1="0" x2="62" y2="900" stroke="#f1f6f4" stroke-width="1" opacity=".03"/><line x1="124" y1="0" x2="124" y2="900" stroke="#f1f6f4" stroke-width="1" opacity=".03"/><line x1="186" y1="0" x2="186" y2="900" stroke="#f1f6f4" stroke-width="1" opacity=".03"/><line x1="248" y1="0" x2="248" y2="900" stroke="#f1f6f4" stroke-width="1" opacity=".03"/><line x1="310" y1="0" x2="310" y2="900" stroke="#f1f6f4" stroke-width="1" opacity=".03"/><line x1="372" y1="0" x2="372" y2="900" stroke="#f1f6f4" stroke-width="1" opacity=".03"/><line x1="434" y1="0" x2="434" y2="900" stroke="#f1f6f4" stroke-width="1" opacity=".03"/><line x1="496" y1="0" x2="496" y2="900" stroke="#f1f6f4" stroke-width="1" opacity=".03"/><line x1="558" y1="0" x2="558" y2="900" stroke="#f1f6f4" stroke-width="1" opacity=".03"/><line x1="620" y1="0" x2="620" y2="900" stroke="#f1f6f4" stroke-width="1" opacity=".03"/><line x1="682" y1="0" x2="682" y2="900" stroke="#f1f6f4" stroke-width="1" opacity=".03"/><line x1="744" y1="0" x2="744" y2="900" stroke="#f1f6f4" stroke-width="1" opacity=".03"/><line x1="806" y1="0" x2="806" y2="900" stroke="#f1f6f4" stroke-width="1" opacity=".03"/><line x1="868" y1="0" x2="868" y2="900" stroke="#f1f6f4" stroke-width="1" opacity=".03"/><line x1="930" y1="0" x2="930" y2="900" stroke="#f1f6f4" stroke-width="1" opacity=".03"/><line x1="992" y1="0" x2="992" y2="900" stroke="#f1f6f4" stroke-width="1" opacity=".03"/><line x1="1054" y1="0" x2="1054" y2="900" stroke="#f1f6f4" stroke-width="1" opacity=".03"/><line x1="1116" y1="0" x2="1116" y2="900" stroke="#f1f6f4" stroke-width="1" opacity=".03"/><line x1="1178" y1="0" x2="1178" y2="900" stroke="#f1f6f4" stroke-width="1" opacity=".03"/><line x1="0" y1="0" x2="1200" y2="0" stroke="#f1f6f4" stroke-width="1" opacity=".03"/><line x1="0" y1="44" x2="1200" y2="44" stroke="#f1f6f4" stroke-width="1" opacity=".03"/><line x1="0" y1="88" x2="1200" y2="88" stroke="#f1f6f4" stroke-width="1" opacity=".03"/><line x1="0" y1="132" x2="1200" y2="132" stroke="#f1f6f4" stroke-width="1" opacity=".03"/><line x1="0" y1="176" x2="1200" y2="176" stroke="#f1f6f4" stroke-width="1" opacity=".03"/><line x1="0" y1="220" x2="1200" y2="220" stroke="#f1f6f4" stroke-width="1" opacity=".03"/><line x1="0" y1="264" x2="1200" y2="264" stroke="#f1f6f4" stroke-width="1" opacity=".03"/><line x1="0" y1="308" x2="1200" y2="308" stroke="#f1f6f4" stroke-width="1" opacity=".03"/><line x1="0" y1="352" x2="1200" y2="352" stroke="#f1f6f4" stroke-width="1" opacity=".03"/><line x1="0" y1="396" x2="1200" y2="396" stroke="#f1f6f4" stroke-width="1" opacity=".03"/><line x1="0" y1="440" x2="1200" y2="440" stroke="#f1f6f4" stroke-width="1" opacity=".03"/><line x1="0" y1="484" x2="1200" y2="484" stroke="#f1f6f4" stroke-width="1" opacity=".03"/><line x1="0" y1="528" x2="1200" y2="528" stroke="#f1f6f4" stroke-width="1" opacity=".03"/><line x1="0" y1="572" x2="1200" y2="572" stroke="#f1f6f4" stroke-width="1" opacity=".03"/><line x1="0" y1="616" x2="1200" y2="616" stroke="#f1f6f4" stroke-width="1" opacity=".03"/><line x1="0" y1="660" x2="1200" y2="660" stroke="#f1f6f4" stroke-width="1" opacity=".03"/><line x1="0" y1="704" x2="1200" y2="704" stroke="#f1f6f4" stroke-width="1" opacity=".03"/><line x1="0" y1="748" x2="1200" y2="748" stroke="#f1f6f4" stroke-width="1" opacity=".03"/><line x1="0" y1="792" x2="1200" y2="792" stroke="#f1f6f4" stroke-width="1" opacity=".03"/><line x1="0" y1="836" x2="1200" y2="836" stroke="#f1f6f4" stroke-width="1" opacity=".03"/><line x1="0" y1="880" x2="1200" y2="880" stroke="#f1f6f4" stroke-width="1" opacity=".03"/><defs><radialGradient id="g"><stop offset="0%" stop-color="#4fa886" stop-opacity=".22"/><stop offset="100%" stop-color="#4fa886" stop-opacity="0"/></radialGradient></defs><circle cx="408" cy="431" r="335" fill="url(#g)"/><g opacity="1.00" transform="translate(-90,-120) scale(0.92) rotate(5.06 600 460)"><path d="M206,229 L814,229" stroke="#f1f6f4" stroke-width="13.2" opacity=".32" fill="none" stroke-linecap="round"/><path class="fl" d="M206,229 L814,229" stroke="#4fa886" stroke-width="6.1" fill="none" stroke-dasharray="29 63" stroke-linecap="round" style="animation-delay:0.00s"/><path d="M161,284 L838,284" stroke="#f1f6f4" stroke-width="14.0" opacity=".32" fill="none" stroke-linecap="round"/><path class="fl" d="M161,284 L838,284" stroke="#4fa886" stroke-width="5.6" fill="none" stroke-dasharray="22 84" stroke-linecap="round" style="animation-delay:0.13s"/><path d="M243,339 L854,339" stroke="#f1f6f4" stroke-width="11.3" opacity=".32" fill="none" stroke-linecap="round"/><path class="fl" d="M243,339 L854,339" stroke="#4fa886" stroke-width="6.6" fill="none" stroke-dasharray="26 67" stroke-linecap="round" style="animation-delay:0.26s"/><path d="M173,394 L669,394" stroke="#f1f6f4" stroke-width="15.8" opacity=".32" fill="none" stroke-linecap="round"/><path class="fl" d="M173,394 L669,394" stroke="#4fa886" stroke-width="5.8" fill="none" stroke-dasharray="23 103" stroke-linecap="round" style="animation-delay:0.39s"/><path d="M244,449 L875,449" stroke="#f1f6f4" stroke-width="9.0" opacity=".32" fill="none" stroke-linecap="round"/><path class="fl" d="M244,449 L875,449" stroke="#4fa886" stroke-width="4.6" fill="none" stroke-dasharray="29 72" stroke-linecap="round" style="animation-delay:0.52s"/><path d="M250,504 L689,504" stroke="#f1f6f4" stroke-width="16.0" opacity=".32" fill="none" stroke-linecap="round"/><path class="fl" d="M250,504 L689,504" stroke="#4fa886" stroke-width="4.4" fill="none" stroke-dasharray="16 82" stroke-linecap="round" style="animation-delay:0.66s"/><path d="M184,560 L740,560" stroke="#f1f6f4" stroke-width="13.2" opacity=".32" fill="none" stroke-linecap="round"/><path class="fl" d="M184,560 L740,560" stroke="#4fa886" stroke-width="8.0" fill="none" stroke-dasharray="16 92" stroke-linecap="round" style="animation-delay:0.79s"/><path d="M172,615 L733,615" stroke="#f1f6f4" stroke-width="10.4" opacity=".32" fill="none" stroke-linecap="round"/><path class="fl" d="M172,615 L733,615" stroke="#4fa886" stroke-width="5.1" fill="none" stroke-dasharray="23 61" stroke-linecap="round" style="animation-delay:0.92s"/><path d="M156,670 L735,670" stroke="#f1f6f4" stroke-width="12.2" opacity=".32" fill="none" stroke-linecap="round"/><path class="fl" d="M156,670 L735,670" stroke="#4fa886" stroke-width="4.6" fill="none" stroke-dasharray="23 69" stroke-linecap="round" style="animation-delay:1.05s"/><path d="M264,725 L858,725" stroke="#f1f6f4" stroke-width="16.6" opacity=".32" fill="none" stroke-linecap="round"/><path class="fl" d="M264,725 L858,725" stroke="#4fa886" stroke-width="6.0" fill="none" stroke-dasharray="27 109" stroke-linecap="round" style="animation-delay:1.18s"/></g><g opacity="0.74" transform="translate(0,0) scale(0.76) rotate(8.06 600 460)"><path d="M206,229 L814,229" stroke="#f1f6f4" stroke-width="13.2" opacity=".32" fill="none" stroke-linecap="round"/><path class="fl" d="M206,229 L814,229" stroke="#4fa886" stroke-width="6.1" fill="none" stroke-dasharray="29 63" stroke-linecap="round" style="animation-delay:0.00s"/><path d="M161,284 L838,284" stroke="#f1f6f4" stroke-width="14.0" opacity=".32" fill="none" stroke-linecap="round"/><path class="fl" d="M161,284 L838,284" stroke="#4fa886" stroke-width="5.6" fill="none" stroke-dasharray="22 84" stroke-linecap="round" style="animation-delay:0.13s"/><path d="M243,339 L854,339" stroke="#f1f6f4" stroke-width="11.3" opacity=".32" fill="none" stroke-linecap="round"/><path class="fl" d="M243,339 L854,339" stroke="#4fa886" stroke-width="6.6" fill="none" stroke-dasharray="26 67" stroke-linecap="round" style="animation-delay:0.26s"/><path d="M173,394 L669,394" stroke="#f1f6f4" stroke-width="15.8" opacity=".32" fill="none" stroke-linecap="round"/><path class="fl" d="M173,394 L669,394" stroke="#4fa886" stroke-width="5.8" fill="none" stroke-dasharray="23 103" stroke-linecap="round" style="animation-delay:0.39s"/><path d="M244,449 L875,449" stroke="#f1f6f4" stroke-width="9.0" opacity=".32" fill="none" stroke-linecap="round"/><path class="fl" d="M244,449 L875,449" stroke="#4fa886" stroke-width="4.6" fill="none" stroke-dasharray="29 72" stroke-linecap="round" style="animation-delay:0.52s"/><path d="M250,504 L689,504" stroke="#f1f6f4" stroke-width="16.0" opacity=".32" fill="none" stroke-linecap="round"/><path class="fl" d="M250,504 L689,504" stroke="#4fa886" stroke-width="4.4" fill="none" stroke-dasharray="16 82" stroke-linecap="round" style="animation-delay:0.66s"/><path d="M184,560 L740,560" stroke="#f1f6f4" stroke-width="13.2" opacity=".32" fill="none" stroke-linecap="round"/><path class="fl" d="M184,560 L740,560" stroke="#4fa886" stroke-width="8.0" fill="none" stroke-dasharray="16 92" stroke-linecap="round" style="animation-delay:0.79s"/><path d="M172,615 L733,615" stroke="#f1f6f4" stroke-width="10.4" opacity=".32" fill="none" stroke-linecap="round"/><path class="fl" d="M172,615 L733,615" stroke="#4fa886" stroke-width="5.1" fill="none" stroke-dasharray="23 61" stroke-linecap="round" style="animation-delay:0.92s"/><path d="M156,670 L735,670" stroke="#f1f6f4" stroke-width="12.2" opacity=".32" fill="none" stroke-linecap="round"/><path class="fl" d="M156,670 L735,670" stroke="#4fa886" stroke-width="4.6" fill="none" stroke-dasharray="23 69" stroke-linecap="round" style="animation-delay:1.05s"/><path d="M264,725 L858,725" stroke="#f1f6f4" stroke-width="16.6" opacity=".32" fill="none" stroke-linecap="round"/><path class="fl" d="M264,725 L858,725" stroke="#4fa886" stroke-width="6.0" fill="none" stroke-dasharray="27 109" stroke-linecap="round" style="animation-delay:1.18s"/></g><g opacity="0.48" transform="translate(90,120) scale(0.60) rotate(11.06 600 460)"><path d="M206,229 L814,229" stroke="#f1f6f4" stroke-width="13.2" opacity=".32" fill="none" stroke-linecap="round"/><path class="fl" d="M206,229 L814,229" stroke="#4fa886" stroke-width="6.1" fill="none" stroke-dasharray="29 63" stroke-linecap="round" style="animation-delay:0.00s"/><path d="M161,284 L838,284" stroke="#f1f6f4" stroke-width="14.0" opacity=".32" fill="none" stroke-linecap="round"/><path class="fl" d="M161,284 L838,284" stroke="#4fa886" stroke-width="5.6" fill="none" stroke-dasharray="22 84" stroke-linecap="round" style="animation-delay:0.13s"/><path d="M243,339 L854,339" stroke="#f1f6f4" stroke-width="11.3" opacity=".32" fill="none" stroke-linecap="round"/><path class="fl" d="M243,339 L854,339" stroke="#4fa886" stroke-width="6.6" fill="none" stroke-dasharray="26 67" stroke-linecap="round" style="animation-delay:0.26s"/><path d="M173,394 L669,394" stroke="#f1f6f4" stroke-width="15.8" opacity=".32" fill="none" stroke-linecap="round"/><path class="fl" d="M173,394 L669,394" stroke="#4fa886" stroke-width="5.8" fill="none" stroke-dasharray="23 103" stroke-linecap="round" style="animation-delay:0.39s"/><path d="M244,449 L875,449" stroke="#f1f6f4" stroke-width="9.0" opacity=".32" fill="none" stroke-linecap="round"/><path class="fl" d="M244,449 L875,449" stroke="#4fa886" stroke-width="4.6" fill="none" stroke-dasharray="29 72" stroke-linecap="round" style="animation-delay:0.52s"/><path d="M250,504 L689,504" stroke="#f1f6f4" stroke-width="16.0" opacity=".32" fill="none" stroke-linecap="round"/><path class="fl" d="M250,504 L689,504" stroke="#4fa886" stroke-width="4.4" fill="none" stroke-dasharray="16 82" stroke-linecap="round" style="animation-delay:0.66s"/><path d="M184,560 L740,560" stroke="#f1f6f4" stroke-width="13.2" opacity=".32" fill="none" stroke-linecap="round"/><path class="fl" d="M184,560 L740,560" stroke="#4fa886" stroke-width="8.0" fill="none" stroke-dasharray="16 92" stroke-linecap="round" style="animation-delay:0.79s"/><path d="M172,615 L733,615" stroke="#f1f6f4" stroke-width="10.4" opacity=".32" fill="none" stroke-linecap="round"/><path class="fl" d="M172,615 L733,615" stroke="#4fa886" stroke-width="5.1" fill="none" stroke-dasharray="23 61" stroke-linecap="round" style="animation-delay:0.92s"/><path d="M156,670 L735,670" stroke="#f1f6f4" stroke-width="12.2" opacity=".32" fill="none" stroke-linecap="round"/><path class="fl" d="M156,670 L735,670" stroke="#4fa886" stroke-width="4.6" fill="none" stroke-dasharray="23 69" stroke-linecap="round" style="animation-delay:1.05s"/><path d="M264,725 L858,725" stroke="#f1f6f4" stroke-width="16.6" opacity=".32" fill="none" stroke-linecap="round"/><path class="fl" d="M264,725 L858,725" stroke="#4fa886" stroke-width="6.0" fill="none" stroke-dasharray="27 109" stroke-linecap="round" style="animation-delay:1.18s"/></g></svg>