<svg xmlns="http://www.w3.org/2000/svg" viewBox="60 235 1200 445" width="1200" height="445" preserveAspectRatio="xMidYMid slice" role="img" aria-label="gable roof with shingle courses"><defs><radialGradient id="glow"><stop offset="0%" stop-color="#c34231" stop-opacity=".20"/><stop offset="100%" stop-color="#c34231" stop-opacity="0"/></radialGradient></defs><style>.dw{stroke-dasharray:100;stroke-dashoffset:100;animation:dw 12.51s ease-in-out infinite}@keyframes dw{0%{stroke-dashoffset:100}24%{stroke-dashoffset:0}84%{stroke-dashoffset:0;opacity:1}95%{stroke-dashoffset:0;opacity:0}100%{stroke-dashoffset:100;opacity:0}}.tab{opacity:0;animation:tb 12.51s ease-in-out infinite}@keyframes tb{0%,18%{opacity:0}34%{opacity:.28}84%{opacity:.28}95%,100%{opacity:0}}@media (prefers-reduced-motion: reduce){*{animation:none!important}.dw{stroke-dashoffset:0!important}[class]{opacity:1!important}}</style><rect width="1200" height="900" fill="#141518"/><line x1="0" y1="0" x2="0" y2="900" stroke="#f4f3f0" stroke-width="1" opacity=".028"/><line x1="60" y1="0" x2="60" y2="900" stroke="#f4f3f0" stroke-width="1" opacity=".028"/><line x1="120" y1="0" x2="120" y2="900" stroke="#f4f3f0" stroke-width="1" opacity=".028"/><line x1="180" y1="0" x2="180" y2="900" stroke="#f4f3f0" stroke-width="1" opacity=".028"/><line x1="240" y1="0" x2="240" y2="900" stroke="#f4f3f0" stroke-width="1" opacity=".028"/><line x1="300" y1="0" x2="300" y2="900" stroke="#f4f3f0" stroke-width="1" opacity=".028"/><line x1="360" y1="0" x2="360" y2="900" stroke="#f4f3f0" stroke-width="1" opacity=".028"/><line x1="420" y1="0" x2="420" y2="900" stroke="#f4f3f0" stroke-width="1" opacity=".028"/><line x1="480" y1="0" x2="480" y2="900" stroke="#f4f3f0" stroke-width="1" opacity=".028"/><line x1="540" y1="0" x2="540" y2="900" stroke="#f4f3f0" stroke-width="1" opacity=".028"/><line x1="600" y1="0" x2="600" y2="900" stroke="#f4f3f0" stroke-width="1" opacity=".028"/><line x1="660" y1="0" x2="660" y2="900" stroke="#f4f3f0" stroke-width="1" opacity=".028"/><line x1="720" y1="0" x2="720" y2="900" stroke="#f4f3f0" stroke-width="1" opacity=".028"/><line x1="780" y1="0" x2="780" y2="900" stroke="#f4f3f0" stroke-width="1" opacity=".028"/><line x1="840" y1="0" x2="840" y2="900" stroke="#f4f3f0" stroke-width="1" opacity=".028"/><line x1="900" y1="0" x2="900" y2="900" stroke="#f4f3f0" stroke-width="1" opacity=".028"/><line x1="960" y1="0" x2="960" y2="900" stroke="#f4f3f0" stroke-width="1" opacity=".028"/><line x1="1020" y1="0" x2="1020" y2="900" stroke="#f4f3f0" stroke-width="1" opacity=".028"/><line x1="1080" y1="0" x2="1080" y2="900" stroke="#f4f3f0" stroke-width="1" opacity=".028"/><line x1="1140" y1="0" x2="1140" y2="900" stroke="#f4f3f0" stroke-width="1" opacity=".028"/><line x1="1200" y1="0" x2="1200" y2="900" stroke="#f4f3f0" stroke-width="1" opacity=".028"/><line x1="0" y1="0" x2="1200" y2="0" stroke="#f4f3f0" stroke-width="1" opacity=".028"/><line x1="0" y1="60" x2="1200" y2="60" stroke="#f4f3f0" stroke-width="1" opacity=".028"/><line x1="0" y1="120" x2="1200" y2="120" stroke="#f4f3f0" stroke-width="1" opacity=".028"/><line x1="0" y1="180" x2="1200" y2="180" stroke="#f4f3f0" stroke-width="1" opacity=".028"/><line x1="0" y1="240" x2="1200" y2="240" stroke="#f4f3f0" stroke-width="1" opacity=".028"/><line x1="0" y1="300" x2="1200" y2="300" stroke="#f4f3f0" stroke-width="1" opacity=".028"/><line x1="0" y1="360" x2="1200" y2="360" stroke="#f4f3f0" stroke-width="1" opacity=".028"/><line x1="0" y1="420" x2="1200" y2="420" stroke="#f4f3f0" stroke-width="1" opacity=".028"/><line x1="0" y1="480" x2="1200" y2="480" stroke="#f4f3f0" stroke-width="1" opacity=".028"/><line x1="0" y1="540" x2="1200" y2="540" stroke="#f4f3f0" stroke-width="1" opacity=".028"/><line x1="0" y1="600" x2="1200" y2="600" stroke="#f4f3f0" stroke-width="1" opacity=".028"/><line x1="0" y1="660" x2="1200" y2="660" stroke="#f4f3f0" stroke-width="1" opacity=".028"/><line x1="0" y1="720" x2="1200" y2="720" stroke="#f4f3f0" stroke-width="1" opacity=".028"/><line x1="0" y1="780" x2="1200" y2="780" stroke="#f4f3f0" stroke-width="1" opacity=".028"/><line x1="0" y1="840" x2="1200" y2="840" stroke="#f4f3f0" stroke-width="1" opacity=".028"/><line x1="0" y1="900" x2="1200" y2="900" stroke="#f4f3f0" stroke-width="1" opacity=".028"/><ellipse cx="768" cy="455" rx="430" ry="330" fill="url(#glow)"/><path class="dw" d="M314,621 L1102,621" pathLength="100" stroke="#f4f3f0" stroke-width="5" fill="none" opacity=".5" style="animation-delay:0s"/><path class="dw" d="M388,600 L1028,600" pathLength="100" stroke="#c34231" stroke-width="3.5" fill="none" opacity="0.85" style="animation-delay:0.50s"/><line class="tab" x1="388" y1="600" x2="388" y2="622" stroke="#c34231" stroke-width="1.4" opacity=".28" style="animation-delay:0.70s"/><line class="tab" x1="495" y1="600" x2="495" y2="622" stroke="#c34231" stroke-width="1.4" opacity=".28" style="animation-delay:0.70s"/><line class="tab" x1="601" y1="600" x2="601" y2="622" stroke="#c34231" stroke-width="1.4" opacity=".28" style="animation-delay:0.70s"/><line class="tab" x1="708" y1="600" x2="708" y2="622" stroke="#c34231" stroke-width="1.4" opacity=".28" style="animation-delay:0.70s"/><line class="tab" x1="815" y1="600" x2="815" y2="622" stroke="#c34231" stroke-width="1.4" opacity=".28" style="animation-delay:0.70s"/><line class="tab" x1="921" y1="600" x2="921" y2="622" stroke="#c34231" stroke-width="1.4" opacity=".28" style="animation-delay:0.70s"/><path class="dw" d="M417,579 L999,579" pathLength="100" stroke="#c34231" stroke-width="3.4" fill="none" opacity="0.83" style="animation-delay:0.78s"/><line class="tab" x1="459" y1="579" x2="459" y2="601" stroke="#c34231" stroke-width="1.4" opacity=".28" style="animation-delay:0.97s"/><line class="tab" x1="542" y1="579" x2="542" y2="601" stroke="#c34231" stroke-width="1.4" opacity=".28" style="animation-delay:0.97s"/><line class="tab" x1="625" y1="579" x2="625" y2="601" stroke="#c34231" stroke-width="1.4" opacity=".28" style="animation-delay:0.97s"/><line class="tab" x1="708" y1="579" x2="708" y2="601" stroke="#c34231" stroke-width="1.4" opacity=".28" style="animation-delay:0.97s"/><line class="tab" x1="791" y1="579" x2="791" y2="601" stroke="#c34231" stroke-width="1.4" opacity=".28" style="animation-delay:0.97s"/><line class="tab" x1="874" y1="579" x2="874" y2="601" stroke="#c34231" stroke-width="1.4" opacity=".28" style="animation-delay:0.97s"/><line class="tab" x1="957" y1="579" x2="957" y2="601" stroke="#c34231" stroke-width="1.4" opacity=".28" style="animation-delay:0.97s"/><path class="dw" d="M446,559 L970,559" pathLength="100" stroke="#c34231" stroke-width="3.2" fill="none" opacity="0.81" style="animation-delay:1.05s"/><line class="tab" x1="446" y1="559" x2="446" y2="581" stroke="#c34231" stroke-width="1.4" opacity=".28" style="animation-delay:1.25s"/><line class="tab" x1="512" y1="559" x2="512" y2="581" stroke="#c34231" stroke-width="1.4" opacity=".28" style="animation-delay:1.25s"/><line class="tab" x1="577" y1="559" x2="577" y2="581" stroke="#c34231" stroke-width="1.4" opacity=".28" style="animation-delay:1.25s"/><line class="tab" x1="643" y1="559" x2="643" y2="581" stroke="#c34231" stroke-width="1.4" opacity=".28" style="animation-delay:1.25s"/><line class="tab" x1="708" y1="559" x2="708" y2="581" stroke="#c34231" stroke-width="1.4" opacity=".28" style="animation-delay:1.25s"/><line class="tab" x1="773" y1="559" x2="773" y2="581" stroke="#c34231" stroke-width="1.4" opacity=".28" style="animation-delay:1.25s"/><line class="tab" x1="839" y1="559" x2="839" y2="581" stroke="#c34231" stroke-width="1.4" opacity=".28" style="animation-delay:1.25s"/><line class="tab" x1="904" y1="559" x2="904" y2="581" stroke="#c34231" stroke-width="1.4" opacity=".28" style="animation-delay:1.25s"/><path class="dw" d="M475,538 L941,538" pathLength="100" stroke="#c34231" stroke-width="3.1" fill="none" opacity="0.78" style="animation-delay:1.33s"/><line class="tab" x1="501" y1="538" x2="501" y2="560" stroke="#c34231" stroke-width="1.4" opacity=".28" style="animation-delay:1.52s"/><line class="tab" x1="553" y1="538" x2="553" y2="560" stroke="#c34231" stroke-width="1.4" opacity=".28" style="animation-delay:1.52s"/><line class="tab" x1="605" y1="538" x2="605" y2="560" stroke="#c34231" stroke-width="1.4" opacity=".28" style="animation-delay:1.52s"/><line class="tab" x1="656" y1="538" x2="656" y2="560" stroke="#c34231" stroke-width="1.4" opacity=".28" style="animation-delay:1.52s"/><line class="tab" x1="708" y1="538" x2="708" y2="560" stroke="#c34231" stroke-width="1.4" opacity=".28" style="animation-delay:1.52s"/><line class="tab" x1="760" y1="538" x2="760" y2="560" stroke="#c34231" stroke-width="1.4" opacity=".28" style="animation-delay:1.52s"/><line class="tab" x1="811" y1="538" x2="811" y2="560" stroke="#c34231" stroke-width="1.4" opacity=".28" style="animation-delay:1.52s"/><line class="tab" x1="863" y1="538" x2="863" y2="560" stroke="#c34231" stroke-width="1.4" opacity=".28" style="animation-delay:1.52s"/><line class="tab" x1="915" y1="538" x2="915" y2="560" stroke="#c34231" stroke-width="1.4" opacity=".28" style="animation-delay:1.52s"/><path class="dw" d="M504,517 L912,517" pathLength="100" stroke="#c34231" stroke-width="3.0" fill="none" opacity="0.76" style="animation-delay:1.60s"/><line class="tab" x1="504" y1="517" x2="504" y2="539" stroke="#c34231" stroke-width="1.4" opacity=".28" style="animation-delay:1.80s"/><line class="tab" x1="545" y1="517" x2="545" y2="539" stroke="#c34231" stroke-width="1.4" opacity=".28" style="animation-delay:1.80s"/><line class="tab" x1="586" y1="517" x2="586" y2="539" stroke="#c34231" stroke-width="1.4" opacity=".28" style="animation-delay:1.80s"/><line class="tab" x1="627" y1="517" x2="627" y2="539" stroke="#c34231" stroke-width="1.4" opacity=".28" style="animation-delay:1.80s"/><line class="tab" x1="667" y1="517" x2="667" y2="539" stroke="#c34231" stroke-width="1.4" opacity=".28" style="animation-delay:1.80s"/><line class="tab" x1="708" y1="517" x2="708" y2="539" stroke="#c34231" stroke-width="1.4" opacity=".28" style="animation-delay:1.80s"/><line class="tab" x1="749" y1="517" x2="749" y2="539" stroke="#c34231" stroke-width="1.4" opacity=".28" style="animation-delay:1.80s"/><line class="tab" x1="789" y1="517" x2="789" y2="539" stroke="#c34231" stroke-width="1.4" opacity=".28" style="animation-delay:1.80s"/><line class="tab" x1="830" y1="517" x2="830" y2="539" stroke="#c34231" stroke-width="1.4" opacity=".28" style="animation-delay:1.80s"/><line class="tab" x1="871" y1="517" x2="871" y2="539" stroke="#c34231" stroke-width="1.4" opacity=".28" style="animation-delay:1.80s"/><path class="dw" d="M533,497 L883,497" pathLength="100" stroke="#c34231" stroke-width="2.9" fill="none" opacity="0.73" style="animation-delay:1.88s"/><line class="tab" x1="549" y1="497" x2="549" y2="519" stroke="#c34231" stroke-width="1.4" opacity=".28" style="animation-delay:2.08s"/><line class="tab" x1="581" y1="497" x2="581" y2="519" stroke="#c34231" stroke-width="1.4" opacity=".28" style="animation-delay:2.08s"/><line class="tab" x1="613" y1="497" x2="613" y2="519" stroke="#c34231" stroke-width="1.4" opacity=".28" style="animation-delay:2.08s"/><line class="tab" x1="645" y1="497" x2="645" y2="519" stroke="#c34231" stroke-width="1.4" opacity=".28" style="animation-delay:2.08s"/><line class="tab" x1="676" y1="497" x2="676" y2="519" stroke="#c34231" stroke-width="1.4" opacity=".28" style="animation-delay:2.08s"/><line class="tab" x1="708" y1="497" x2="708" y2="519" stroke="#c34231" stroke-width="1.4" opacity=".28" style="animation-delay:2.08s"/><line class="tab" x1="740" y1="497" x2="740" y2="519" stroke="#c34231" stroke-width="1.4" opacity=".28" style="animation-delay:2.08s"/><line class="tab" x1="771" y1="497" x2="771" y2="519" stroke="#c34231" stroke-width="1.4" opacity=".28" style="animation-delay:2.08s"/><line class="tab" x1="803" y1="497" x2="803" y2="519" stroke="#c34231" stroke-width="1.4" opacity=".28" style="animation-delay:2.08s"/><line class="tab" x1="835" y1="497" x2="835" y2="519" stroke="#c34231" stroke-width="1.4" opacity=".28" style="animation-delay:2.08s"/><line class="tab" x1="867" y1="497" x2="867" y2="519" stroke="#c34231" stroke-width="1.4" opacity=".28" style="animation-delay:2.08s"/><path class="dw" d="M563,476 L853,476" pathLength="100" stroke="#c34231" stroke-width="2.7" fill="none" opacity="0.70" style="animation-delay:2.15s"/><line class="tab" x1="563" y1="476" x2="563" y2="498" stroke="#c34231" stroke-width="1.4" opacity=".28" style="animation-delay:2.35s"/><line class="tab" x1="587" y1="476" x2="587" y2="498" stroke="#c34231" stroke-width="1.4" opacity=".28" style="animation-delay:2.35s"/><line class="tab" x1="611" y1="476" x2="611" y2="498" stroke="#c34231" stroke-width="1.4" opacity=".28" style="animation-delay:2.35s"/><line class="tab" x1="635" y1="476" x2="635" y2="498" stroke="#c34231" stroke-width="1.4" opacity=".28" style="animation-delay:2.35s"/><line class="tab" x1="660" y1="476" x2="660" y2="498" stroke="#c34231" stroke-width="1.4" opacity=".28" style="animation-delay:2.35s"/><line class="tab" x1="684" y1="476" x2="684" y2="498" stroke="#c34231" stroke-width="1.4" opacity=".28" style="animation-delay:2.35s"/><line class="tab" x1="708" y1="476" x2="708" y2="498" stroke="#c34231" stroke-width="1.4" opacity=".28" style="animation-delay:2.35s"/><line class="tab" x1="732" y1="476" x2="732" y2="498" stroke="#c34231" stroke-width="1.4" opacity=".28" style="animation-delay:2.35s"/><line class="tab" x1="756" y1="476" x2="756" y2="498" stroke="#c34231" stroke-width="1.4" opacity=".28" style="animation-delay:2.35s"/><line class="tab" x1="781" y1="476" x2="781" y2="498" stroke="#c34231" stroke-width="1.4" opacity=".28" style="animation-delay:2.35s"/><line class="tab" x1="805" y1="476" x2="805" y2="498" stroke="#c34231" stroke-width="1.4" opacity=".28" style="animation-delay:2.35s"/><line class="tab" x1="829" y1="476" x2="829" y2="498" stroke="#c34231" stroke-width="1.4" opacity=".28" style="animation-delay:2.35s"/><path class="dw" d="M592,456 L824,456" pathLength="100" stroke="#c34231" stroke-width="2.6" fill="none" opacity="0.68" style="animation-delay:2.43s"/><line class="tab" x1="601" y1="456" x2="601" y2="478" stroke="#c34231" stroke-width="1.4" opacity=".28" style="animation-delay:2.62s"/><line class="tab" x1="618" y1="456" x2="618" y2="478" stroke="#c34231" stroke-width="1.4" opacity=".28" style="animation-delay:2.62s"/><line class="tab" x1="636" y1="456" x2="636" y2="478" stroke="#c34231" stroke-width="1.4" opacity=".28" style="animation-delay:2.62s"/><line class="tab" x1="654" y1="456" x2="654" y2="478" stroke="#c34231" stroke-width="1.4" opacity=".28" style="animation-delay:2.62s"/><line class="tab" x1="672" y1="456" x2="672" y2="478" stroke="#c34231" stroke-width="1.4" opacity=".28" style="animation-delay:2.62s"/><line class="tab" x1="690" y1="456" x2="690" y2="478" stroke="#c34231" stroke-width="1.4" opacity=".28" style="animation-delay:2.62s"/><line class="tab" x1="708" y1="456" x2="708" y2="478" stroke="#c34231" stroke-width="1.4" opacity=".28" style="animation-delay:2.62s"/><line class="tab" x1="726" y1="456" x2="726" y2="478" stroke="#c34231" stroke-width="1.4" opacity=".28" style="animation-delay:2.62s"/><line class="tab" x1="744" y1="456" x2="744" y2="478" stroke="#c34231" stroke-width="1.4" opacity=".28" style="animation-delay:2.62s"/><line class="tab" x1="762" y1="456" x2="762" y2="478" stroke="#c34231" stroke-width="1.4" opacity=".28" style="animation-delay:2.62s"/><line class="tab" x1="780" y1="456" x2="780" y2="478" stroke="#c34231" stroke-width="1.4" opacity=".28" style="animation-delay:2.62s"/><line class="tab" x1="798" y1="456" x2="798" y2="478" stroke="#c34231" stroke-width="1.4" opacity=".28" style="animation-delay:2.62s"/><line class="tab" x1="815" y1="456" x2="815" y2="478" stroke="#c34231" stroke-width="1.4" opacity=".28" style="animation-delay:2.62s"/><path class="dw" d="M621,435 L795,435" pathLength="100" stroke="#c34231" stroke-width="2.5" fill="none" opacity="0.66" style="animation-delay:2.70s"/><line class="tab" x1="621" y1="435" x2="621" y2="457" stroke="#c34231" stroke-width="1.4" opacity=".28" style="animation-delay:2.90s"/><line class="tab" x1="633" y1="435" x2="633" y2="457" stroke="#c34231" stroke-width="1.4" opacity=".28" style="animation-delay:2.90s"/><line class="tab" x1="646" y1="435" x2="646" y2="457" stroke="#c34231" stroke-width="1.4" opacity=".28" style="animation-delay:2.90s"/><line class="tab" x1="658" y1="435" x2="658" y2="457" stroke="#c34231" stroke-width="1.4" opacity=".28" style="animation-delay:2.90s"/><line class="tab" x1="671" y1="435" x2="671" y2="457" stroke="#c34231" stroke-width="1.4" opacity=".28" style="animation-delay:2.90s"/><line class="tab" x1="683" y1="435" x2="683" y2="457" stroke="#c34231" stroke-width="1.4" opacity=".28" style="animation-delay:2.90s"/><line class="tab" x1="696" y1="435" x2="696" y2="457" stroke="#c34231" stroke-width="1.4" opacity=".28" style="animation-delay:2.90s"/><line class="tab" x1="708" y1="435" x2="708" y2="457" stroke="#c34231" stroke-width="1.4" opacity=".28" style="animation-delay:2.90s"/><line class="tab" x1="720" y1="435" x2="720" y2="457" stroke="#c34231" stroke-width="1.4" opacity=".28" style="animation-delay:2.90s"/><line class="tab" x1="733" y1="435" x2="733" y2="457" stroke="#c34231" stroke-width="1.4" opacity=".28" style="animation-delay:2.90s"/><line class="tab" x1="745" y1="435" x2="745" y2="457" stroke="#c34231" stroke-width="1.4" opacity=".28" style="animation-delay:2.90s"/><line class="tab" x1="758" y1="435" x2="758" y2="457" stroke="#c34231" stroke-width="1.4" opacity=".28" style="animation-delay:2.90s"/><line class="tab" x1="770" y1="435" x2="770" y2="457" stroke="#c34231" stroke-width="1.4" opacity=".28" style="animation-delay:2.90s"/><line class="tab" x1="783" y1="435" x2="783" y2="457" stroke="#c34231" stroke-width="1.4" opacity=".28" style="animation-delay:2.90s"/><path class="dw" d="M650,414 L766,414" pathLength="100" stroke="#c34231" stroke-width="2.4" fill="none" opacity="0.63" style="animation-delay:2.98s"/><line class="tab" x1="654" y1="414" x2="654" y2="436" stroke="#c34231" stroke-width="1.4" opacity=".28" style="animation-delay:3.17s"/><line class="tab" x1="661" y1="414" x2="661" y2="436" stroke="#c34231" stroke-width="1.4" opacity=".28" style="animation-delay:3.17s"/><line class="tab" x1="669" y1="414" x2="669" y2="436" stroke="#c34231" stroke-width="1.4" opacity=".28" style="animation-delay:3.17s"/><line class="tab" x1="677" y1="414" x2="677" y2="436" stroke="#c34231" stroke-width="1.4" opacity=".28" style="animation-delay:3.17s"/><line class="tab" x1="685" y1="414" x2="685" y2="436" stroke="#c34231" stroke-width="1.4" opacity=".28" style="animation-delay:3.17s"/><line class="tab" x1="692" y1="414" x2="692" y2="436" stroke="#c34231" stroke-width="1.4" opacity=".28" style="animation-delay:3.17s"/><line class="tab" x1="700" y1="414" x2="700" y2="436" stroke="#c34231" stroke-width="1.4" opacity=".28" style="animation-delay:3.17s"/><line class="tab" x1="708" y1="414" x2="708" y2="436" stroke="#c34231" stroke-width="1.4" opacity=".28" style="animation-delay:3.17s"/><line class="tab" x1="716" y1="414" x2="716" y2="436" stroke="#c34231" stroke-width="1.4" opacity=".28" style="animation-delay:3.17s"/><line class="tab" x1="724" y1="414" x2="724" y2="436" stroke="#c34231" stroke-width="1.4" opacity=".28" style="animation-delay:3.17s"/><line class="tab" x1="731" y1="414" x2="731" y2="436" stroke="#c34231" stroke-width="1.4" opacity=".28" style="animation-delay:3.17s"/><line class="tab" x1="739" y1="414" x2="739" y2="436" stroke="#c34231" stroke-width="1.4" opacity=".28" style="animation-delay:3.17s"/><line class="tab" x1="747" y1="414" x2="747" y2="436" stroke="#c34231" stroke-width="1.4" opacity=".28" style="animation-delay:3.17s"/><line class="tab" x1="755" y1="414" x2="755" y2="436" stroke="#c34231" stroke-width="1.4" opacity=".28" style="animation-delay:3.17s"/><line class="tab" x1="762" y1="414" x2="762" y2="436" stroke="#c34231" stroke-width="1.4" opacity=".28" style="animation-delay:3.17s"/><path class="dw" d="M679,394 L737,394" pathLength="100" stroke="#c34231" stroke-width="2.2" fill="none" opacity="0.60" style="animation-delay:3.25s"/><line class="tab" x1="679" y1="394" x2="679" y2="416" stroke="#c34231" stroke-width="1.4" opacity=".28" style="animation-delay:3.45s"/><line class="tab" x1="683" y1="394" x2="683" y2="416" stroke="#c34231" stroke-width="1.4" opacity=".28" style="animation-delay:3.45s"/><line class="tab" x1="686" y1="394" x2="686" y2="416" stroke="#c34231" stroke-width="1.4" opacity=".28" style="animation-delay:3.45s"/><line class="tab" x1="690" y1="394" x2="690" y2="416" stroke="#c34231" stroke-width="1.4" opacity=".28" style="animation-delay:3.45s"/><line class="tab" x1="693" y1="394" x2="693" y2="416" stroke="#c34231" stroke-width="1.4" opacity=".28" style="animation-delay:3.45s"/><line class="tab" x1="697" y1="394" x2="697" y2="416" stroke="#c34231" stroke-width="1.4" opacity=".28" style="animation-delay:3.45s"/><line class="tab" x1="701" y1="394" x2="701" y2="416" stroke="#c34231" stroke-width="1.4" opacity=".28" style="animation-delay:3.45s"/><line class="tab" x1="704" y1="394" x2="704" y2="416" stroke="#c34231" stroke-width="1.4" opacity=".28" style="animation-delay:3.45s"/><line class="tab" x1="708" y1="394" x2="708" y2="416" stroke="#c34231" stroke-width="1.4" opacity=".28" style="animation-delay:3.45s"/><line class="tab" x1="712" y1="394" x2="712" y2="416" stroke="#c34231" stroke-width="1.4" opacity=".28" style="animation-delay:3.45s"/><line class="tab" x1="715" y1="394" x2="715" y2="416" stroke="#c34231" stroke-width="1.4" opacity=".28" style="animation-delay:3.45s"/><line class="tab" x1="719" y1="394" x2="719" y2="416" stroke="#c34231" stroke-width="1.4" opacity=".28" style="animation-delay:3.45s"/><line class="tab" x1="723" y1="394" x2="723" y2="416" stroke="#c34231" stroke-width="1.4" opacity=".28" style="animation-delay:3.45s"/><line class="tab" x1="726" y1="394" x2="726" y2="416" stroke="#c34231" stroke-width="1.4" opacity=".28" style="animation-delay:3.45s"/><line class="tab" x1="730" y1="394" x2="730" y2="416" stroke="#c34231" stroke-width="1.4" opacity=".28" style="animation-delay:3.45s"/><line class="tab" x1="733" y1="394" x2="733" y2="416" stroke="#c34231" stroke-width="1.4" opacity=".28" style="animation-delay:3.45s"/><path class="dw" d="M359,621 L708,373 L1057,621" pathLength="100" stroke="#f4f3f0" stroke-width="5.5" fill="none" style="animation-delay:0.20s"/></svg>