<svg xmlns="http://www.w3.org/2000/svg" viewBox="0 0 1200 900" width="1200" height="900" role="img" aria-label="Layered pattern"><defs></defs><style>.bar{animation:bd 6.5s ease-in-out infinite}@keyframes bd{0%,100%{transform:translateX(-16px);opacity:.5}50%{transform:translateX(16px);opacity:1}}@media (prefers-reduced-motion: reduce){*{animation:none!important}.dw{stroke-dashoffset:0!important}.fin{opacity:1!important}}</style><rect width="1200" height="900" fill="#132018"/><line x1="0" y1="0" x2="0" y2="900" stroke="#f4f3f0" stroke-width="1" opacity="0.035"/><line x1="50" y1="0" x2="50" y2="900" stroke="#f4f3f0" stroke-width="1" opacity="0.035"/><line x1="100" y1="0" x2="100" y2="900" stroke="#f4f3f0" stroke-width="1" opacity="0.035"/><line x1="150" y1="0" x2="150" y2="900" stroke="#f4f3f0" stroke-width="1" opacity="0.035"/><line x1="200" y1="0" x2="200" y2="900" stroke="#f4f3f0" stroke-width="1" opacity="0.035"/><line x1="250" y1="0" x2="250" y2="900" stroke="#f4f3f0" stroke-width="1" opacity="0.035"/><line x1="300" y1="0" x2="300" y2="900" stroke="#f4f3f0" stroke-width="1" opacity="0.035"/><line x1="350" y1="0" x2="350" y2="900" stroke="#f4f3f0" stroke-width="1" opacity="0.035"/><line x1="400" y1="0" x2="400" y2="900" stroke="#f4f3f0" stroke-width="1" opacity="0.035"/><line x1="450" y1="0" x2="450" y2="900" stroke="#f4f3f0" stroke-width="1" opacity="0.035"/><line x1="500" y1="0" x2="500" y2="900" stroke="#f4f3f0" stroke-width="1" opacity="0.035"/><line x1="550" y1="0" x2="550" y2="900" stroke="#f4f3f0" stroke-width="1" opacity="0.035"/><line x1="600" y1="0" x2="600" y2="900" stroke="#f4f3f0" stroke-width="1" opacity="0.035"/><line x1="650" y1="0" x2="650" y2="900" stroke="#f4f3f0" stroke-width="1" opacity="0.035"/><line x1="700" y1="0" x2="700" y2="900" stroke="#f4f3f0" stroke-width="1" opacity="0.035"/><line x1="750" y1="0" x2="750" y2="900" stroke="#f4f3f0" stroke-width="1" opacity="0.035"/><line x1="800" y1="0" x2="800" y2="900" stroke="#f4f3f0" stroke-width="1" opacity="0.035"/><line x1="850" y1="0" x2="850" y2="900" stroke="#f4f3f0" stroke-width="1" opacity="0.035"/><line x1="900" y1="0" x2="900" y2="900" stroke="#f4f3f0" stroke-width="1" opacity="0.035"/><line x1="950" y1="0" x2="950" y2="900" stroke="#f4f3f0" stroke-width="1" opacity="0.035"/><line x1="1000" y1="0" x2="1000" y2="900" stroke="#f4f3f0" stroke-width="1" opacity="0.035"/><line x1="1050" y1="0" x2="1050" y2="900" stroke="#f4f3f0" stroke-width="1" opacity="0.035"/><line x1="1100" y1="0" x2="1100" y2="900" stroke="#f4f3f0" stroke-width="1" opacity="0.035"/><line x1="1150" y1="0" x2="1150" y2="900" stroke="#f4f3f0" stroke-width="1" opacity="0.035"/><line x1="1200" y1="0" x2="1200" y2="900" stroke="#f4f3f0" stroke-width="1" opacity="0.035"/><line x1="0" y1="0" x2="1200" y2="0" stroke="#f4f3f0" stroke-width="1" opacity="0.035"/><line x1="0" y1="50" x2="1200" y2="50" stroke="#f4f3f0" stroke-width="1" opacity="0.035"/><line x1="0" y1="100" x2="1200" y2="100" stroke="#f4f3f0" stroke-width="1" opacity="0.035"/><line x1="0" y1="150" x2="1200" y2="150" stroke="#f4f3f0" stroke-width="1" opacity="0.035"/><line x1="0" y1="200" x2="1200" y2="200" stroke="#f4f3f0" stroke-width="1" opacity="0.035"/><line x1="0" y1="250" x2="1200" y2="250" stroke="#f4f3f0" stroke-width="1" opacity="0.035"/><line x1="0" y1="300" x2="1200" y2="300" stroke="#f4f3f0" stroke-width="1" opacity="0.035"/><line x1="0" y1="350" x2="1200" y2="350" stroke="#f4f3f0" stroke-width="1" opacity="0.035"/><line x1="0" y1="400" x2="1200" y2="400" stroke="#f4f3f0" stroke-width="1" opacity="0.035"/><line x1="0" y1="450" x2="1200" y2="450" stroke="#f4f3f0" stroke-width="1" opacity="0.035"/><line x1="0" y1="500" x2="1200" y2="500" stroke="#f4f3f0" stroke-width="1" opacity="0.035"/><line x1="0" y1="550" x2="1200" y2="550" stroke="#f4f3f0" stroke-width="1" opacity="0.035"/><line x1="0" y1="600" x2="1200" y2="600" stroke="#f4f3f0" stroke-width="1" opacity="0.035"/><line x1="0" y1="650" x2="1200" y2="650" stroke="#f4f3f0" stroke-width="1" opacity="0.035"/><line x1="0" y1="700" x2="1200" y2="700" stroke="#f4f3f0" stroke-width="1" opacity="0.035"/><line x1="0" y1="750" x2="1200" y2="750" stroke="#f4f3f0" stroke-width="1" opacity="0.035"/><line x1="0" y1="800" x2="1200" y2="800" stroke="#f4f3f0" stroke-width="1" opacity="0.035"/><line x1="0" y1="850" x2="1200" y2="850" stroke="#f4f3f0" stroke-width="1" opacity="0.035"/><line x1="0" y1="900" x2="1200" y2="900" stroke="#f4f3f0" stroke-width="1" opacity="0.035"/><rect class="bar" x="229" y="90" width="667" height="46" rx="6" fill="#e7643b" opacity="0.100" style="animation-delay:0.00s"/><rect class="bar" x="271" y="180" width="510" height="46" rx="6" fill="#e7643b" opacity="0.155" style="animation-delay:0.28s"/><rect class="bar" x="208" y="270" width="442" height="46" rx="6" fill="#e7643b" opacity="0.210" style="animation-delay:0.56s"/><rect class="bar" x="238" y="360" width="394" height="46" rx="6" fill="#e7643b" opacity="0.265" style="animation-delay:0.84s"/><rect class="bar" x="243" y="450" width="521" height="46" rx="6" fill="#e7643b" opacity="0.100" style="animation-delay:1.12s"/><rect class="bar" x="271" y="540" width="631" height="46" rx="6" fill="#e7643b" opacity="0.155" style="animation-delay:1.40s"/><rect class="bar" x="190" y="630" width="663" height="46" rx="6" fill="#e7643b" opacity="0.210" style="animation-delay:1.68s"/><rect class="bar" x="207" y="720" width="697" height="46" rx="6" fill="#e7643b" opacity="0.265" style="animation-delay:1.96s"/><rect class="bar" x="246" y="810" width="571" height="46" rx="6" fill="#e7643b" opacity="0.100" style="animation-delay:2.24s"/></svg>