<svg xmlns="http://www.w3.org/2000/svg" viewBox="0 0 1200 900" width="1200" height="900" role="img" aria-label="Concrete stamped"><defs><radialGradient id="glow"><stop offset="0%" stop-color="#8b949b" stop-opacity=".20"/><stop offset="100%" stop-color="#8b949b" stop-opacity="0"/></radialGradient></defs><style>.dw{stroke-dasharray:100;stroke-dashoffset:100;animation:dw 11.92s ease-in-out infinite}@keyframes dw{0%{stroke-dashoffset:100}24%{stroke-dashoffset:0}84%{stroke-dashoffset:0;opacity:1}95%{stroke-dashoffset:0;opacity:0}100%{stroke-dashoffset:100;opacity:0}}.dw2{stroke-dasharray:100;stroke-dashoffset:100;animation:dw 11.92s ease-in-out infinite}@keyframes dw{0%{stroke-dashoffset:100}24%{stroke-dashoffset:0}84%{stroke-dashoffset:0;opacity:1}95%{stroke-dashoffset:0;opacity:0}100%{stroke-dashoffset:100;opacity:0}}.rise{transform-origin:center bottom;animation:rs 11.92s ease-in-out infinite}@keyframes rs{0%,16%{transform:scaleY(0)}48%{transform:scaleY(1)}86%{transform:scaleY(1);opacity:.34}96%,100%{opacity:0}}.sweep{opacity:0;animation:sw 11.92s ease-in-out infinite}@keyframes sw{0%,46%{transform:translateX(0);opacity:0}52%{opacity:1}76%{transform:translateX(780px);opacity:1}84%,100%{opacity:0}}.st{opacity:0;animation:stg 11.92s ease-in-out infinite}@keyframes stg{0%,6%{opacity:0;transform:translateY(-8px)}24%{opacity:1;transform:translateY(0)}84%{opacity:1}95%,100%{opacity:0}}@media (prefers-reduced-motion: reduce){*{animation:none!important}.dw{stroke-dashoffset:0!important}[class]{opacity:1!important}}</style><rect width="1200" height="900" fill="#121416"/><line x1="0" y1="0" x2="0" y2="900" stroke="#f4f5f5" stroke-width="1" opacity=".028"/><line x1="60" y1="0" x2="60" y2="900" stroke="#f4f5f5" stroke-width="1" opacity=".028"/><line x1="120" y1="0" x2="120" y2="900" stroke="#f4f5f5" stroke-width="1" opacity=".028"/><line x1="180" y1="0" x2="180" y2="900" stroke="#f4f5f5" stroke-width="1" opacity=".028"/><line x1="240" y1="0" x2="240" y2="900" stroke="#f4f5f5" stroke-width="1" opacity=".028"/><line x1="300" y1="0" x2="300" y2="900" stroke="#f4f5f5" stroke-width="1" opacity=".028"/><line x1="360" y1="0" x2="360" y2="900" stroke="#f4f5f5" stroke-width="1" opacity=".028"/><line x1="420" y1="0" x2="420" y2="900" stroke="#f4f5f5" stroke-width="1" opacity=".028"/><line x1="480" y1="0" x2="480" y2="900" stroke="#f4f5f5" stroke-width="1" opacity=".028"/><line x1="540" y1="0" x2="540" y2="900" stroke="#f4f5f5" stroke-width="1" opacity=".028"/><line x1="600" y1="0" x2="600" y2="900" stroke="#f4f5f5" stroke-width="1" opacity=".028"/><line x1="660" y1="0" x2="660" y2="900" stroke="#f4f5f5" stroke-width="1" opacity=".028"/><line x1="720" y1="0" x2="720" y2="900" stroke="#f4f5f5" stroke-width="1" opacity=".028"/><line x1="780" y1="0" x2="780" y2="900" stroke="#f4f5f5" stroke-width="1" opacity=".028"/><line x1="840" y1="0" x2="840" y2="900" stroke="#f4f5f5" stroke-width="1" opacity=".028"/><line x1="900" y1="0" x2="900" y2="900" stroke="#f4f5f5" stroke-width="1" opacity=".028"/><line x1="960" y1="0" x2="960" y2="900" stroke="#f4f5f5" stroke-width="1" opacity=".028"/><line x1="1020" y1="0" x2="1020" y2="900" stroke="#f4f5f5" stroke-width="1" opacity=".028"/><line x1="1080" y1="0" x2="1080" y2="900" stroke="#f4f5f5" stroke-width="1" opacity=".028"/><line x1="1140" y1="0" x2="1140" y2="900" stroke="#f4f5f5" stroke-width="1" opacity=".028"/><line x1="1200" y1="0" x2="1200" y2="900" stroke="#f4f5f5" stroke-width="1" opacity=".028"/><line x1="0" y1="0" x2="1200" y2="0" stroke="#f4f5f5" stroke-width="1" opacity=".028"/><line x1="0" y1="60" x2="1200" y2="60" stroke="#f4f5f5" stroke-width="1" opacity=".028"/><line x1="0" y1="120" x2="1200" y2="120" stroke="#f4f5f5" stroke-width="1" opacity=".028"/><line x1="0" y1="180" x2="1200" y2="180" stroke="#f4f5f5" stroke-width="1" opacity=".028"/><line x1="0" y1="240" x2="1200" y2="240" stroke="#f4f5f5" stroke-width="1" opacity=".028"/><line x1="0" y1="300" x2="1200" y2="300" stroke="#f4f5f5" stroke-width="1" opacity=".028"/><line x1="0" y1="360" x2="1200" y2="360" stroke="#f4f5f5" stroke-width="1" opacity=".028"/><line x1="0" y1="420" x2="1200" y2="420" stroke="#f4f5f5" stroke-width="1" opacity=".028"/><line x1="0" y1="480" x2="1200" y2="480" stroke="#f4f5f5" stroke-width="1" opacity=".028"/><line x1="0" y1="540" x2="1200" y2="540" stroke="#f4f5f5" stroke-width="1" opacity=".028"/><line x1="0" y1="600" x2="1200" y2="600" stroke="#f4f5f5" stroke-width="1" opacity=".028"/><line x1="0" y1="660" x2="1200" y2="660" stroke="#f4f5f5" stroke-width="1" opacity=".028"/><line x1="0" y1="720" x2="1200" y2="720" stroke="#f4f5f5" stroke-width="1" opacity=".028"/><line x1="0" y1="780" x2="1200" y2="780" stroke="#f4f5f5" stroke-width="1" opacity=".028"/><line x1="0" y1="840" x2="1200" y2="840" stroke="#f4f5f5" stroke-width="1" opacity=".028"/><line x1="0" y1="900" x2="1200" y2="900" stroke="#f4f5f5" stroke-width="1" opacity=".028"/><ellipse cx="768" cy="455" rx="430" ry="330" fill="url(#glow)"/><rect class="st" x="298" y="274" width="122" height="102" rx="3" fill="#8b949b" opacity="0.18" style="animation-delay:0.00s"/><rect class="st" x="298" y="274" width="122" height="102" rx="3" fill="none" stroke="#8b949b" stroke-width="1.6" opacity=".5" style="animation-delay:0.00s"/><rect class="st" x="428" y="274" width="122" height="102" rx="3" fill="#8b949b" opacity="0.26" style="animation-delay:0.05s"/><rect class="st" x="428" y="274" width="122" height="102" rx="3" fill="none" stroke="#8b949b" stroke-width="1.6" opacity=".5" style="animation-delay:0.05s"/><rect class="st" x="558" y="274" width="122" height="102" rx="3" fill="#8b949b" opacity="0.34" style="animation-delay:0.10s"/><rect class="st" x="558" y="274" width="122" height="102" rx="3" fill="none" stroke="#8b949b" stroke-width="1.6" opacity=".5" style="animation-delay:0.10s"/><rect class="st" x="688" y="274" width="122" height="102" rx="3" fill="#8b949b" opacity="0.18" style="animation-delay:0.15s"/><rect class="st" x="688" y="274" width="122" height="102" rx="3" fill="none" stroke="#8b949b" stroke-width="1.6" opacity=".5" style="animation-delay:0.15s"/><rect class="st" x="818" y="274" width="122" height="102" rx="3" fill="#8b949b" opacity="0.26" style="animation-delay:0.20s"/><rect class="st" x="818" y="274" width="122" height="102" rx="3" fill="none" stroke="#8b949b" stroke-width="1.6" opacity=".5" style="animation-delay:0.20s"/><rect class="st" x="948" y="274" width="122" height="102" rx="3" fill="#8b949b" opacity="0.34" style="animation-delay:0.25s"/><rect class="st" x="948" y="274" width="122" height="102" rx="3" fill="none" stroke="#8b949b" stroke-width="1.6" opacity=".5" style="animation-delay:0.25s"/><rect class="st" x="363" y="384" width="122" height="102" rx="3" fill="#8b949b" opacity="0.26" style="animation-delay:0.30s"/><rect class="st" x="363" y="384" width="122" height="102" rx="3" fill="none" stroke="#8b949b" stroke-width="1.6" opacity=".5" style="animation-delay:0.30s"/><rect class="st" x="493" y="384" width="122" height="102" rx="3" fill="#8b949b" opacity="0.34" style="animation-delay:0.35s"/><rect class="st" x="493" y="384" width="122" height="102" rx="3" fill="none" stroke="#8b949b" stroke-width="1.6" opacity=".5" style="animation-delay:0.35s"/><rect class="st" x="623" y="384" width="122" height="102" rx="3" fill="#8b949b" opacity="0.18" style="animation-delay:0.40s"/><rect class="st" x="623" y="384" width="122" height="102" rx="3" fill="none" stroke="#8b949b" stroke-width="1.6" opacity=".5" style="animation-delay:0.40s"/><rect class="st" x="753" y="384" width="122" height="102" rx="3" fill="#8b949b" opacity="0.26" style="animation-delay:0.45s"/><rect class="st" x="753" y="384" width="122" height="102" rx="3" fill="none" stroke="#8b949b" stroke-width="1.6" opacity=".5" style="animation-delay:0.45s"/><rect class="st" x="883" y="384" width="122" height="102" rx="3" fill="#8b949b" opacity="0.34" style="animation-delay:0.50s"/><rect class="st" x="883" y="384" width="122" height="102" rx="3" fill="none" stroke="#8b949b" stroke-width="1.6" opacity=".5" style="animation-delay:0.50s"/><rect class="st" x="298" y="494" width="122" height="102" rx="3" fill="#8b949b" opacity="0.34" style="animation-delay:0.60s"/><rect class="st" x="298" y="494" width="122" height="102" rx="3" fill="none" stroke="#8b949b" stroke-width="1.6" opacity=".5" style="animation-delay:0.60s"/><rect class="st" x="428" y="494" width="122" height="102" rx="3" fill="#8b949b" opacity="0.18" style="animation-delay:0.65s"/><rect class="st" x="428" y="494" width="122" height="102" rx="3" fill="none" stroke="#8b949b" stroke-width="1.6" opacity=".5" style="animation-delay:0.65s"/><rect class="st" x="558" y="494" width="122" height="102" rx="3" fill="#8b949b" opacity="0.26" style="animation-delay:0.70s"/><rect class="st" x="558" y="494" width="122" height="102" rx="3" fill="none" stroke="#8b949b" stroke-width="1.6" opacity=".5" style="animation-delay:0.70s"/><rect class="st" x="688" y="494" width="122" height="102" rx="3" fill="#8b949b" opacity="0.34" style="animation-delay:0.75s"/><rect class="st" x="688" y="494" width="122" height="102" rx="3" fill="none" stroke="#8b949b" stroke-width="1.6" opacity=".5" style="animation-delay:0.75s"/><rect class="st" x="818" y="494" width="122" height="102" rx="3" fill="#8b949b" opacity="0.18" style="animation-delay:0.80s"/><rect class="st" x="818" y="494" width="122" height="102" rx="3" fill="none" stroke="#8b949b" stroke-width="1.6" opacity=".5" style="animation-delay:0.80s"/><rect class="st" x="948" y="494" width="122" height="102" rx="3" fill="#8b949b" opacity="0.26" style="animation-delay:0.85s"/><rect class="st" x="948" y="494" width="122" height="102" rx="3" fill="none" stroke="#8b949b" stroke-width="1.6" opacity=".5" style="animation-delay:0.85s"/></svg>