<svg xmlns="http://www.w3.org/2000/svg" viewBox="230 145 740 665" width="740" height="665" preserveAspectRatio="xMidYMid slice" role="img" aria-label="Tree drawing itself, spreading habit"><defs><radialGradient id="glow"><stop offset="0%" stop-color="#8fbe3f" stop-opacity=".20"/><stop offset="100%" stop-color="#8fbe3f" stop-opacity="0"/></radialGradient></defs><style>.dw{stroke-dasharray:100;stroke-dashoffset:100;animation:dw 13.75s ease-in-out infinite}@keyframes dw{0%{stroke-dashoffset:100}24%{stroke-dashoffset:0}84%{stroke-dashoffset:0;opacity:1}95%{stroke-dashoffset:0;opacity:0}100%{stroke-dashoffset:100;opacity:0}}.leaf{opacity:0;animation:lf 13.75s ease-in-out infinite}@keyframes lf{0%,30%{opacity:0;transform:scale(.5)}48%{opacity:1;transform:scale(1)}84%{opacity:1}95%,100%{opacity:0}}@media (prefers-reduced-motion: reduce){*{animation:none!important}.dw{stroke-dashoffset:0!important}[class]{opacity:1!important}}</style><rect width="1200" height="900" fill="#15211a"/><line x1="0" y1="0" x2="0" y2="900" stroke="#f4f7f2" stroke-width="1" opacity=".028"/><line x1="60" y1="0" x2="60" y2="900" stroke="#f4f7f2" stroke-width="1" opacity=".028"/><line x1="120" y1="0" x2="120" y2="900" stroke="#f4f7f2" stroke-width="1" opacity=".028"/><line x1="180" y1="0" x2="180" y2="900" stroke="#f4f7f2" stroke-width="1" opacity=".028"/><line x1="240" y1="0" x2="240" y2="900" stroke="#f4f7f2" stroke-width="1" opacity=".028"/><line x1="300" y1="0" x2="300" y2="900" stroke="#f4f7f2" stroke-width="1" opacity=".028"/><line x1="360" y1="0" x2="360" y2="900" stroke="#f4f7f2" stroke-width="1" opacity=".028"/><line x1="420" y1="0" x2="420" y2="900" stroke="#f4f7f2" stroke-width="1" opacity=".028"/><line x1="480" y1="0" x2="480" y2="900" stroke="#f4f7f2" stroke-width="1" opacity=".028"/><line x1="540" y1="0" x2="540" y2="900" stroke="#f4f7f2" stroke-width="1" opacity=".028"/><line x1="600" y1="0" x2="600" y2="900" stroke="#f4f7f2" stroke-width="1" opacity=".028"/><line x1="660" y1="0" x2="660" y2="900" stroke="#f4f7f2" stroke-width="1" opacity=".028"/><line x1="720" y1="0" x2="720" y2="900" stroke="#f4f7f2" stroke-width="1" opacity=".028"/><line x1="780" y1="0" x2="780" y2="900" stroke="#f4f7f2" stroke-width="1" opacity=".028"/><line x1="840" y1="0" x2="840" y2="900" stroke="#f4f7f2" stroke-width="1" opacity=".028"/><line x1="900" y1="0" x2="900" y2="900" stroke="#f4f7f2" stroke-width="1" opacity=".028"/><line x1="960" y1="0" x2="960" y2="900" stroke="#f4f7f2" stroke-width="1" opacity=".028"/><line x1="1020" y1="0" x2="1020" y2="900" stroke="#f4f7f2" stroke-width="1" opacity=".028"/><line x1="1080" y1="0" x2="1080" y2="900" stroke="#f4f7f2" stroke-width="1" opacity=".028"/><line x1="1140" y1="0" x2="1140" y2="900" stroke="#f4f7f2" stroke-width="1" opacity=".028"/><line x1="1200" y1="0" x2="1200" y2="900" stroke="#f4f7f2" stroke-width="1" opacity=".028"/><line x1="0" y1="0" x2="1200" y2="0" stroke="#f4f7f2" stroke-width="1" opacity=".028"/><line x1="0" y1="60" x2="1200" y2="60" stroke="#f4f7f2" stroke-width="1" opacity=".028"/><line x1="0" y1="120" x2="1200" y2="120" stroke="#f4f7f2" stroke-width="1" opacity=".028"/><line x1="0" y1="180" x2="1200" y2="180" stroke="#f4f7f2" stroke-width="1" opacity=".028"/><line x1="0" y1="240" x2="1200" y2="240" stroke="#f4f7f2" stroke-width="1" opacity=".028"/><line x1="0" y1="300" x2="1200" y2="300" stroke="#f4f7f2" stroke-width="1" opacity=".028"/><line x1="0" y1="360" x2="1200" y2="360" stroke="#f4f7f2" stroke-width="1" opacity=".028"/><line x1="0" y1="420" x2="1200" y2="420" stroke="#f4f7f2" stroke-width="1" opacity=".028"/><line x1="0" y1="480" x2="1200" y2="480" stroke="#f4f7f2" stroke-width="1" opacity=".028"/><line x1="0" y1="540" x2="1200" y2="540" stroke="#f4f7f2" stroke-width="1" opacity=".028"/><line x1="0" y1="600" x2="1200" y2="600" stroke="#f4f7f2" stroke-width="1" opacity=".028"/><line x1="0" y1="660" x2="1200" y2="660" stroke="#f4f7f2" stroke-width="1" opacity=".028"/><line x1="0" y1="720" x2="1200" y2="720" stroke="#f4f7f2" stroke-width="1" opacity=".028"/><line x1="0" y1="780" x2="1200" y2="780" stroke="#f4f7f2" stroke-width="1" opacity=".028"/><line x1="0" y1="840" x2="1200" y2="840" stroke="#f4f7f2" stroke-width="1" opacity=".028"/><line x1="0" y1="900" x2="1200" y2="900" stroke="#f4f7f2" stroke-width="1" opacity=".028"/><ellipse cx="600" cy="455" rx="430" ry="330" fill="url(#glow)"/><path class="dw" d="M560,700 L640,700" pathLength="100" stroke="#f4f7f2" stroke-width="4" fill="none" opacity=".45" style="animation-delay:0s"/><path class="dw" d="M583,700 L587,570 L603,570 L617,700 Z" pathLength="100" stroke="#f4f7f2" stroke-width="4" fill="none" style="animation-delay:.15s"/><path class="dw" d="M595,570 L606,439" pathLength="100" stroke="#f4f7f2" stroke-width="4.2" fill="none" opacity="0.89" style="animation-delay:0.45s"/><path class="dw" d="M606,439 L643,361" pathLength="100" stroke="#f4f7f2" stroke-width="3.2" fill="none" opacity="0.78" style="animation-delay:0.73s"/><path class="dw" d="M643,361 L696,330" pathLength="100" stroke="#8fbe3f" stroke-width="2.1" fill="none" opacity="0.67" style="animation-delay:1.02s"/><path class="dw" d="M696,330 L742,331" pathLength="100" stroke="#8fbe3f" stroke-width="1.1" fill="none" opacity="0.56" style="animation-delay:1.30s"/><path class="dw" d="M696,330 L716,293" pathLength="100" stroke="#8fbe3f" stroke-width="1.1" fill="none" opacity="0.56" style="animation-delay:1.30s"/><path class="dw" d="M643,361 L634,303" pathLength="100" stroke="#8fbe3f" stroke-width="2.1" fill="none" opacity="0.67" style="animation-delay:1.02s"/><path class="dw" d="M634,303 L652,265" pathLength="100" stroke="#8fbe3f" stroke-width="1.1" fill="none" opacity="0.56" style="animation-delay:1.30s"/><path class="dw" d="M634,303 L606,272" pathLength="100" stroke="#8fbe3f" stroke-width="1.1" fill="none" opacity="0.56" style="animation-delay:1.30s"/><path class="dw" d="M606,439 L581,352" pathLength="100" stroke="#f4f7f2" stroke-width="3.2" fill="none" opacity="0.78" style="animation-delay:0.73s"/><path class="dw" d="M581,352 L591,288" pathLength="100" stroke="#8fbe3f" stroke-width="2.1" fill="none" opacity="0.67" style="animation-delay:1.02s"/><path class="dw" d="M591,288 L613,253" pathLength="100" stroke="#8fbe3f" stroke-width="1.1" fill="none" opacity="0.56" style="animation-delay:1.30s"/><path class="dw" d="M591,288 L579,245" pathLength="100" stroke="#8fbe3f" stroke-width="1.1" fill="none" opacity="0.56" style="animation-delay:1.30s"/><path class="dw" d="M581,352 L542,304" pathLength="100" stroke="#8fbe3f" stroke-width="2.1" fill="none" opacity="0.67" style="animation-delay:1.02s"/><path class="dw" d="M542,304 L538,265" pathLength="100" stroke="#8fbe3f" stroke-width="1.1" fill="none" opacity="0.56" style="animation-delay:1.30s"/><path class="dw" d="M542,304 L499,291" pathLength="100" stroke="#8fbe3f" stroke-width="1.1" fill="none" opacity="0.56" style="animation-delay:1.30s"/><path class="dw" d="M606,439 L610,361" pathLength="100" stroke="#8fbe3f" stroke-width="2.1" fill="none" opacity="0.67" style="animation-delay:0.85s"/><path class="dw" d="M610,361 L638,308" pathLength="100" stroke="#8fbe3f" stroke-width="1.1" fill="none" opacity="0.56" style="animation-delay:1.13s"/><path class="dw" d="M610,361 L591,314" pathLength="100" stroke="#8fbe3f" stroke-width="1.1" fill="none" opacity="0.56" style="animation-delay:1.13s"/><circle class="leaf" cx="499" cy="418" r="43" fill="#8fbe3f" fill-opacity="0.27" style="animation-delay:1.90s"/><circle class="leaf" cx="824" cy="434" r="43" fill="#8fbe3f" fill-opacity="0.23" style="animation-delay:1.96s"/><circle class="leaf" cx="580" cy="378" r="37" fill="#8fbe3f" fill-opacity="0.37" style="animation-delay:2.02s"/><circle class="leaf" cx="552" cy="447" r="22" fill="#8fbe3f" fill-opacity="0.26" style="animation-delay:2.08s"/><circle class="leaf" cx="761" cy="486" r="26" fill="#8fbe3f" fill-opacity="0.29" style="animation-delay:2.14s"/><circle class="leaf" cx="492" cy="528" r="24" fill="#8fbe3f" fill-opacity="0.34" style="animation-delay:2.20s"/><circle class="leaf" cx="720" cy="428" r="36" fill="#8fbe3f" fill-opacity="0.33" style="animation-delay:2.26s"/><circle class="leaf" cx="639" cy="488" r="49" fill="#8fbe3f" fill-opacity="0.37" style="animation-delay:2.32s"/><circle class="leaf" cx="654" cy="383" r="24" fill="#8fbe3f" fill-opacity="0.27" style="animation-delay:2.38s"/><circle class="leaf" cx="626" cy="545" r="50" fill="#8fbe3f" fill-opacity="0.35" style="animation-delay:2.44s"/></svg>